<svg width="36" height="36" viewBox="0 0 36 36" fill="none" xmlns="http://www.w3.org/2000/svg">
<g id="cc-amex" clip-path="url(#clip0_216_6286)">
<path id="Vector" d="M20.3187 12.4875C20.3187 11.4625 19.4375 11.3375 18.6062 11.3375L16.1625 11.3187V15.65H17.1875V14.0812H18.3125C19.4625 14.0812 19.2187 14.725 19.2375 15.65H20.275V14.8062C20.275 14.2312 20.1812 13.8625 19.5875 13.6562C20.05 13.4687 20.325 12.9875 20.3187 12.4875ZM18.4812 13.1937H17.1875V12.2375H18.5C18.8187 12.2375 19.1687 12.3 19.1687 12.7C19.1687 13.1125 18.8375 13.1937 18.4812 13.1937ZM17.4375 18.7875H14.1437L12.8312 20.2125L11.55 18.7875H7.39374L7.38749 23.1187H11.475L12.8062 21.6812L14.0812 23.1187H16.0937L16.1 21.6625C17.2812 21.6625 19.1812 21.95 19.1812 20.2062C19.1812 19.125 18.4125 18.7875 17.4375 18.7875ZM10.95 22.2062H8.41249V21.3437H10.6812V20.4625H8.41249V19.6812H11.0187L12.1375 20.9437L10.95 22.2062ZM15.0625 22.7187L13.4812 20.9625L15.0625 19.25V22.7187ZM17.425 20.7812H16.1V19.6812H17.4437C17.7937 19.6812 18.0812 19.825 18.0812 20.2062C18.0812 20.6062 17.7937 20.7812 17.425 20.7812ZM15.45 12.2375V11.325H11.9812V15.6562H15.45V14.7625H13.0187V13.9H15.3812V13.0187H13.0187V12.2375H15.45ZM23.8375 19.9562C23.8375 18.9312 22.9562 18.7875 22.1437 18.7875H19.6812L19.675 23.1187H20.7125L20.7187 21.5375H21.8187C22.5062 21.5375 22.7437 21.6625 22.7437 22.4L22.7375 23.1187H23.775L23.7812 22.2562C23.7812 21.7 23.6687 21.3125 23.0937 21.1062C23.575 20.9125 23.8312 20.4312 23.8375 19.9562ZM22.0125 20.6562H20.7187V19.6812H22.0312C22.35 19.6812 22.7 19.7437 22.7 20.1437C22.7 20.575 22.3625 20.6562 22.0125 20.6562ZM11.2125 15.6562V11.325H9.48749L8.25624 14.2625L6.89999 11.325H5.20624V15.4312L3.44999 11.325H1.91874L0.0624878 15.6562H1.18124L1.58124 14.7H3.73749L4.13749 15.6562H6.24999V12.2687L7.74999 15.6562H8.66249L10.1625 12.2687V15.6562H11.2125ZM1.94999 13.8L2.64999 12.075L3.36874 13.8H1.94999ZM31.7875 23.7312V23.45C31.1125 23.8 31.5437 23.7312 21.9937 23.7312C21.9937 22.1562 22 22.2375 21.9937 22.1562C21.8875 22.15 21.7937 22.15 21.4062 22.15C21.4062 23.2687 21.4 22.575 21.4 23.7312H18.925C18.925 22.975 18.9312 22.775 18.9312 21.9062C18.3062 22.2812 17.5062 22.3062 16.7875 22.2937C16.7875 23.2125 16.7812 22.8125 16.7812 23.7312H13.725C13.4062 23.375 13.5562 23.5375 12.7625 22.6437C12.5625 22.8625 11.9625 23.5125 11.7562 23.7312H6.63124V17.9625H11.825C12.1375 18.3125 12 18.1562 12.7937 19.0375C12.9937 18.8187 13.5562 18.2 13.775 17.9625H17.4C18.0125 17.9625 18.525 18.0812 18.9187 18.3125V17.9625C22.3125 17.9625 22.9375 17.875 23.65 18.2812V17.9625H28.5375V18.2875C29.25 17.8562 29.7625 17.9625 32.5937 17.9625V18.275C33.2375 17.9062 33.6312 17.95 35.9875 17.9625V7C35.9875 5.34375 34.6437 4 32.9875 4H2.98749C1.33124 4 -0.0125122 5.34375 -0.0125122 7V13.8625C0.574988 12.4937 1.21874 10.9875 1.43124 10.4937H3.91249C4.18124 11.125 4.01249 10.725 4.47499 11.8125V10.4937H7.34999C7.53124 10.8812 8.04374 11.9937 8.21874 12.3687C8.58124 11.5187 8.84999 10.875 9.00624 10.4937H15.4437C15.4437 10.4875 16.1625 10.4937 16.1687 10.4937C18.9 10.5062 19.5187 10.4437 20.1937 10.825V10.4937H22.6875V11.075C23.1625 10.6937 23.8062 10.4937 24.6062 10.4937H26.3312C26.3312 10.525 26.45 10.5125 26.475 10.5125H28.5C28.7625 11.125 28.6625 10.8875 29.05 11.8V10.5125H31.7562C32.0625 11.0125 31.6937 10.4 32.4562 11.6625V10.5125H34.95V16.2625H32.35C32.0125 15.7 32.2625 16.125 31.525 14.8937V16.2625H28.225C27.825 15.3375 28.2187 16.2437 27.8125 15.3062H26.625C26.3625 15.9312 26.4875 15.6312 26.225 16.2625H24.55C23.7812 16.2625 23.1562 16.075 22.6937 15.7062V16.2625H18.5375C18.5187 15.3937 18.5312 14.7125 18.5312 14.7125C18.4187 14.6937 18.3187 14.7 17.9187 14.7V16.2687H9.44999V15.5562C9.29374 15.9062 9.28124 15.925 9.13124 16.2687H7.28749C7.03749 15.7125 7.10624 15.8687 6.96874 15.5562V16.2687H3.66249C3.39999 15.6375 3.52499 15.9375 3.26249 15.3125H2.06249C1.79999 15.9375 1.92499 15.6375 1.66249 16.2687H-1.22068e-05V29C-1.22068e-05 30.6562 1.34374 32 2.99999 32H33.0062C34.6625 32 36.0062 30.6562 36.0062 29V23.35C35.2125 23.8687 33.9625 23.7312 31.7875 23.7312ZM34.0562 19.7H35.9375V18.7875H33.8812C33.0812 18.7875 32.3937 19.2 32.3937 20.0812C32.3937 22.1437 35.0625 20.8813 35.0625 21.7937C35.0625 22.1125 34.7937 22.1937 34.5375 22.1937H32.5375L32.5312 23.1187H34.5312C35.0562 23.1187 35.6312 23.0062 35.9375 22.5625V20.95C35.2812 20.0875 33.4812 20.8687 33.4812 20.1062C33.4812 19.7437 33.7687 19.7 34.0562 19.7ZM30.4937 22.1875H28.4812L28.475 23.1125H30.4875C31.4125 23.1125 32.125 22.7625 32.125 21.7375C32.125 19.6625 29.4437 21.0375 29.4437 20.0937C29.4437 19.7437 29.75 19.6937 30.0187 19.6937H31.9187V18.7812H29.8437C29.0437 18.7812 28.375 19.1937 28.375 20.075C28.375 22.1375 31.0437 20.8562 31.0437 21.7875C31.0375 22.125 30.75 22.1875 30.4937 22.1875ZM27.8562 19.6812V18.7875H24.4062L24.4 23.1187H27.85L27.8562 22.225L25.4437 22.2062V21.3437H27.8125V20.4625H25.45V19.6812H27.8562ZM24.3375 12.925C24.3187 12.9375 24.25 13.0625 24.25 13.4C24.25 13.775 24.3062 13.8812 24.3187 13.8937C24.3312 13.9 24.3875 13.925 24.5312 13.925L24.9875 12.8687C24.9187 12.8687 24.8562 12.8625 24.7937 12.8625C24.4437 12.8625 24.3562 12.9062 24.3375 12.925ZM24.6 11.3187C23.1312 11.3187 22.475 12.0687 22.475 13.525C22.475 14.9125 23.1125 15.65 24.5375 15.65H25.7375L26.1375 14.6937H28.2812L28.6937 15.65H30.8V12.4062L32.75 15.65H34.225V11.3375H33.1687V14.3437L31.35 11.3375H29.7687V15.425L28.025 11.3375H26.475L25.0062 14.7437H24.5437C23.7125 14.7437 23.5375 14.2375 23.5375 13.5C23.5375 12.0125 24.5187 12.25 25.6062 12.2687V11.3187H24.6ZM27.2312 12.075L27.9312 13.8H26.5062L27.2312 12.075ZM20.9125 11.325V15.6562H21.9687V11.325H20.9125Z" fill="#DCDCDC"/>
</g>
<defs>
<clipPath id="clip0_216_6286">
<rect width="36" height="36" fill="white"/>
</clipPath>
</defs>
</svg>
