<svg width="37" height="36" viewBox="0 0 37 36" fill="none" xmlns="http://www.w3.org/2000/svg">
<g id="cc-diners-club" clip-path="url(#clip0_216_6293)">
<path id="Vector" d="M15.4812 6.99375C9.425 6.99375 4.49375 11.9062 4.49375 17.9812C4.49375 24.0375 9.425 28.9687 15.4812 28.9687C21.5562 28.9687 26.4688 24.0375 26.4688 17.9812C26.4688 11.9062 21.5562 6.99375 15.4812 6.99375ZM12.9875 24.4687C10.3813 23.475 8.525 20.9437 8.525 17.9812C8.525 15.0187 10.3813 12.4875 12.9875 11.475V24.4687ZM17.975 24.4875V11.475C20.5813 12.4875 22.4375 15.0187 22.4375 17.9812C22.4375 20.9437 20.5813 23.475 17.975 24.4875ZM33.5 4H3.5C1.84375 4 0.5 5.34375 0.5 7V29C0.5 30.6562 1.84375 32 3.5 32H33.5C35.1562 32 36.5 30.6562 36.5 29V7C36.5 5.34375 35.1562 4 33.5 4ZM21.1063 30H15.4625C8.825 30 3.35 24.6562 3.35 18.1125C3.35 10.95 8.825 6 15.4625 6H21.1063C27.6688 6 33.65 10.95 33.65 18.1125C33.65 24.6562 27.6688 30 21.1063 30Z" fill="#DCDCDC"/>
</g>
<defs>
<clipPath id="clip0_216_6293">
<rect width="36" height="36" fill="white" transform="translate(0.5)"/>
</clipPath>
</defs>
</svg>
