<svg width="36" height="36" viewBox="0 0 36 36" fill="none" xmlns="http://www.w3.org/2000/svg">
<g id="cc-discover" clip-path="url(#clip0_216_6291)">
<path id="Vector" d="M32.525 14.2562C32.525 13.7625 32.1812 13.5 31.55 13.5H31.2437V15.0562H31.5375C32.1813 15.0562 32.525 14.7812 32.525 14.2562ZM33 4H3C1.34375 4 0 5.34375 0 7V29C0 30.6562 1.34375 32 3 32H33C34.6562 32 36 30.6562 36 29V7C36 5.34375 34.6562 4 33 4ZM30.2437 12.6812C31.6562 12.6812 33.55 12.425 33.55 14.2062C33.55 14.9937 33.1375 15.5 32.3812 15.6562L33.9938 17.8062H32.7687L31.3813 15.7562H31.2437V17.8062H30.2437V12.6812ZM26.75 12.6875H29.5812V13.5625H27.75V14.7H29.5187V15.5625H27.75V16.95H29.5812V17.8125H26.75V12.6875ZM22.4562 12.6875L23.825 16.1375L25.2125 12.6875H26.3062L24.0875 17.95H23.55L21.3625 12.6875H22.4562ZM18.9625 12.5C20.5063 12.5 21.75 13.75 21.75 15.2875C21.75 16.8312 20.5 18.075 18.9625 18.075C17.4187 18.075 16.175 16.825 16.175 15.2875C16.175 13.7437 17.425 12.5 18.9625 12.5ZM15.8813 12.8812V14.0687C14.625 12.8125 12.9563 13.775 12.9563 15.2562C12.9563 16.8187 14.675 17.6625 15.8813 16.4562V17.6437C14.025 18.5375 11.925 17.2875 11.925 15.2562C11.925 13.3062 13.9938 11.9437 15.8813 12.8812ZM9.80625 17.025C10.5187 17.025 11.2063 16.0687 9.6 15.5C8.6625 15.1562 8.3375 14.7875 8.3375 14.0812C8.3375 12.6312 10.25 12.1187 11.4438 13.1875L10.9187 13.8625C10.2688 13.1375 9.3625 13.475 9.3625 14.0187C9.3625 14.2937 9.53125 14.45 10.1313 14.6625C11.2688 15.075 11.6062 15.4437 11.6062 16.2625C11.6062 18.1062 9.18125 18.6 8.06875 16.9687L8.7125 16.35C8.94375 16.7937 9.33125 17.025 9.80625 17.025ZM3.4625 17.8125H2V12.6875H3.4625C5.09375 12.6875 6.21875 13.75 6.21875 15.2562C6.21875 16.4125 5.39375 17.8125 3.4625 17.8125ZM7.68125 17.8125H6.68125V12.6875H7.68125V17.8125ZM34 29.0625C34 29.575 33.575 30 33.0625 30H8C19.85 27.775 31.9188 21.3 34 20V29.0625ZM4.63125 13.975C4.30625 13.6687 3.90625 13.5625 3.2625 13.5625H3V16.95H3.2625C3.90625 16.95 4.325 16.825 4.63125 16.55C4.9875 16.225 5.1875 15.75 5.1875 15.2562C5.1875 14.7625 4.9875 14.2875 4.63125 13.975Z" fill="#DCDCDC"/>
</g>
<defs>
<clipPath id="clip0_216_6291">
<rect width="36" height="36" fill="white"/>
</clipPath>
</defs>
</svg>
