<svg width="36" height="36" viewBox="0 0 36 36" fill="none" xmlns="http://www.w3.org/2000/svg">
<g id="cc-jcb" clip-path="url(#clip0_216_6295)">
<path id="Vector" d="M26.9688 17.2687V15.25C29.5438 15.25 29.375 15.2625 29.375 15.2625C29.8312 15.3437 30.2062 15.7187 30.2062 16.2625C30.2062 16.8125 29.8312 17.1687 29.375 17.25C29.3 17.275 29.1688 17.2687 26.9688 17.2687ZM29.6437 18.5312C29.4688 18.4875 29.4375 18.5 26.9688 18.5V20.6875C29.4438 20.6875 29.4688 20.7 29.6437 20.6562C30.1125 20.5625 30.4875 20.1562 30.4875 19.5937C30.4875 19.05 30.1125 18.625 29.6437 18.5312ZM36 7V29C36 30.6562 34.6562 32 33 32H3C1.34375 32 0 30.6562 0 29V7C0 5.34375 1.34375 4 3 4H33C34.6562 4 36 5.34375 36 7ZM11.375 14.0187H7.8125C7.8125 18.2125 8.48125 20.875 5.575 20.875C4.35625 20.875 3.15 20.5187 2 19.95V21.7C3.875 22.2188 6.25 22.2187 6.25 22.2187C12.3687 22.2187 11.375 19.2375 11.375 14.0187ZM22.5312 14.3C18.5688 13.3 12.2188 13.3687 12.2188 18.0062C12.2188 22.825 18.9813 22.6062 22.5312 21.7062V19.9375C19.5562 21.4812 15.8125 21.3125 15.8125 18C15.8125 14.6875 19.55 14.525 22.5312 16.05V14.3ZM34 19.9062C34 18.75 32.9688 18 31.625 17.9062V17.8562C32.8438 17.6875 33.5187 16.8875 33.5187 15.9687C33.5187 14.7812 32.5375 14.0937 31.2062 14.0312C31.2062 14.0312 31.6 14.0125 23.6875 14.0125V21.9812H31.3563C32.875 21.9875 34 21.175 34 19.9062Z" fill="#DCDCDC"/>
</g>
<defs>
<clipPath id="clip0_216_6295">
<rect width="36" height="36" fill="white"/>
</clipPath>
</defs>
</svg>
