<svg width="37" height="36" viewBox="0 0 37 36" fill="none" xmlns="http://www.w3.org/2000/svg">
<g id="cc-mastercard" clip-path="url(#clip0_216_6297)">
<path id="Vector" d="M30.6812 27.6437C30.6812 28.0687 30.3938 28.375 29.9813 28.375C29.5563 28.375 29.2812 28.05 29.2812 27.6437C29.2812 27.2375 29.5563 26.9125 29.9813 26.9125C30.3938 26.9125 30.6812 27.2375 30.6812 27.6437ZM11.2563 26.9125C10.8125 26.9125 10.5562 27.2375 10.5562 27.6437C10.5562 28.05 10.8125 28.375 11.2563 28.375C11.6625 28.375 11.9375 28.0687 11.9375 27.6437C11.9312 27.2375 11.6625 26.9125 11.2563 26.9125ZM18.6 26.8937C18.2625 26.8937 18.0562 27.1125 18.0063 27.4375H19.2C19.1438 27.0812 18.925 26.8937 18.6 26.8937ZM25.3375 26.9125C24.9125 26.9125 24.6562 27.2375 24.6562 27.6437C24.6562 28.05 24.9125 28.375 25.3375 28.375C25.7625 28.375 26.0375 28.0687 26.0375 27.6437C26.0375 27.2375 25.7625 26.9125 25.3375 26.9125ZM31.9562 28.5437C31.9562 28.5625 31.975 28.575 31.975 28.6125C31.975 28.6312 31.9562 28.6437 31.9562 28.6812C31.9375 28.7 31.9375 28.7125 31.925 28.7312C31.9062 28.75 31.8938 28.7625 31.8563 28.7625C31.8375 28.7812 31.825 28.7812 31.7875 28.7812C31.7688 28.7812 31.7563 28.7812 31.7188 28.7625C31.7 28.7625 31.6875 28.7437 31.6688 28.7312C31.65 28.7125 31.6375 28.7 31.6375 28.6812C31.6188 28.65 31.6187 28.6312 31.6187 28.6125C31.6187 28.5812 31.6188 28.5625 31.6375 28.5437C31.6375 28.5125 31.6562 28.4937 31.6688 28.475C31.6875 28.4562 31.7 28.4562 31.7188 28.4437C31.75 28.425 31.7688 28.425 31.7875 28.425C31.8188 28.425 31.8375 28.425 31.8563 28.4437C31.8875 28.4625 31.9062 28.4625 31.925 28.475C31.9437 28.4875 31.9375 28.5125 31.9562 28.5437ZM31.8188 28.6312C31.85 28.6312 31.85 28.6125 31.8687 28.6125C31.8875 28.5937 31.8875 28.5812 31.8875 28.5625C31.8875 28.5437 31.8875 28.5312 31.8687 28.5125C31.85 28.5125 31.8375 28.4937 31.8 28.4937H31.7V28.7125H31.75V28.625H31.7687L31.8375 28.7125H31.8875L31.8188 28.6312ZM36.5 7.0625V29.0625C36.5 30.7187 35.1562 32.0625 33.5 32.0625H3.5C1.84375 32.0625 0.5 30.7187 0.5 29.0625V7.0625C0.5 5.40625 1.84375 4.0625 3.5 4.0625H33.5C35.1562 4.0625 36.5 5.40625 36.5 7.0625ZM4.5 15.7875C4.5 20.5687 8.38125 24.4437 13.1562 24.4437C14.8562 24.4437 16.525 23.9312 17.9375 23C13.3813 19.2937 13.4125 12.3 17.9375 8.59375C16.525 7.65625 14.8562 7.15 13.1562 7.15C8.38125 7.14375 4.5 11.025 4.5 15.7875ZM18.5 22.5875C22.9062 19.15 22.8875 12.45 18.5 8.99375C14.1125 12.45 14.0938 19.1562 18.5 22.5875ZM9.60625 27.3562C9.60625 26.8125 9.25 26.4562 8.6875 26.4375C8.4 26.4375 8.09375 26.525 7.8875 26.8437C7.7375 26.5875 7.48125 26.4375 7.125 26.4375C6.8875 26.4375 6.65 26.525 6.4625 26.775V26.5H5.95V28.7937H6.4625C6.4625 27.6125 6.30625 26.9062 7.025 26.9062C7.6625 26.9062 7.5375 27.5437 7.5375 28.7937H8.03125C8.03125 27.65 7.875 26.9062 8.59375 26.9062C9.23125 26.9062 9.10625 27.5312 9.10625 28.7937H9.61875V27.3562H9.60625ZM12.4125 26.5H11.9187V26.775C11.75 26.5687 11.5125 26.4375 11.1875 26.4375C10.5437 26.4375 10.05 26.95 10.05 27.6437C10.05 28.3437 10.5437 28.85 11.1875 28.85C11.5125 28.85 11.75 28.7312 11.9187 28.5125V28.8H12.4125V26.5ZM14.9438 28.1C14.9438 27.1625 13.5125 27.5875 13.5125 27.15C13.5125 26.7937 14.2562 26.85 14.6687 27.0812L14.875 26.675C14.2875 26.2937 12.9875 26.3 12.9875 27.1875C12.9875 28.0812 14.4187 27.7062 14.4187 28.125C14.4187 28.5187 13.575 28.4875 13.125 28.175L12.9062 28.5687C13.6062 29.0437 14.9438 28.9437 14.9438 28.1ZM17.1562 28.6812L17.0187 28.2562C16.7812 28.3875 16.2563 28.5312 16.2563 28V26.9625H17.075V26.5H16.2563V25.8H15.7437V26.5H15.2688V26.9562H15.7437V28C15.7437 29.1 16.825 28.9 17.1562 28.6812ZM17.9875 27.8437H19.7062C19.7062 26.8312 19.2437 26.4312 18.6187 26.4312C17.9562 26.4312 17.4813 26.925 17.4813 27.6375C17.4813 28.9187 18.8937 29.1312 19.5938 28.525L19.3563 28.15C18.8688 28.55 18.1312 28.5125 17.9875 27.8437ZM21.6812 26.5C21.3937 26.375 20.9563 26.3875 20.7313 26.775V26.5H20.2188V28.7937H20.7313V27.5C20.7313 26.775 21.325 26.8687 21.5312 26.975L21.6812 26.5ZM22.3438 27.6437C22.3438 26.9312 23.0688 26.7 23.6375 27.1187L23.875 26.7125C23.15 26.1437 21.8312 26.4562 21.8312 27.65C21.8312 28.8875 23.2313 29.1375 23.875 28.5875L23.6375 28.1812C23.0625 28.5875 22.3438 28.3437 22.3438 27.6437ZM26.5125 26.5H26V26.775C25.4813 26.0875 24.1313 26.475 24.1313 27.6437C24.1313 28.8437 25.5312 29.1875 26 28.5125V28.8H26.5125V26.5ZM28.6187 26.5C28.4688 26.425 27.9313 26.3187 27.6688 26.775V26.5H27.175V28.7937H27.6688V27.5C27.6688 26.8125 28.2313 26.8562 28.4688 26.975L28.6187 26.5ZM31.1375 25.5687H30.6437V26.775C30.1312 26.0937 28.775 26.4562 28.775 27.6437C28.775 28.8562 30.1812 29.1812 30.6437 28.5125V28.8H31.1375V25.5687ZM31.6125 20.875V21.1625H31.6625V20.875H31.7812V20.825H31.4937V20.875H31.6125ZM32.025 28.6125C32.025 28.5812 32.025 28.5437 32.0063 28.5125C31.9875 28.4937 31.975 28.4625 31.9562 28.4437C31.9375 28.425 31.9062 28.4125 31.8875 28.3937C31.8563 28.3937 31.8188 28.375 31.7875 28.375C31.7688 28.375 31.7375 28.3937 31.7 28.3937C31.6688 28.4125 31.65 28.425 31.6313 28.4437C31.6 28.4625 31.5812 28.4937 31.5812 28.5125C31.5625 28.5437 31.5625 28.5812 31.5625 28.6125C31.5625 28.6312 31.5625 28.6625 31.5812 28.7C31.5812 28.7188 31.6 28.75 31.6313 28.7687C31.65 28.7875 31.6625 28.8 31.7 28.8187C31.7313 28.8375 31.7688 28.8375 31.7875 28.8375C31.8188 28.8375 31.8563 28.8375 31.8875 28.8187C31.9062 28.8 31.9375 28.7875 31.9562 28.7687C31.975 28.75 31.9875 28.7188 32.0063 28.7C32.025 28.6625 32.025 28.6312 32.025 28.6125ZM32.225 20.8187H32.1375L32.0375 21.0375L31.9375 20.8187H31.85V21.1562H31.9V20.9L32 21.1187H32.0688L32.1562 20.9V21.1562H32.225V20.8187ZM32.5 15.7875C32.5 11.025 28.6187 7.14375 23.8438 7.14375C22.1437 7.14375 20.475 7.65625 19.0625 8.5875C23.5688 12.2937 23.6375 19.3062 19.0625 22.9937C20.475 23.9312 22.1562 24.4375 23.8438 24.4375C28.6187 24.4437 32.5 20.5687 32.5 15.7875Z" fill="#DCDCDC"/>
</g>
<defs>
<clipPath id="clip0_216_6297">
<rect width="36" height="36" fill="white" transform="translate(0.5)"/>
</clipPath>
</defs>
</svg>
