<svg width="37" height="36" viewBox="0 0 37 36" fill="none" xmlns="http://www.w3.org/2000/svg">
<g id="Page-1">
<g id="unionpay">
<path id="Shape" fill-rule="evenodd" clip-rule="evenodd" d="M0.5 6.33328C0.5 5.01984 1.35989 3.95508 2.41961 3.95508H34.5804C35.6406 3.95508 36.5 5.01958 36.5 6.33328V29.5769C36.5 30.8903 35.6401 31.9551 34.5804 31.9551H2.41961C1.35944 31.9551 0.5 30.8906 0.5 29.5769V6.33328ZM24.3167 24.0442H24.1201L24.0655 24.2616H23.2707L23.3254 24.0442H21.716L21.875 23.3857H22.0389L22.8833 19.882L23.0522 19.1738H23.8618L23.7774 19.5279C23.7774 19.5279 23.991 19.3353 24.1996 19.2669C24.3644 19.2117 25.1633 19.1848 25.4623 19.1766L25.46 19.1738H26.3243L26.3342 19.5776C26.3293 19.6459 26.374 19.677 26.4783 19.677H26.6521L26.4932 20.3417H26.0263C25.6239 20.3789 25.4699 20.1615 25.4799 19.9192L25.4732 19.5871L25.4017 19.8757H25.1235L25.1285 19.882L24.294 23.3298H24.5175L24.4448 23.6286H24.6474C24.712 23.6286 24.7716 23.5975 24.8163 23.5664C24.861 23.5416 24.9008 23.5167 24.9405 23.436L25.5664 22.3364H24.7418L24.8809 21.7462H25.8247L25.9588 21.2058H25.0299L25.1889 20.5411H27.7718L27.6129 21.2058H26.7436L26.6095 21.7462H27.4788L27.3347 22.3364H26.3959L26.227 22.5849H26.6095L26.7039 23.3304C26.7138 23.4049 26.7138 23.4546 26.7337 23.4857C26.7535 23.5105 26.8678 23.523 26.9324 23.523H27.0466L26.8678 24.2498H26.5747C26.53 24.2498 26.4605 24.2436 26.3661 24.2436C26.2767 24.2312 26.2171 24.169 26.1575 24.1318C26.1028 24.1007 26.0234 24.0199 26.0035 23.8771L25.9141 23.1316L25.4869 23.8646C25.3528 24.0945 25.169 24.2746 24.8561 24.2746H24.26L24.3167 24.0442ZM22.8634 23.336H23.5092L23.693 22.5595H23.0522L22.8634 23.336ZM23.38 21.199L23.1565 22.1184C23.1565 22.1184 23.3999 21.9631 23.534 21.9134C23.6681 21.8761 23.8668 21.845 23.8668 21.845L24.0208 21.2052H23.3751L23.38 21.199ZM23.6955 19.882L23.4893 20.6585C23.4893 20.6585 23.7195 20.5382 23.8489 20.4999C23.9784 20.4616 24.1702 20.4507 24.1702 20.4507L24.3188 19.8874H23.7003L23.6955 19.882ZM16.5471 20.7194H18.7277L18.5687 21.3717H17.6994L17.5653 21.9246H18.4594L18.2955 22.5955H17.4064L17.1878 23.4963C17.163 23.5957 17.4014 23.6081 17.4859 23.6081L17.9329 23.5336L17.7541 24.279H16.7507C16.6712 24.279 16.6116 24.2666 16.5222 24.2418C16.4378 24.2169 16.398 24.1672 16.3633 24.0989C16.3285 24.0243 16.2689 23.9684 16.3086 23.8069L16.5967 22.6142H16.1L16.2639 21.9308H16.7606L16.8948 21.3779H16.398L16.557 20.7256L16.5471 20.7194ZM18.0536 19.5403H18.9477L18.7838 20.2174H17.5619L17.4278 20.3603C17.3682 20.4286 17.3533 20.4038 17.2788 20.4535C17.2092 20.497 17.0652 20.5839 16.8764 20.5839H16.484L16.643 19.9317H16.7622C16.8615 19.9317 16.9311 19.9192 16.9658 19.8944C17.0056 19.8633 17.0503 19.795 17.095 19.6832L17.3185 19.1738H18.2076L18.0536 19.5465V19.5403ZM19.7388 20.6585C19.7388 20.6585 19.9822 20.3789 20.3995 20.292C20.4938 20.2671 21.0899 20.2795 21.0899 20.2795L21.1793 19.9068H19.9226L19.7388 20.6647V20.6585ZM20.921 20.9443H19.6742L19.5997 21.2611H20.6826C20.8117 21.2424 20.8366 21.2673 20.8465 21.2549L20.926 20.9443H20.921ZM19.3017 19.18H20.0617L19.9524 19.6583C19.9524 19.6583 20.1908 19.416 20.3597 19.3291C20.5286 19.2545 20.9061 19.18 20.9061 19.18L22.138 19.1738L21.7158 20.9256C21.6462 21.2238 21.5618 21.4164 21.5121 21.5096C21.4674 21.5965 21.4128 21.6773 21.3035 21.7519C21.1992 21.8202 21.1048 21.8637 21.0154 21.8699C20.9359 21.8761 20.8068 21.8823 20.6379 21.8823H19.4507L19.1179 23.2676C19.0881 23.4043 19.0732 23.4727 19.0931 23.5099C19.108 23.541 19.1527 23.5783 19.2073 23.5783L19.7289 23.5161L19.5501 24.274H18.9639C18.7752 24.274 18.6411 24.2678 18.5467 24.2616C18.4573 24.2492 18.3629 24.2616 18.2983 24.1995C18.2437 24.1374 18.1592 24.0566 18.1642 23.9758C18.1692 23.9013 18.194 23.7771 18.2337 23.6031L19.3017 19.18ZM21.5163 21.9678L21.4468 22.3903C21.417 22.5207 21.3922 22.6201 21.3127 22.7071C21.2282 22.794 21.1339 22.8872 20.9054 22.8872L20.4832 22.9121L20.4782 23.3842C20.4732 23.5147 20.503 23.5022 20.5179 23.5271C20.5378 23.5519 20.5527 23.5582 20.5726 23.5706L20.7067 23.5582L21.109 23.5333L20.9401 24.2291H20.4782C20.1553 24.2291 19.9119 24.2167 19.8374 24.1421C19.7579 24.08 19.748 24.0054 19.748 23.8688L19.7778 22.0175H20.5179L20.508 22.3965H20.6868C20.7464 22.3965 20.7911 22.3903 20.816 22.3716C20.8408 22.353 20.8557 22.3219 20.8656 22.2784L20.9401 21.9802H21.5213L21.5163 21.9678ZM10.9866 12.6939C10.9617 12.843 10.4849 15.5826 10.4849 15.5826C10.3806 16.1355 10.3061 16.5331 10.0577 16.7878C9.91366 16.9369 9.74477 17.0052 9.55105 17.0052C9.23812 17.0052 9.0593 16.8127 9.02949 16.4461L9.02453 16.3219C9.02453 16.3219 9.1189 15.5826 9.1189 15.5764C9.1189 15.5764 9.61563 13.0791 9.70504 12.7498C9.71 12.7312 9.71 12.7188 9.71 12.7126C8.74139 12.725 8.56754 12.7126 8.55761 12.6939C8.55264 12.7188 8.5278 12.8741 8.5278 12.8741L8.02115 15.6882L7.97644 15.9243L7.892 16.7071C7.892 16.9369 7.92677 17.1295 8.00128 17.2848C8.23474 17.7942 8.89538 17.8688 9.26792 17.8688C9.74974 17.8688 10.2018 17.7383 10.5048 17.5084C11.0363 17.1171 11.1753 16.5021 11.2945 15.9616L11.3542 15.682C11.3542 15.682 11.8658 13.0915 11.9552 12.7561C11.9602 12.7374 11.9602 12.725 11.9651 12.7188C11.2598 12.725 11.0561 12.7188 10.9866 12.7001V12.6939ZM13.82 17.8435C13.4772 17.8373 13.353 17.8373 12.9507 17.8621L12.9358 17.8248C12.9706 17.6323 13.0103 17.4459 13.0401 17.2533L13.0898 16.9924C13.1643 16.5886 13.2338 16.1102 13.2438 15.9674C13.2537 15.8804 13.2736 15.663 13.0749 15.663C12.9904 15.663 12.906 15.7127 12.8166 15.7624C12.7669 15.9798 12.6725 16.5886 12.6229 16.8619C12.5235 17.4459 12.5185 17.5142 12.4738 17.8L12.444 17.8373C12.0914 17.831 11.9672 17.831 11.5599 17.8559L11.54 17.8124C11.6095 17.4645 11.6741 17.1166 11.7387 16.7687C11.9076 15.8307 11.9523 15.4704 11.997 14.992L12.0318 14.9672C12.4291 14.8989 12.5235 14.8802 12.9557 14.7746L12.9904 14.8243L12.9259 15.1225C13.0004 15.0666 13.0699 15.0107 13.1444 14.9672C13.3481 14.8429 13.5716 14.8057 13.6958 14.8057C13.8845 14.8057 14.0932 14.874 14.1776 15.1473C14.2571 15.3896 14.2074 15.6878 14.0981 16.278L14.0435 16.5762C13.9342 17.2347 13.9143 17.3527 13.8547 17.8L13.815 17.8373L13.82 17.8435ZM15.2148 17.8451C15.0062 17.8451 14.8721 17.8389 14.7429 17.8451C14.6138 17.8451 14.4896 17.8575 14.2959 17.8637L14.2859 17.8451L14.276 17.8203C14.3306 17.5718 14.3555 17.4848 14.3853 17.3978C14.4101 17.3109 14.435 17.2239 14.4846 16.9692C14.5442 16.6399 14.584 16.4101 14.6088 16.2051C14.6386 16.0125 14.6535 15.8448 14.6734 15.6522L14.6883 15.6398L14.7032 15.6211C14.9118 15.5838 15.041 15.559 15.1751 15.5341C15.3092 15.5093 15.4483 15.4782 15.6619 15.4285L15.6718 15.4534L15.6768 15.4782C15.637 15.6832 15.5973 15.8882 15.5575 16.0933C15.5178 16.2983 15.4781 16.5033 15.4433 16.7083C15.3688 17.1431 15.334 17.3046 15.3191 17.4227C15.2992 17.5345 15.2943 17.5904 15.2645 17.8141L15.2446 17.8327L15.2247 17.8513L15.2148 17.8451ZM18.319 16.3685C18.4382 15.71 18.3439 15.3994 18.2296 15.213C18.0508 14.9272 17.7329 14.8341 17.4051 14.8341C17.2064 14.8341 16.7395 14.8589 16.3719 15.2813C16.1086 15.5857 15.9844 16.002 15.9149 16.3996C15.8404 16.8033 15.7559 17.5302 16.2924 17.8035C16.4563 17.8905 16.6948 17.9153 16.8487 17.9153C17.2411 17.9153 17.6435 17.7787 17.9465 17.3811C18.18 17.0581 18.2843 16.5735 18.324 16.3685H18.319ZM17.42 16.3188C17.4051 16.4306 17.3256 16.8468 17.2213 17.0208C17.1468 17.1512 17.0623 17.232 16.963 17.232C16.9332 17.232 16.7643 17.232 16.7593 16.9152C16.7593 16.7599 16.7842 16.5983 16.814 16.4244C16.9034 15.9212 17.0127 15.505 17.2859 15.505C17.4994 15.505 17.5143 15.8156 17.42 16.3188ZM25.7811 17.7441C25.7701 17.7962 25.7591 17.8483 25.748 17.9002L25.7728 17.9375C26.1553 17.9127 26.2745 17.9127 26.6918 17.9189V17.9251L26.7315 17.8878C26.7911 17.4405 26.8458 17.0057 27.0047 16.1546C27.0842 15.7508 27.1587 15.347 27.2382 14.937L27.2282 14.8935C26.7961 14.9929 26.6818 15.0115 26.2696 15.0861L26.2398 15.1171C26.2368 15.1449 26.234 15.1721 26.2311 15.1989C26.1679 15.0838 26.0786 14.9865 25.9476 14.9234C25.7638 14.8302 25.3317 14.9483 24.9641 15.3707C24.7058 15.6689 24.5767 16.0851 24.5071 16.4827C24.4326 16.8803 24.3482 17.6133 24.8797 17.868C25.0486 17.9612 25.2025 17.9861 25.3565 17.9736C25.5082 17.9631 25.6496 17.8746 25.7811 17.7441ZM26.0917 16.4019C26.0718 16.5075 25.9923 16.93 25.888 17.1039C25.8185 17.2282 25.6496 17.3089 25.5552 17.3089C25.5254 17.3089 25.3615 17.3089 25.3516 16.9983C25.3516 16.843 25.3764 16.6815 25.4062 16.5075C25.4956 16.0168 25.6049 15.6005 25.8781 15.6005C26.0917 15.6005 26.1861 15.9049 26.0917 16.4081V16.4019ZM20.674 17.8435C20.3313 17.8373 20.2121 17.8373 19.8097 17.8621L19.7948 17.8248C19.8296 17.6323 19.8693 17.4459 19.9041 17.2533L19.9488 16.9924C20.0233 16.5886 20.0978 16.1102 20.1028 15.9674C20.1127 15.8804 20.1326 15.663 19.9389 15.663C19.8544 15.663 19.765 15.7127 19.6806 15.7624C19.6359 15.9798 19.5365 16.5886 19.4869 16.8619C19.3925 17.4459 19.3825 17.5142 19.3378 17.8L19.308 17.8373C18.9554 17.831 18.8312 17.831 18.4239 17.8559L18.404 17.8124C18.4735 17.4645 18.5381 17.1166 18.6027 16.7687C18.7716 15.8307 18.8113 15.4704 18.861 14.992L18.8908 14.9672C19.2882 14.8989 19.3875 14.8802 19.8147 14.7746L19.8495 14.8243L19.7899 15.1225C19.8594 15.0666 19.9339 15.0107 20.0034 14.9672C20.2071 14.8429 20.4306 14.8057 20.5548 14.8057C20.7436 14.8057 20.9472 14.874 21.0366 15.1473C21.1161 15.3896 21.0615 15.6878 20.9522 16.278L20.8975 16.5762C20.7833 17.2347 20.7684 17.3527 20.7088 17.8L20.6691 17.8373L20.674 17.8435ZM23.6501 12.7001L23.362 12.7064C22.6169 12.7188 22.3189 12.7126 22.1996 12.6939C22.1897 12.7623 22.1698 12.8803 22.1698 12.8803C22.1698 12.8803 21.9016 14.4209 21.9016 14.4272C21.9016 14.4272 21.2658 17.7072 21.236 17.8625C21.8867 17.8501 22.15 17.8501 22.2642 17.8688C22.2891 17.7134 22.4381 16.8002 22.443 16.8002C22.443 16.8002 22.5722 16.1293 22.5772 16.1045C22.5772 16.1045 22.6169 16.0361 22.6566 16.0051H22.7162C23.2775 16.0051 23.9084 16.0051 24.4051 15.5516C24.7429 15.241 24.9713 14.775 25.0757 14.2159C25.1005 14.0793 25.1204 13.9177 25.1204 13.75C25.1204 13.5326 25.0856 13.3214 24.9863 13.1536C24.7329 12.7126 24.2312 12.7064 23.6501 12.7001ZM24.0226 14.3091C23.963 14.6508 23.7842 14.9428 23.5557 15.0794C23.3669 15.1975 23.1384 15.2099 22.9 15.2099H22.746L22.756 15.1354C22.756 15.1354 23.0391 13.5947 23.0391 13.6009L23.049 13.5202L23.054 13.458L23.1682 13.4705C23.1682 13.4705 23.7544 13.5326 23.7643 13.5326C23.9928 13.6444 24.0922 13.9302 24.0226 14.3091ZM27.336 19.1738L27.332 19.1605C27.6002 18.6573 27.6648 18.4398 27.943 17.8683C27.8933 17.2285 27.8685 17.0235 27.8287 16.601C27.8039 16.3525 27.7741 16.0978 27.7492 15.8431C27.6996 15.3275 27.7095 15.4021 27.6598 15.0728L27.6549 15.0666C27.6549 15.048 27.6549 15.0293 27.6598 15.0107L27.6896 14.9734C28.097 14.9051 28.1069 14.8864 28.5539 14.7808L28.5887 14.8305L28.6483 16.2593C28.6533 16.2904 28.6533 16.309 28.6533 16.3401C28.8867 15.6816 28.8818 15.8618 29.1699 15.0231V15.0293C29.1699 15.0169 29.1748 15.0107 29.1748 15.0045L29.2046 14.9672C29.5921 14.8989 29.6716 14.8802 30.0938 14.7746L30.1285 14.8243L30.1335 14.8305C30.1335 14.8305 28.4248 18.4958 28.2013 19.0984L28.1367 19.1915C28.1344 19.1915 28.1321 19.1915 28.1299 19.1915L27.8025 19.8944C27.6981 20.1367 27.4995 20.323 27.1915 20.323L26.66 20.3106L26.814 19.6645H26.9183C26.9729 19.6645 27.0127 19.6583 27.0425 19.6397C27.0723 19.6273 27.0872 19.6024 27.112 19.5651L27.3107 19.1738H27.336ZM15.5981 15.2358C15.8266 15.037 15.8564 14.7637 15.6627 14.6208C15.4689 14.4779 15.1262 14.5214 14.8977 14.7202C14.6692 14.9128 14.6444 15.1861 14.8381 15.3352C15.0269 15.4719 15.3696 15.4346 15.5981 15.2358Z" fill="#DCDCDC"/>
</g>
</g>
</svg>
