<svg width="36" height="36" viewBox="0 0 36 36" fill="none" xmlns="http://www.w3.org/2000/svg">
<g id="cc-visa" clip-path="url(#clip0_216_6299)">
<path id="Vector" d="M29.3813 16.4562C29.3813 16.4562 29.8562 18.7812 29.9625 19.2687H27.875C28.0812 18.7125 28.875 16.55 28.875 16.55C28.8625 16.5687 29.0812 15.9812 29.2062 15.6187L29.3813 16.4562ZM36 7V29C36 30.6562 34.6562 32 33 32H3C1.34375 32 0 30.6562 0 29V7C0 5.34375 1.34375 4 3 4H33C34.6562 4 36 5.34375 36 7ZM9.53125 22.7L13.4812 13H10.825L8.36875 19.625L8.1 18.2812L7.225 13.8187C7.08125 13.2 6.6375 13.025 6.0875 13H2.04375L2 13.1937C2.9875 13.4437 3.86875 13.8062 4.6375 14.2625L6.875 22.7H9.53125ZM15.4312 22.7125L17.0063 13H14.4937L12.925 22.7125H15.4312ZM24.175 19.5375C24.1875 18.4312 23.5125 17.5875 22.0688 16.8937C21.1875 16.45 20.65 16.15 20.65 15.6937C20.6625 15.2812 21.1063 14.8562 22.0938 14.8562C22.9125 14.8375 23.5125 15.0312 23.9625 15.225L24.1875 15.3312L24.5312 13.2312C24.0375 13.0375 23.25 12.8187 22.2812 12.8187C19.8 12.8187 18.0563 14.1437 18.0438 16.0312C18.025 17.425 19.2937 18.2 20.2437 18.6687C21.2125 19.1438 21.5438 19.4562 21.5438 19.875C21.5312 20.525 20.7563 20.825 20.0375 20.825C19.0375 20.825 18.5 20.6687 17.6812 20.3062L17.35 20.15L17 22.3312C17.5875 22.6 18.675 22.8375 19.8 22.85C22.4375 22.8562 24.1562 21.55 24.175 19.5375ZM33 22.7125L30.975 13H29.0312C28.4312 13 27.975 13.175 27.7188 13.8062L23.9875 22.7125H26.625C26.625 22.7125 27.0562 21.5125 27.15 21.2562H30.375C30.45 21.6 30.675 22.7125 30.675 22.7125H33Z" fill="#DCDCDC"/>
</g>
<defs>
<clipPath id="clip0_216_6299">
<rect width="36" height="36" fill="white"/>
</clipPath>
</defs>
</svg>
