<svg width="240" height="60" viewBox="0 0 240 60" fill="none" xmlns="http://www.w3.org/2000/svg">
<path d="M65.4151 47.325C63.1351 47.355 61.1551 46.995 59.4751 46.245C57.7951 45.495 56.1901 44.37 54.6601 42.87C54.5101 42.75 54.3751 42.6 54.2551 42.42C54.1651 42.24 54.1201 42.03 54.1201 41.79C54.1201 41.43 54.2551 41.1 54.5251 40.8C54.8251 40.5 55.1551 40.35 55.5151 40.35C55.8751 40.35 56.2051 40.5 56.5051 40.8C57.6751 42.06 58.9951 43.02 60.4651 43.68C61.9651 44.34 63.5701 44.67 65.2801 44.67C66.7201 44.67 67.9951 44.445 69.1051 43.995C70.2451 43.545 71.1451 42.9 71.8051 42.06C72.4651 41.22 72.7951 40.245 72.7951 39.135C72.7951 37.755 72.4201 36.645 71.6701 35.805C70.9201 34.935 69.9301 34.23 68.7001 33.69C67.4701 33.12 66.1051 32.61 64.6051 32.16C63.3751 31.8 62.2051 31.395 61.0951 30.945C59.9851 30.465 58.9951 29.895 58.1251 29.235C57.2551 28.545 56.5801 27.705 56.1001 26.715C55.6201 25.725 55.3801 24.525 55.3801 23.115C55.3801 21.525 55.8001 20.115 56.6401 18.885C57.4801 17.655 58.6651 16.695 60.1951 16.005C61.7551 15.285 63.5551 14.925 65.5951 14.925C67.3651 14.925 69.0601 15.225 70.6801 15.825C72.3301 16.425 73.6351 17.31 74.5951 18.48C75.0451 18.96 75.2701 19.395 75.2701 19.785C75.2701 20.085 75.1201 20.385 74.8201 20.685C74.5201 20.985 74.1901 21.135 73.8301 21.135C73.5301 21.135 73.2751 21.03 73.0651 20.82C72.5551 20.19 71.9101 19.635 71.1301 19.155C70.3501 18.645 69.4801 18.255 68.5201 17.985C67.5901 17.715 66.6151 17.58 65.5951 17.58C64.1851 17.58 62.9101 17.805 61.7701 18.255C60.6601 18.675 59.7751 19.29 59.1151 20.1C58.4851 20.91 58.1701 21.885 58.1701 23.025C58.1701 24.285 58.5301 25.32 59.2501 26.13C59.9701 26.94 60.9151 27.615 62.0851 28.155C63.2551 28.665 64.5001 29.145 65.8201 29.595C67.1101 29.955 68.3401 30.375 69.5101 30.855C70.7101 31.305 71.7601 31.875 72.6601 32.565C73.5901 33.255 74.3101 34.125 74.8201 35.175C75.3601 36.225 75.6301 37.545 75.6301 39.135C75.6301 40.665 75.1951 42.045 74.3251 43.275C73.4551 44.505 72.2551 45.48 70.7251 46.2C69.2251 46.92 67.4551 47.295 65.4151 47.325ZM97.0287 18.84L86.0937 46.02C85.9737 46.32 85.8087 46.545 85.5987 46.695C85.3887 46.845 85.1487 46.92 84.8787 46.92C84.4587 46.92 84.1437 46.815 83.9337 46.605C83.7237 46.365 83.6037 46.08 83.5737 45.75C83.5437 45.6 83.5587 45.42 83.6187 45.21L95.4987 16.14C95.6487 15.81 95.8287 15.585 96.0387 15.465C96.2787 15.315 96.5487 15.24 96.8487 15.24C97.1487 15.24 97.4037 15.33 97.6137 15.51C97.8537 15.66 98.0337 15.87 98.1537 16.14L109.989 45.075C110.049 45.255 110.079 45.435 110.079 45.615C110.079 46.035 109.944 46.365 109.674 46.605C109.404 46.815 109.089 46.92 108.729 46.92C108.429 46.92 108.159 46.845 107.919 46.695C107.709 46.515 107.544 46.29 107.424 46.02L96.2187 18.66L97.0287 18.84ZM88.7037 37.785L89.8287 35.13H103.779L104.319 37.785H88.7037ZM142.634 47.055C142.244 47.055 141.914 46.89 141.644 46.56L128.864 30.495L130.979 28.38L143.849 44.67C144.059 44.97 144.164 45.285 144.164 45.615C144.164 46.095 143.984 46.455 143.624 46.695C143.294 46.935 142.964 47.055 142.634 47.055ZM142.139 15.465C142.499 15.465 142.799 15.6 143.039 15.87C143.309 16.14 143.444 16.44 143.444 16.77C143.444 17.13 143.309 17.445 143.039 17.715L122.609 36.84L122.249 33.78L141.149 15.915C141.449 15.615 141.779 15.465 142.139 15.465ZM121.529 46.875C121.109 46.875 120.764 46.74 120.494 46.47C120.254 46.2 120.134 45.87 120.134 45.48V16.77C120.134 16.38 120.269 16.05 120.539 15.78C120.809 15.51 121.154 15.375 121.574 15.375C121.964 15.375 122.294 15.51 122.564 15.78C122.834 16.05 122.969 16.38 122.969 16.77V45.48C122.939 45.87 122.789 46.2 122.519 46.47C122.249 46.74 121.919 46.875 121.529 46.875ZM165.531 18.84L154.596 46.02C154.476 46.32 154.311 46.545 154.101 46.695C153.891 46.845 153.651 46.92 153.381 46.92C152.961 46.92 152.646 46.815 152.436 46.605C152.226 46.365 152.106 46.08 152.076 45.75C152.046 45.6 152.061 45.42 152.121 45.21L164.001 16.14C164.151 15.81 164.331 15.585 164.541 15.465C164.781 15.315 165.051 15.24 165.351 15.24C165.651 15.24 165.906 15.33 166.116 15.51C166.356 15.66 166.536 15.87 166.656 16.14L178.491 45.075C178.551 45.255 178.581 45.435 178.581 45.615C178.581 46.035 178.446 46.365 178.176 46.605C177.906 46.815 177.591 46.92 177.231 46.92C176.931 46.92 176.661 46.845 176.421 46.695C176.211 46.515 176.046 46.29 175.926 46.02L164.721 18.66L165.531 18.84ZM157.206 37.785L158.331 35.13H172.281L172.821 37.785H157.206ZM205.468 15.195C205.858 15.195 206.173 15.345 206.413 15.645C206.683 15.915 206.818 16.215 206.818 16.545C206.818 16.695 206.788 16.845 206.728 16.995C206.698 17.115 206.638 17.25 206.548 17.4L195.973 31.935L196.513 30.18V45.525C196.513 45.885 196.378 46.2 196.108 46.47C195.838 46.74 195.508 46.875 195.118 46.875C194.728 46.875 194.398 46.74 194.128 46.47C193.888 46.2 193.768 45.885 193.768 45.525V30.495L193.993 31.575L183.688 17.49C183.568 17.34 183.478 17.19 183.418 17.04C183.358 16.86 183.328 16.695 183.328 16.545C183.328 16.155 183.478 15.84 183.778 15.6C184.108 15.33 184.438 15.195 184.768 15.195C185.218 15.195 185.593 15.405 185.893 15.825L195.568 29.01L194.893 28.92L204.298 15.825C204.598 15.405 204.988 15.195 205.468 15.195ZM224.936 18.84L214.001 46.02C213.881 46.32 213.716 46.545 213.506 46.695C213.296 46.845 213.056 46.92 212.786 46.92C212.366 46.92 212.051 46.815 211.841 46.605C211.631 46.365 211.511 46.08 211.481 45.75C211.451 45.6 211.466 45.42 211.526 45.21L223.406 16.14C223.556 15.81 223.736 15.585 223.946 15.465C224.186 15.315 224.456 15.24 224.756 15.24C225.056 15.24 225.311 15.33 225.521 15.51C225.761 15.66 225.941 15.87 226.061 16.14L237.896 45.075C237.956 45.255 237.986 45.435 237.986 45.615C237.986 46.035 237.851 46.365 237.581 46.605C237.311 46.815 236.996 46.92 236.636 46.92C236.336 46.92 236.066 46.845 235.826 46.695C235.616 46.515 235.451 46.29 235.331 46.02L224.126 18.66L224.936 18.84ZM216.611 37.785L217.736 35.13H231.686L232.226 37.785H216.611Z" fill="white"/>
<g clip-path="url(#clip0_171_4837)">
<path d="M34.74 29.1139C35.3911 13.9376 26.8031 6.96162 21.612 5.39256C21.0319 5.19783 20.4919 5.20927 20.1952 5.22804C19.8035 5.25282 19.4083 5.32458 19.0376 5.41479C18.2906 5.59654 17.4371 5.90395 16.5404 6.31559C14.7399 7.14208 12.5794 8.47413 10.5155 10.3651C6.35012 14.1817 2.52289 20.3456 3.00199 29.1438C3.92644 46.1199 14.2747 50.6252 18.6188 50.5022C20.2805 50.4552 24.1786 50.0576 27.7792 46.9945C31.4378 43.8822 34.3414 38.4058 34.74 29.1139Z" stroke="white" stroke-width="5.19975"/>
<path d="M25.0492 28.135C25.2609 23.104 22.42 20.3668 20.151 19.6569C19.6533 19.4944 19.2271 19.5138 19.0613 19.5245C18.8072 19.5409 18.5821 19.5857 18.4092 19.6285C18.0576 19.7158 17.7063 19.8495 17.3786 20.0029C16.7157 20.3132 15.9578 20.7938 15.2416 21.4628C13.771 22.8366 12.4293 25.0673 12.5948 28.1643C12.8922 33.7331 16.4198 35.9646 18.8074 35.8957C19.4773 35.8763 21.0503 35.7134 22.5009 34.4552C24.0008 33.1542 24.9255 31.0752 25.0492 28.135Z" stroke="white" stroke-width="5.19975"/>
</g>
<defs>
<clipPath id="clip0_171_4837">
<rect width="37.5" height="51.0777" fill="white" transform="translate(0 2.5862)"/>
</clipPath>
</defs>
</svg>
