<svg width="234" height="60" viewBox="0 0 234 60" fill="none" xmlns="http://www.w3.org/2000/svg">
<path d="M234 0H0V60H234V0Z" fill="white"/>
<path d="M89.7075 38.6625C88.5675 38.6775 87.5775 38.4975 86.7375 38.1225C85.8975 37.7475 85.095 37.185 84.33 36.435C84.255 36.375 84.1875 36.3 84.1275 36.21C84.0825 36.12 84.06 36.015 84.06 35.895C84.06 35.715 84.1275 35.55 84.2625 35.4C84.4125 35.25 84.5775 35.175 84.7575 35.175C84.9375 35.175 85.1025 35.25 85.2525 35.4C85.8375 36.03 86.4975 36.51 87.2325 36.84C87.9825 37.17 88.785 37.335 89.64 37.335C90.36 37.335 90.9975 37.2225 91.5525 36.9975C92.1225 36.7725 92.5725 36.45 92.9025 36.03C93.2325 35.61 93.3975 35.1225 93.3975 34.5675C93.3975 33.8775 93.21 33.3225 92.835 32.9025C92.46 32.4675 91.965 32.115 91.35 31.845C90.735 31.56 90.0525 31.305 89.3025 31.08C88.6875 30.9 88.1025 30.6975 87.5475 30.4725C86.9925 30.2325 86.4975 29.9475 86.0625 29.6175C85.6275 29.2725 85.29 28.8525 85.05 28.3575C84.81 27.8625 84.69 27.2625 84.69 26.5575C84.69 25.7625 84.9 25.0575 85.32 24.4425C85.74 23.8275 86.3325 23.3475 87.0975 23.0025C87.8775 22.6425 88.7775 22.4625 89.7975 22.4625C90.6825 22.4625 91.53 22.6125 92.34 22.9125C93.165 23.2125 93.8175 23.655 94.2975 24.24C94.5225 24.48 94.635 24.6975 94.635 24.8925C94.635 25.0425 94.56 25.1925 94.41 25.3425C94.26 25.4925 94.095 25.5675 93.915 25.5675C93.765 25.5675 93.6375 25.515 93.5325 25.41C93.2775 25.095 92.955 24.8175 92.565 24.5775C92.175 24.3225 91.74 24.1275 91.26 23.9925C90.795 23.8575 90.3075 23.79 89.7975 23.79C89.0925 23.79 88.455 23.9025 87.885 24.1275C87.33 24.3375 86.8875 24.645 86.5575 25.05C86.2425 25.455 86.085 25.9425 86.085 26.5125C86.085 27.1425 86.265 27.66 86.625 28.065C86.985 28.47 87.4575 28.8075 88.0425 29.0775C88.6275 29.3325 89.25 29.5725 89.91 29.7975C90.555 29.9775 91.17 30.1875 91.755 30.4275C92.355 30.6525 92.88 30.9375 93.33 31.2825C93.795 31.6275 94.155 32.0625 94.41 32.5875C94.68 33.1125 94.815 33.7725 94.815 34.5675C94.815 35.3325 94.5975 36.0225 94.1625 36.6375C93.7275 37.2525 93.1275 37.74 92.3625 38.1C91.6125 38.46 90.7275 38.6475 89.7075 38.6625ZM105.514 24.42L100.047 38.01C99.9868 38.16 99.9043 38.2725 99.7993 38.3475C99.6943 38.4225 99.5743 38.46 99.4393 38.46C99.2293 38.46 99.0718 38.4075 98.9668 38.3025C98.8618 38.1825 98.8018 38.04 98.7868 37.875C98.7718 37.8 98.7793 37.71 98.8093 37.605L104.749 23.07C104.824 22.905 104.914 22.7925 105.019 22.7325C105.139 22.6575 105.274 22.62 105.424 22.62C105.574 22.62 105.702 22.665 105.807 22.755C105.927 22.83 106.017 22.935 106.077 23.07L111.994 37.5375C112.024 37.6275 112.039 37.7175 112.039 37.8075C112.039 38.0175 111.972 38.1825 111.837 38.3025C111.702 38.4075 111.544 38.46 111.364 38.46C111.214 38.46 111.079 38.4225 110.959 38.3475C110.854 38.2575 110.772 38.145 110.712 38.01L105.109 24.33L105.514 24.42ZM101.352 33.8925L101.914 32.565H108.889L109.159 33.8925H101.352ZM128.317 38.5275C128.122 38.5275 127.957 38.445 127.822 38.28L121.432 30.2475L122.49 29.19L128.925 37.335C129.03 37.485 129.082 37.6425 129.082 37.8075C129.082 38.0475 128.992 38.2275 128.812 38.3475C128.647 38.4675 128.482 38.5275 128.317 38.5275ZM128.07 22.7325C128.25 22.7325 128.4 22.8 128.52 22.935C128.655 23.07 128.722 23.22 128.722 23.385C128.722 23.565 128.655 23.7225 128.52 23.8575L118.305 33.42L118.125 31.89L127.575 22.9575C127.725 22.8075 127.89 22.7325 128.07 22.7325ZM117.765 38.4375C117.555 38.4375 117.382 38.37 117.247 38.235C117.127 38.1 117.067 37.935 117.067 37.74V23.385C117.067 23.19 117.135 23.025 117.27 22.89C117.405 22.755 117.577 22.6875 117.787 22.6875C117.982 22.6875 118.147 22.755 118.282 22.89C118.417 23.025 118.485 23.19 118.485 23.385V37.74C118.47 37.935 118.395 38.1 118.26 38.235C118.125 38.37 117.96 38.4375 117.765 38.4375ZM139.765 24.42L134.298 38.01C134.238 38.16 134.155 38.2725 134.05 38.3475C133.945 38.4225 133.825 38.46 133.69 38.46C133.48 38.46 133.323 38.4075 133.218 38.3025C133.113 38.1825 133.053 38.04 133.038 37.875C133.023 37.8 133.03 37.71 133.06 37.605L139 23.07C139.075 22.905 139.165 22.7925 139.27 22.7325C139.39 22.6575 139.525 22.62 139.675 22.62C139.825 22.62 139.953 22.665 140.058 22.755C140.178 22.83 140.268 22.935 140.328 23.07L146.245 37.5375C146.275 37.6275 146.29 37.7175 146.29 37.8075C146.29 38.0175 146.223 38.1825 146.088 38.3025C145.953 38.4075 145.795 38.46 145.615 38.46C145.465 38.46 145.33 38.4225 145.21 38.3475C145.105 38.2575 145.023 38.145 144.963 38.01L139.36 24.33L139.765 24.42ZM135.603 33.8925L136.165 32.565H143.14L143.41 33.8925H135.603ZM159.734 22.5975C159.929 22.5975 160.086 22.6725 160.206 22.8225C160.341 22.9575 160.409 23.1075 160.409 23.2725C160.409 23.3475 160.394 23.4225 160.364 23.4975C160.349 23.5575 160.319 23.625 160.274 23.7L154.986 30.9675L155.256 30.09V37.7625C155.256 37.9425 155.189 38.1 155.054 38.235C154.919 38.37 154.754 38.4375 154.559 38.4375C154.364 38.4375 154.199 38.37 154.064 38.235C153.944 38.1 153.884 37.9425 153.884 37.7625V30.2475L153.996 30.7875L148.844 23.745C148.784 23.67 148.739 23.595 148.709 23.52C148.679 23.43 148.664 23.3475 148.664 23.2725C148.664 23.0775 148.739 22.92 148.889 22.8C149.054 22.665 149.219 22.5975 149.384 22.5975C149.609 22.5975 149.796 22.7025 149.946 22.9125L154.784 29.505L154.446 29.46L159.149 22.9125C159.299 22.7025 159.494 22.5975 159.734 22.5975ZM169.468 24.42L164 38.01C163.94 38.16 163.858 38.2725 163.753 38.3475C163.648 38.4225 163.528 38.46 163.393 38.46C163.183 38.46 163.025 38.4075 162.92 38.3025C162.815 38.1825 162.755 38.04 162.74 37.875C162.725 37.8 162.733 37.71 162.763 37.605L168.703 23.07C168.778 22.905 168.868 22.7925 168.973 22.7325C169.093 22.6575 169.228 22.62 169.378 22.62C169.528 22.62 169.655 22.665 169.76 22.755C169.88 22.83 169.97 22.935 170.03 23.07L175.948 37.5375C175.978 37.6275 175.993 37.7175 175.993 37.8075C175.993 38.0175 175.925 38.1825 175.79 38.3025C175.655 38.4075 175.498 38.46 175.318 38.46C175.168 38.46 175.033 38.4225 174.913 38.3475C174.808 38.2575 174.725 38.145 174.665 38.01L169.063 24.33L169.468 24.42ZM165.305 33.8925L165.868 32.565H172.843L173.113 33.8925H165.305Z" fill="#002366"/>
<path d="M74.37 29.5569C74.6956 21.9688 70.4016 18.4808 67.806 17.6963C67.516 17.5989 67.246 17.6046 67.0976 17.614C66.9018 17.6264 66.7042 17.6623 66.5188 17.7074C66.1453 17.7983 65.7186 17.952 65.2702 18.1578C64.37 18.571 63.2897 19.2371 62.2578 20.1826C60.1751 22.0908 58.2615 25.1728 58.501 29.5719C58.9632 38.06 64.1374 40.3126 66.3094 40.2511C67.1403 40.2276 69.0894 40.0288 70.8896 38.4973C72.7189 36.9411 74.1707 34.2029 74.37 29.5569Z" stroke="#002366" stroke-width="2.59988"/>
<path d="M69.5246 29.0675C69.6304 26.552 68.21 25.1834 67.0755 24.8285C66.8266 24.7472 66.6135 24.7569 66.5306 24.7623C66.4036 24.7704 66.291 24.7928 66.2046 24.8143C66.0288 24.8579 65.8531 24.9248 65.6893 25.0014C65.3578 25.1566 64.9789 25.3969 64.6208 25.7314C63.8855 26.4183 63.2147 27.5336 63.2974 29.0822C63.4461 31.8665 65.2099 32.9823 66.4037 32.9478C66.7387 32.9382 67.5251 32.8567 68.2504 32.2276C69.0004 31.5771 69.4627 30.5376 69.5246 29.0675Z" stroke="#002366" stroke-width="2.59988"/>
</svg>
