<svg width="176" height="176" viewBox="0 0 176 176" fill="none" xmlns="http://www.w3.org/2000/svg">
<g filter="url(#filter0_f_1205_534)">
<circle cx="88" cy="88" r="58" fill="#BBE1FA"/>
</g>
<path d="M88 75.4637C92.5725 82.26 95.5 86.9925 95.5 91.0925C95.5 95.1775 92.1363 98.5 88 98.5C83.8638 98.5 80.5 95.1775 80.5 91.0938C80.5 86.9925 83.4263 82.26 88 75.4637ZM88 71C81.9125 79.9963 78 85.6238 78 91.0938C78 96.5662 82.4738 101 88 101C93.5263 101 98 96.5662 98 91.0938C98 85.6238 94.0875 79.9963 88 71Z" fill="black"/>
<path d="M122.57 114.998L117.442 109.429L118.051 108.378L123.117 109.489C123.243 109.512 123.39 109.551 123.558 109.606C123.496 109.547 123.438 109.49 123.385 109.436C123.331 109.382 123.283 109.329 123.24 109.277L119.767 105.419L120.379 104.364L127.757 106.053L127.193 107.026C127.134 107.127 127.061 107.196 126.974 107.234C126.887 107.277 126.797 107.286 126.703 107.262L122.345 106.157C122.239 106.126 122.125 106.089 122.004 106.046C121.884 106.007 121.758 105.965 121.627 105.92C121.734 106.013 121.834 106.103 121.926 106.191C122.016 106.282 122.098 106.37 122.172 106.455L125.201 109.853C125.254 109.915 125.288 109.994 125.305 110.093C125.319 110.194 125.298 110.293 125.241 110.391L125.043 110.733C124.985 110.834 124.912 110.902 124.827 110.937C124.741 110.972 124.65 110.983 124.554 110.969L120.102 110.024C119.888 109.98 119.65 109.916 119.388 109.829C119.594 109.999 119.776 110.16 119.934 110.313L123.059 113.547C123.121 113.606 123.158 113.685 123.169 113.785C123.179 113.887 123.156 113.987 123.099 114.085L122.57 114.998Z" fill="black"/>
<path d="M113.853 117.215L116.155 118.337C116.261 118.384 116.381 118.444 116.516 118.517C116.651 118.591 116.795 118.672 116.946 118.762C116.86 118.61 116.781 118.463 116.711 118.323C116.643 118.185 116.586 118.061 116.541 117.952L115.51 115.62L113.853 117.215ZM110.249 116.896L110.998 116.175C111.082 116.094 111.17 116.048 111.262 116.038C111.357 116.031 111.447 116.045 111.534 116.082L112.946 116.77L115.103 114.693L114.469 113.256C114.435 113.182 114.424 113.096 114.435 112.997C114.446 112.898 114.493 112.809 114.574 112.731L115.331 112.003L118.296 119.184L117.31 120.134L110.249 116.896Z" fill="black"/>
<path d="M106.684 126.207L108.563 125.102L105.459 119.822L106.619 119.14L109.722 124.421L111.602 123.316L112.162 124.269L107.243 127.159L106.684 126.207Z" fill="black"/>
<path d="M101.179 128.383L100.56 126.475L98.1535 127.256L97.8342 126.271L100.241 125.491L99.61 123.545L96.5565 124.536L96.2249 123.513L100.563 122.106L102.793 128.984L98.4552 130.391L98.1251 129.373L101.179 128.383Z" fill="black"/>
<path d="M91.4176 128.007C91.1654 128.031 90.9494 128.083 90.7697 128.164C90.5866 128.245 90.4406 128.347 90.3317 128.468C90.2198 128.592 90.1413 128.734 90.0962 128.892C90.0512 129.05 90.0374 129.221 90.0549 129.403C90.09 129.768 90.2381 130.037 90.4991 130.209C90.7568 130.382 91.1329 130.445 91.6273 130.397L92.4833 130.315L92.2537 127.926L91.4176 128.007ZM87.6108 124.565L88.8203 124.449C89.0492 124.427 89.2237 124.5 89.3438 124.67L91.0783 126.829C91.143 126.909 91.212 126.965 91.2851 126.995C91.355 127.025 91.4563 127.033 91.589 127.021L92.1614 126.966L91.8911 124.154L93.2299 124.025L93.9217 131.222L91.7268 131.433C91.239 131.48 90.816 131.468 90.4577 131.399C90.0964 131.333 89.7959 131.22 89.556 131.059C89.3129 130.898 89.1259 130.695 88.9952 130.449C88.8648 130.208 88.7849 129.934 88.7555 129.629C88.7323 129.386 88.7468 129.154 88.799 128.931C88.848 128.709 88.932 128.503 89.0512 128.314C89.167 128.126 89.3181 127.955 89.5044 127.804C89.6874 127.652 89.9013 127.526 90.1461 127.425C90.0551 127.384 89.9697 127.332 89.89 127.269C89.8107 127.21 89.7366 127.137 89.668 127.05L87.6108 124.565Z" fill="black"/>
<path d="M82.1972 127.582C81.9526 127.55 81.7355 127.552 81.546 127.587C81.3559 127.626 81.1941 127.694 81.0603 127.791C80.9228 127.89 80.8137 128.017 80.7329 128.171C80.6517 128.329 80.5979 128.508 80.5714 128.71C80.5462 128.902 80.5531 129.079 80.5922 129.242C80.6313 129.405 80.7032 129.549 80.8078 129.674C80.9124 129.799 81.052 129.901 81.2264 129.981C81.4003 130.064 81.6112 130.122 81.8591 130.155L82.8555 130.286L83.1936 127.713L82.1972 127.582ZM81.7236 131.186C81.2444 131.123 80.837 131.012 80.5014 130.854C80.1659 130.696 79.8973 130.501 79.6958 130.269C79.4942 130.037 79.3574 129.774 79.2852 129.479C79.2098 129.183 79.194 128.868 79.2379 128.535C79.2835 128.188 79.3832 127.876 79.5371 127.601C79.6905 127.328 79.8966 127.103 80.1553 126.925C80.414 126.748 80.7262 126.624 81.0917 126.554C81.4539 126.484 81.868 126.48 82.334 126.541L83.3304 126.672L83.662 124.149L84.9956 124.324L84.0536 131.492L81.7236 131.186Z" fill="black"/>
<path d="M73.5322 125.553C73.2949 125.464 73.0777 125.417 72.8807 125.411C72.6805 125.404 72.505 125.431 72.3541 125.492C72.1989 125.555 72.0664 125.648 71.9566 125.771C71.8468 125.894 71.7598 126.041 71.6958 126.213C71.5676 126.556 71.5831 126.863 71.7423 127.132C71.8984 127.4 72.2091 127.621 72.6745 127.795L73.4802 128.095L74.3192 125.847L73.5322 125.553ZM71.6155 120.793L72.7539 121.217C72.9694 121.298 73.094 121.44 73.1279 121.645L73.7427 124.345C73.7655 124.446 73.8033 124.526 73.856 124.585C73.9057 124.643 73.993 124.695 74.1179 124.742L74.6566 124.943L75.6442 122.296L76.9043 122.766L74.3767 129.54L72.3109 128.769C71.8518 128.598 71.4764 128.402 71.1846 128.183C70.8885 127.966 70.6679 127.733 70.5227 127.483C70.3745 127.232 70.2952 126.967 70.285 126.69C70.2736 126.415 70.3216 126.134 70.4288 125.847C70.5138 125.619 70.6286 125.416 70.7731 125.239C70.9144 125.06 71.08 124.912 71.2698 124.794C71.4564 124.675 71.6668 124.588 71.9008 124.533C72.1316 124.477 72.3792 124.457 72.6433 124.474C72.5796 124.397 72.5256 124.313 72.4814 124.222C72.436 124.134 72.4015 124.035 72.3779 123.927L71.6155 120.793Z" fill="black"/>
<path d="M61.6629 118.578C61.9626 118.141 62.3135 117.786 62.7155 117.512C63.113 117.239 63.537 117.056 63.9875 116.965C64.438 116.874 64.9016 116.879 65.3783 116.979C65.8531 117.082 66.3174 117.29 66.771 117.601C67.2218 117.91 67.581 118.267 67.8484 118.673C68.114 119.081 68.2868 119.513 68.3669 119.968C68.4442 120.421 68.4285 120.883 68.3197 121.354C68.209 121.828 68.0038 122.284 67.7041 122.721C67.4044 123.158 67.0545 123.512 66.6543 123.783C66.2522 124.057 65.8259 124.24 65.3754 124.331C64.9221 124.42 64.458 124.413 63.9832 124.31C63.5065 124.21 63.0427 124.005 62.5919 123.696C62.2895 123.488 62.0294 123.257 61.8118 123.003C61.5923 122.751 61.4154 122.485 61.2814 122.203C61.1454 121.924 61.0526 121.632 61.0029 121.327C60.9486 121.023 60.9369 120.716 60.9678 120.405C60.9986 120.095 61.0729 119.786 61.1907 119.479C61.3057 119.17 61.4631 118.87 61.6629 118.578ZM62.7969 119.356C62.5726 119.683 62.4158 120.006 62.3266 120.325C62.2355 120.646 62.2088 120.953 62.2466 121.246C62.2844 121.539 62.3871 121.813 62.5548 122.07C62.7198 122.324 62.948 122.551 63.2394 122.751C63.5308 122.951 63.8263 123.083 64.126 123.147C64.4229 123.209 64.716 123.206 65.0054 123.138C65.292 123.067 65.5688 122.932 65.8359 122.731C66.101 122.533 66.3458 122.27 66.5701 121.943C66.7944 121.616 66.9521 121.292 67.0432 120.97C67.1324 120.651 67.1582 120.346 67.1204 120.053C67.0779 119.761 66.9743 119.488 66.8093 119.234C66.6416 118.977 66.412 118.749 66.1206 118.549C65.8292 118.349 65.5351 118.218 65.2382 118.156C64.9385 118.092 64.6463 118.094 64.3616 118.161C64.075 118.232 63.7991 118.366 63.5339 118.564C63.2669 118.765 63.0212 119.029 62.7969 119.356Z" fill="black"/>
<path d="M54.6427 110.787C55.0452 110.442 55.476 110.189 55.9352 110.028C56.3897 109.867 56.8464 109.801 57.3052 109.829C57.764 109.857 58.2107 109.982 58.6452 110.202C59.0772 110.424 59.4721 110.744 59.83 111.162C60.1857 111.577 60.4403 112.015 60.5939 112.476C60.7449 112.939 60.8003 113.401 60.7601 113.861C60.7177 114.319 60.5831 114.761 60.3563 115.188C60.127 115.618 59.8111 116.005 59.4087 116.349C59.0062 116.694 58.5766 116.946 58.1199 117.105C57.6607 117.265 57.2017 117.332 56.7429 117.303C56.282 117.272 55.8355 117.146 55.4035 116.923C54.9689 116.703 54.5738 116.385 54.2181 115.97C53.9796 115.692 53.788 115.402 53.6434 115.1C53.4963 114.8 53.3945 114.497 53.3378 114.19C53.2785 113.885 53.2643 113.579 53.2951 113.272C53.3212 112.964 53.3892 112.664 53.4992 112.372C53.6092 112.081 53.7607 111.802 53.9538 111.535C54.1448 111.266 54.3744 111.017 54.6427 110.787ZM55.5374 111.831C55.2361 112.089 55.0012 112.361 54.8327 112.645C54.6616 112.932 54.5566 113.222 54.5174 113.515C54.4783 113.807 54.5067 114.099 54.6024 114.39C54.696 114.679 54.8577 114.957 55.0876 115.225C55.3175 115.494 55.5689 115.697 55.8419 115.837C56.1127 115.973 56.3966 116.046 56.6938 116.055C56.9889 116.061 57.2913 116.002 57.6012 115.877C57.9085 115.754 58.2128 115.563 58.514 115.305C58.8153 115.047 59.0514 114.775 59.2225 114.488C59.391 114.203 59.4948 113.914 59.5339 113.621C59.5683 113.329 59.5388 113.038 59.4452 112.749C59.3494 112.458 59.1866 112.179 58.9567 111.91C58.7268 111.642 58.4765 111.439 58.2057 111.303C57.9328 111.164 57.65 111.09 57.3575 111.081C57.0625 111.075 56.7613 111.133 56.454 111.256C56.1441 111.381 55.8386 111.573 55.5374 111.831Z" fill="black"/>
<path d="M50.0288 107.606L51.9336 106.631L50.6985 104.218L51.6553 103.729L52.8905 106.141L55.5118 104.798L56.1271 106L49.6917 109.295L47.6134 105.236L48.5658 104.749L50.0288 107.606Z" fill="black"/>
<path d="M53.8198 61.8624L58.9481 67.4314L58.3386 68.4824L53.2725 67.3711C53.147 67.3484 53 67.3094 52.8317 67.2542C52.8937 67.3133 52.9515 67.3699 53.0049 67.424C53.0583 67.4781 53.1065 67.5311 53.1496 67.5831L56.6229 71.441L56.0109 72.4964L48.6328 70.8072L49.1971 69.834C49.2556 69.7331 49.3287 69.6637 49.4161 69.6258C49.5024 69.5833 49.5926 69.574 49.6867 69.5977L54.0452 70.7033C54.1508 70.7338 54.2643 70.7707 54.3856 70.814C54.5056 70.8528 54.6315 70.895 54.7631 70.9405C54.6554 70.8472 54.5557 70.7566 54.464 70.6688C54.374 70.5781 54.2921 70.4901 54.2182 70.4049L51.1891 67.0069C51.1362 66.9453 51.1016 66.8655 51.0852 66.7674C51.0706 66.6664 51.0917 66.5669 51.1485 66.4689L51.3467 66.1272C51.4052 66.0263 51.4774 65.9583 51.5632 65.9233C51.649 65.8883 51.74 65.8775 51.8363 65.8909L56.2875 66.8365C56.5014 66.8796 56.7394 66.9443 57.0014 67.0308C56.7953 66.8612 56.6134 66.6998 56.4556 66.5467L53.3312 63.313C53.2691 63.2539 53.2322 63.1747 53.2204 63.0754C53.2103 62.9732 53.2337 62.8731 53.2906 62.775L53.8198 61.8624Z" fill="black"/>
<path d="M62.5366 59.6447L60.2345 58.5228C60.1293 58.476 60.009 58.416 59.8736 58.3427C59.7383 58.2694 59.5949 58.1877 59.4433 58.0977C59.53 58.2502 59.6086 58.3966 59.679 58.5371C59.7471 58.6751 59.8038 58.7987 59.8488 58.908L60.8799 61.2401L62.5366 59.6447ZM66.141 59.9637L65.3919 60.6851C65.3078 60.766 65.2198 60.8115 65.1276 60.8216C65.0332 60.8292 64.9427 60.8145 64.8562 60.7776L63.4441 60.0897L61.2867 62.1672L61.9209 63.6042C61.9549 63.6779 61.9662 63.7642 61.9549 63.863C61.9436 63.9618 61.8972 64.0505 61.8155 64.1291L61.0592 64.8574L58.0934 57.6762L59.0802 56.7259L66.141 59.9637Z" fill="black"/>
<path d="M69.7063 50.6531L67.8269 51.7577L70.9304 57.0382L69.7709 57.7197L66.6673 52.4393L64.7879 53.5439L64.228 52.5912L69.1464 49.7005L69.7063 50.6531Z" fill="black"/>
<path d="M75.2112 48.4775L75.8297 50.3847L78.2363 49.6043L78.5556 50.5888L76.149 51.3692L76.7798 53.3145L79.8332 52.3243L80.1649 53.3469L75.8272 54.7535L73.597 47.8761L77.9346 46.4695L78.2647 47.4873L75.2112 48.4775Z" fill="black"/>
<path d="M84.9722 48.8535C85.2244 48.8292 85.4403 48.7767 85.6201 48.6958C85.8032 48.6145 85.9492 48.5134 86.0581 48.3925C86.17 48.2678 86.2485 48.1264 86.2935 47.968C86.3386 47.8096 86.3524 47.6392 86.3348 47.4567C86.2997 47.0917 86.1517 46.823 85.8907 46.6505C85.6329 46.4777 85.2569 46.415 84.7625 46.4626L83.9064 46.5448L84.1361 48.9338L84.9722 48.8535ZM88.7789 52.2951L87.5695 52.4113C87.3406 52.4333 87.166 52.3597 87.046 52.1904L85.3115 50.0314C85.2468 49.9506 85.1778 49.8952 85.1046 49.8654C85.0348 49.8353 84.9335 49.8266 84.8007 49.8394L84.2284 49.8944L84.4987 52.7064L83.1598 52.8351L82.4681 45.6383L84.663 45.4273C85.1508 45.3804 85.5738 45.3917 85.932 45.4611C86.2933 45.5268 86.5939 45.6402 86.8337 45.8014C87.0769 45.9622 87.2639 46.1652 87.3946 46.4105C87.525 46.6525 87.6049 46.9261 87.6342 47.2313C87.6575 47.4736 87.643 47.706 87.5907 47.9287C87.5418 48.1511 87.4577 48.3567 87.3386 48.5457C87.2228 48.7343 87.0717 48.9045 86.8854 49.0564C86.7024 49.2079 86.4885 49.3339 86.2436 49.4345C86.3347 49.476 86.4201 49.528 86.4997 49.5907C86.5791 49.65 86.6531 49.7233 86.7218 49.8105L88.7789 52.2951Z" fill="black"/>
<path d="M94.1926 49.2779C94.4371 49.3101 94.6542 49.3084 94.8438 49.2728C95.0338 49.2338 95.1957 49.166 95.3295 49.0693C95.4669 48.9697 95.5761 48.8428 95.6568 48.6887C95.738 48.5313 95.7919 48.3518 95.8184 48.1502C95.8436 47.9585 95.8366 47.7811 95.7976 47.6179C95.7585 47.4548 95.6866 47.3108 95.582 47.1861C95.4773 47.0614 95.3378 46.9591 95.1634 46.879C94.9895 46.7956 94.7786 46.7376 94.5307 46.7051L93.5343 46.5741L93.1961 49.147L94.1926 49.2779ZM94.6662 45.6739C95.1454 45.7369 95.5528 45.8476 95.8883 46.006C96.2239 46.1644 96.4924 46.3594 96.694 46.591C96.8955 46.8225 97.0324 47.0859 97.1045 47.3812C97.18 47.6769 97.1958 47.9916 97.1519 48.3254C97.1063 48.6724 97.0066 48.9837 96.8527 49.2594C96.6992 49.5317 96.4931 49.7568 96.2344 49.9346C95.9757 50.1124 95.6636 50.2361 95.2981 50.3057C94.9359 50.3758 94.5218 50.3802 94.0558 50.319L93.0593 50.1881L92.7278 52.7114L91.3942 52.5361L92.3362 45.3678L94.6662 45.6739Z" fill="black"/>
<path d="M102.858 51.3069C103.095 51.3955 103.312 51.4427 103.509 51.4487C103.709 51.4557 103.885 51.4287 104.036 51.3676C104.191 51.3046 104.323 51.2117 104.433 51.089C104.543 50.9663 104.63 50.8191 104.694 50.6473C104.822 50.3038 104.807 49.9974 104.647 49.7281C104.491 49.4599 104.181 49.239 103.715 49.0654L102.91 48.7647L102.071 51.0133L102.858 51.3069ZM104.774 56.0674L103.636 55.6426C103.42 55.5622 103.296 55.4196 103.262 55.2149L102.647 52.5146C102.624 52.4135 102.587 52.3336 102.534 52.2748C102.484 52.2171 102.397 52.165 102.272 52.1184L101.733 51.9174L100.746 54.5641L99.4854 54.0939L102.013 47.3201L104.079 48.091C104.538 48.2623 104.913 48.4575 105.205 48.6767C105.501 48.8939 105.722 49.1274 105.867 49.3773C106.015 49.6283 106.095 49.8927 106.105 50.1704C106.116 50.4451 106.068 50.7261 105.961 51.0134C105.876 51.2413 105.761 51.444 105.617 51.6214C105.475 51.7999 105.31 51.948 105.12 52.0658C104.933 52.1847 104.723 52.2716 104.489 52.3266C104.258 52.3828 104.011 52.4025 103.746 52.3858C103.81 52.4629 103.864 52.5471 103.908 52.6383C103.954 52.7264 103.988 52.8247 104.012 52.9331L104.774 56.0674Z" fill="black"/>
<path d="M114.727 58.2816C114.427 58.7188 114.076 59.0743 113.674 59.3483C113.277 59.6214 112.853 59.8036 112.402 59.8948C111.952 59.986 111.488 59.9813 111.011 59.8808C110.537 59.7775 110.072 59.5704 109.619 59.2593C109.168 58.9502 108.809 58.5928 108.541 58.1871C108.276 57.7787 108.103 57.3469 108.023 56.8919C107.946 56.4388 107.961 55.9767 108.07 55.5057C108.181 55.0319 108.386 54.5764 108.686 54.1393C108.985 53.7022 109.335 53.348 109.736 53.0768C110.138 52.8028 110.564 52.6202 111.014 52.529C111.468 52.4397 111.932 52.4467 112.407 52.55C112.883 52.6505 113.347 52.8553 113.798 53.1645C114.1 53.3718 114.36 53.6026 114.578 53.857C114.798 54.1085 114.974 54.3753 115.108 54.6572C115.244 54.9363 115.337 55.2283 115.387 55.5332C115.441 55.8371 115.453 56.1442 115.422 56.4545C115.391 56.7647 115.317 57.0735 115.199 57.3808C115.084 57.6899 114.927 57.9902 114.727 58.2816ZM113.593 57.5041C113.817 57.1769 113.974 56.854 114.063 56.5352C114.154 56.2137 114.181 55.9067 114.143 55.614C114.105 55.3214 114.003 55.0468 113.835 54.7904C113.67 54.5358 113.442 54.3086 113.15 54.1088C112.859 53.909 112.563 53.7771 112.264 53.7131C111.967 53.6509 111.674 53.6541 111.384 53.7224C111.098 53.7926 110.821 53.9282 110.554 54.129C110.289 54.3271 110.044 54.5897 109.82 54.9169C109.595 55.244 109.438 55.5684 109.347 55.8898C109.257 56.2086 109.232 56.5143 109.269 56.8069C109.312 57.0987 109.416 57.3719 109.58 57.6265C109.748 57.8829 109.978 58.1111 110.269 58.3109C110.561 58.5107 110.855 58.6416 111.152 58.7038C111.451 58.7678 111.743 58.766 112.028 58.6986C112.315 58.6283 112.591 58.4942 112.856 58.2961C113.123 58.0952 113.369 57.8312 113.593 57.5041Z" fill="black"/>
<path d="M121.747 66.0731C121.345 66.418 120.914 66.6708 120.455 66.8316C120 66.9928 119.543 67.0592 119.085 67.0309C118.626 67.0026 118.179 66.8783 117.745 66.6581C117.313 66.4356 116.918 66.1156 116.56 65.6979C116.204 65.2828 115.949 64.8447 115.796 64.3837C115.645 63.9205 115.589 63.4588 115.63 62.9986C115.672 62.5408 115.807 62.0985 116.033 61.6716C116.263 61.2425 116.579 60.8555 116.981 60.5106C117.384 60.1658 117.813 59.9141 118.27 59.7554C118.729 59.5946 119.188 59.5284 119.647 59.5567C120.108 59.5875 120.554 59.7141 120.986 59.9366C121.421 60.1568 121.816 60.4745 122.172 60.8897C122.41 61.1681 122.602 61.4583 122.746 61.7602C122.893 62.06 122.995 62.3633 123.052 62.6703C123.111 62.9751 123.125 63.2812 123.095 63.5885C123.069 63.8961 123.001 64.1959 122.891 64.4876C122.781 64.7794 122.629 65.0584 122.436 65.3249C122.245 65.5938 122.015 65.8433 121.747 66.0731ZM120.852 65.029C121.154 64.7709 121.389 64.4994 121.557 64.2146C121.728 63.9275 121.833 63.6378 121.872 63.3453C121.911 63.0528 121.883 62.761 121.787 62.4699C121.694 62.1814 121.532 61.903 121.302 61.6347C121.072 61.3663 120.821 61.1626 120.548 61.0233C120.277 60.8866 119.993 60.8139 119.696 60.8051C119.401 60.7989 119.098 60.8583 118.789 60.9834C118.481 61.1062 118.177 61.2967 117.876 61.5548C117.575 61.8129 117.338 62.0854 117.167 62.3725C116.999 62.6574 116.895 62.946 116.856 63.2385C116.821 63.5314 116.851 63.8221 116.945 64.1106C117.04 64.4017 117.203 64.6814 117.433 64.9497C117.663 65.218 117.913 65.4205 118.184 65.5572C118.457 65.6965 118.74 65.7703 119.032 65.7787C119.327 65.7849 119.628 65.7265 119.936 65.6037C120.246 65.4786 120.551 65.2871 120.852 65.029Z" fill="black"/>
<path d="M126.361 69.254L124.456 70.2294L125.691 72.6415L124.734 73.1315L123.499 70.7193L120.878 72.0615L120.263 70.8599L126.698 67.5647L128.776 71.6235L127.824 72.1112L126.361 69.254Z" fill="black"/>
<defs>
<filter id="filter0_f_1205_534" x="0" y="0" width="176" height="176" filterUnits="userSpaceOnUse" color-interpolation-filters="sRGB">
<feFlood flood-opacity="0" result="BackgroundImageFix"/>
<feBlend mode="normal" in="SourceGraphic" in2="BackgroundImageFix" result="shape"/>
<feGaussianBlur stdDeviation="15" result="effect1_foregroundBlur_1205_534"/>
</filter>
</defs>
</svg>
