<svg width="36" height="36" viewBox="0 0 36 36" fill="none" xmlns="http://www.w3.org/2000/svg">
<mask id="mask0_168_6168" style="mask-type:alpha" maskUnits="userSpaceOnUse" x="0" y="0" width="36" height="36">
<rect width="36" height="36" fill="#D9D9D9"/>
</mask>
<g mask="url(#mask0_168_6168)">
<path d="M4.5 33V30H7.5V25.2C6.625 24.9 5.90625 24.3687 5.34375 23.6063C4.78125 22.8438 4.5 21.975 4.5 21V9H13.5V21C13.5 21.975 13.2188 22.8438 12.6562 23.6063C12.0938 24.3687 11.375 24.9 10.5 25.2V30H13.5V33H4.5ZM7.5 16.5H10.5V12H7.5V16.5ZM9 22.5C9.425 22.5 9.78125 22.3563 10.0688 22.0688C10.3563 21.7812 10.5 21.425 10.5 21V19.5H7.5V21C7.5 21.425 7.64375 21.7812 7.93125 22.0688C8.21875 22.3563 8.575 22.5 9 22.5ZM19.5 33C18.675 33 17.9688 32.7063 17.3813 32.1188C16.7938 31.5312 16.5 30.825 16.5 30V15.675C16.5 15.025 16.6875 14.4437 17.0625 13.9312C17.4375 13.4187 17.925 13.05 18.525 12.825L19.95 12.3C20.3 12.175 20.5625 11.9938 20.7375 11.7563C20.9125 11.5188 21 11.225 21 10.875V4.5C21 4.075 21.1438 3.71875 21.4313 3.43125C21.7188 3.14375 22.075 3 22.5 3H27C27.425 3 27.7812 3.14375 28.0688 3.43125C28.3563 3.71875 28.5 4.075 28.5 4.5V10.875C28.5 11.225 28.5875 11.5188 28.7625 11.7563C28.9375 11.9938 29.2 12.175 29.55 12.3L30.975 12.825C31.575 13.05 32.0625 13.4187 32.4375 13.9312C32.8125 14.4437 33 15.025 33 15.675V30C33 30.825 32.7063 31.5312 32.1188 32.1188C31.5312 32.7063 30.825 33 30 33H19.5ZM24 7.5H25.5V6H24V7.5ZM19.5 18H30V15.675L28.575 15.15C27.625 14.8 26.875 14.25 26.325 13.5C25.775 12.75 25.5 11.9 25.5 10.95V10.5H24V10.95C24 11.9 23.725 12.75 23.175 13.5C22.625 14.25 21.875 14.8 20.925 15.15L19.5 15.675V18ZM19.5 30H30V27H19.5V30ZM19.5 24H30V21H19.5V24Z" fill="#3D4287"/>
</g>
</svg>
