<svg width="1516" height="351" viewBox="0 0 1516 351" fill="none" xmlns="http://www.w3.org/2000/svg">
<path fill-rule="evenodd" clip-rule="evenodd" d="M1516 0H0V165.394C0.155995 165.372 0.335946 165.362 0.543004 165.362C2.74247 165.362 2.86996 166.212 0.849582 167.399L0 167.898V207.406C0.00713677 207.402 0.0143097 207.399 0.0215186 207.397C4.97836 205.505 6.92953 209.673 2.8821 213.508C1.16466 215.135 0.930327 215.653 1.46456 216.646C1.97026 217.586 1.88102 217.965 1.03839 218.453C-0.730052 219.477 4.11508 219.261 6.79051 218.196C8.0496 217.695 10.036 217.398 11.204 217.536C12.3721 217.675 14.7166 217.513 16.414 217.176C19.5405 216.557 20.4869 216.828 25.1657 219.674C25.6666 219.979 26.4861 220.382 26.987 220.57C27.4878 220.758 28.3602 221.242 28.9254 221.646C29.6994 222.198 30.7254 222.222 33.0767 221.743C36.9334 220.957 38.9258 221.292 39.3205 222.791C39.5105 223.515 40.1577 223.939 41.0749 223.939C41.8745 223.939 42.8343 224.243 43.2089 224.616C46.0658 227.458 53.8523 228.82 57.9385 227.194C59.5273 226.561 61.1251 226.36 62.5044 226.617C64.8259 227.05 64.9698 227.358 63.9207 229.65C62.9791 231.705 63.4174 231.977 65.9654 230.918C68.7349 229.767 70.5253 232.243 68.3688 234.241C66.8724 235.628 67.284 238.193 69.0786 238.66C70.3601 238.992 70.3613 239.007 69.1781 239.868C68.038 240.696 68.0313 240.793 69.0367 241.898C69.6177 242.537 69.9467 243.203 69.7688 243.381C69.5909 243.558 70.1221 244.145 70.9495 244.684C73.1109 246.092 77.9638 245.438 77.5322 243.795C77.3579 243.133 77.548 242.659 77.9869 242.659C78.4847 242.659 78.6286 243.223 78.4101 244.319C77.5297 248.739 86.7872 249.969 90.6033 245.939C91.3682 245.131 92.3596 244.471 92.8064 244.471C93.2533 244.471 93.9478 243.587 94.3496 242.508C94.7515 241.428 95.3277 240.137 95.6299 239.639C97.8805 235.929 98.2264 234.83 98.235 231.383L98.2434 227.656L100.545 226.757C102.639 225.939 102.97 225.951 104.225 226.898C104.984 227.47 106.902 228.68 108.488 229.587C110.074 230.494 111.372 231.541 111.372 231.915C111.372 232.288 111.767 233.024 112.249 233.55C112.731 234.075 114.269 235.797 115.665 237.375C117.062 238.952 118.535 240.243 118.94 240.243C119.345 240.243 119.983 240.915 120.36 241.736C120.736 242.557 121.987 243.621 123.14 244.101C124.294 244.579 125.536 245.529 125.903 246.21C127.671 249.496 135.579 249.394 139.315 246.037C141.65 243.938 141.918 243.85 144.816 244.233C148.556 244.726 151.438 242.615 151.441 239.376C151.442 238.358 151.942 236.711 152.55 235.714C153.383 234.353 153.53 233.452 153.146 232.091C151.453 226.093 153.615 220.897 158.47 219.295C159.605 218.922 160.314 218.226 160.441 217.363C160.55 216.621 161.004 215.876 161.448 215.705C162.371 215.354 166.197 217.149 165.877 217.785C165.761 218.014 165.29 218.948 164.831 219.861C163.734 222.035 164.682 225.334 167.21 228.152C168.219 229.276 169.045 230.407 169.045 230.666C169.045 234 177.494 235.187 181.313 232.39C182.218 231.727 183.159 231.185 183.405 231.185C183.65 231.185 184.557 230.513 185.418 229.692C186.8 228.376 187.164 228.287 188.487 228.941C192.917 231.131 200.917 231.639 210.63 230.346C212.612 230.083 214.584 230.862 215.393 232.229C215.742 232.818 216.715 233.034 218.429 232.904C219.816 232.798 222.286 233.094 223.92 233.561C226.294 234.24 227.421 234.268 229.544 233.703C231.004 233.314 233.357 233.028 234.77 233.067C236.185 233.106 236.864 233.262 236.279 233.413C235.695 233.565 235.217 233.975 235.217 234.324C235.217 234.704 234.506 234.818 233.45 234.608C232.216 234.362 231.582 234.521 231.345 235.136C231.157 235.62 230.479 236.016 229.837 236.016C228.775 236.016 227.931 237.097 227.931 238.458C227.931 238.749 228.501 239.517 229.198 240.163C230.225 241.114 230.341 241.568 229.805 242.562C229.443 243.235 229.146 244.316 229.146 244.962C229.146 245.697 228.466 246.416 227.325 246.886C226.323 247.299 225.503 247.853 225.503 248.118C225.503 249.621 226.518 250.57 228.754 251.159C230.973 251.745 232.409 252.9 235.231 256.372C236.356 257.756 235.817 259.029 233.74 259.891C231.175 260.957 230.94 261.32 229.626 266.21C228.776 269.372 228.452 270.504 228.81 270.794C229.023 270.966 229.478 270.84 230.208 270.665C234.203 269.709 239.466 265.925 239.466 264.008C239.466 263.35 239.791 263.188 240.529 263.48C241.113 263.71 242.498 264.049 243.607 264.233C244.794 264.431 246.007 265.156 246.561 265.994C247.076 266.777 247.759 267.418 248.079 267.418C248.93 267.418 250.393 269.017 250.393 269.947C250.393 273.083 257.258 272.666 260.183 269.353C261.9 267.408 262.16 267.296 262.833 268.213C263.244 268.772 263.809 269.229 264.09 269.229C264.37 269.229 264.272 268.903 263.871 268.504C262.262 266.905 262.905 266.317 267.393 265.283C269.366 264.828 272.577 263.461 273.013 262.888C274.008 261.585 274.225 259.431 273.411 258.932C272.958 258.653 272.761 258.253 272.972 258.043C273.859 257.161 276.493 259.658 275.879 260.797C274.683 263.023 275.648 263.177 279.42 261.365C281.39 260.418 281.963 259.807 281.963 258.647C281.963 256.809 281.181 256.762 278.784 258.461C277.767 259.181 277.052 259.52 277.193 259.215C277.333 258.911 277.825 257.914 278.286 256.999C279.273 255.039 278.775 254.214 277.325 255.405C276.442 256.131 276.342 256.122 276.6 255.34C276.763 254.842 277.506 254.345 278.251 254.237C280.329 253.933 279.844 250.744 277.755 250.975C276.945 251.064 276.126 250.923 275.935 250.66C275.744 250.398 274.768 249.79 273.767 249.308L271.946 248.436L273.89 248.229C274.96 248.115 276.352 248.297 276.985 248.634C278.403 249.388 279.534 248.445 279.534 246.504C279.534 245.687 280.012 245.005 280.749 244.773C283.388 243.939 283.462 242.129 280.947 239.919C278.918 238.136 278.788 237.875 279.924 237.853C280.64 237.84 281.394 238.264 281.599 238.797C281.814 239.352 282.36 239.617 282.883 239.417C283.384 239.226 284.474 239.327 285.306 239.642C286.523 240.102 286.819 240.026 286.819 239.258C286.819 238.632 286.485 238.43 285.851 238.672C284.402 239.226 280.379 235.073 281.298 233.971C282.251 232.828 281.481 231.203 279.656 230.513C277.968 229.874 278.622 228.488 280.619 228.475C281.446 228.469 281.659 227.91 281.659 225.75C281.659 222.843 283.324 222.18 287.229 223.533C288.298 223.904 288.586 223.74 288.747 222.668C288.855 221.94 289.354 221.145 289.855 220.9C293.068 219.331 294.077 219.004 294.802 219.292C295.26 219.473 295.01 219.637 294.237 219.664C292.644 219.719 291.795 221.28 292.809 222.288C293.322 222.798 293.496 222.788 293.496 222.248C293.496 221.849 293.898 221.523 294.389 221.523C294.931 221.523 295.143 221.877 294.931 222.429C294.517 223.503 292.487 223.643 292.145 222.622C291.595 220.981 289.776 222.709 289.967 224.689L290.158 226.656L293.801 226.683C295.803 226.698 298.342 226.322 299.442 225.848C301.206 225.085 301.525 225.094 302.173 225.927C303.17 227.207 308.65 227.647 310.549 226.6C313.463 224.994 318.387 226.492 318.387 228.984C318.387 230.384 320.261 231.894 321.119 231.185C322.414 230.117 323.991 232.259 324.211 235.385C324.487 239.286 326.079 244.761 327.211 245.696C327.693 246.094 328.654 247.332 329.348 248.449L330.611 250.481L328.205 252.759C323.893 256.843 323.808 266.742 328.053 270.263C332.971 274.342 338.184 275.456 341.587 273.154C342.815 272.324 344.022 271.645 344.268 271.645C344.516 271.645 345.317 271.085 346.051 270.4C347.314 269.218 347.501 269.203 349.655 270.097C350.904 270.617 352.506 271.053 353.217 271.068C353.928 271.082 355.601 271.518 356.937 272.036C361.836 273.938 369.908 274.534 373.328 273.247C374.998 272.62 378.18 271.628 380.398 271.043C382.618 270.46 384.722 269.805 385.075 269.587C386.377 268.788 388.698 269.916 389.107 271.547C389.713 273.963 394.309 279.571 396.228 280.237C397.156 280.558 397.915 281.237 397.915 281.745C397.915 282.981 401.5 290.169 402.547 291.034C403.005 291.412 403.379 292.177 403.379 292.734C403.379 294.292 404.638 295.196 406.811 295.196C409.994 295.196 411.649 296.28 412.431 298.876C413.684 303.036 417.788 302.548 418.876 298.109C419.213 296.739 418.997 296.35 417.472 295.565C415.174 294.383 414.524 291.732 416.16 290.211C416.787 289.626 417.168 288.805 417.006 288.385C416.843 287.964 417.605 287.103 418.696 286.472C421.199 285.024 421.626 284.373 421.196 282.668C420.912 281.544 421.217 281.148 422.914 280.444C424.049 279.972 425.718 278.849 426.624 277.948C427.882 276.697 428.27 276.544 428.27 277.3C428.27 277.843 428.68 278.288 429.18 278.288C430.252 278.288 430.301 277.995 429.482 276.473C429.075 275.717 429.075 275.218 429.482 274.968C429.818 274.762 430.091 273.81 430.091 272.853C430.091 271.896 430.375 270.938 430.723 270.724C431.07 270.511 431.189 269.815 430.986 269.179C430.721 268.353 430.908 268.022 431.632 268.022C432.35 268.022 432.53 268.333 432.245 269.079C431.977 269.779 432.043 269.932 432.442 269.532C432.775 269.199 433.131 267.841 433.237 266.512C433.386 264.647 433.671 264.116 434.492 264.18C435.158 264.233 435.555 263.84 435.555 263.124C435.555 262.49 435.977 261.983 436.506 261.983C437.603 261.983 437.198 259.916 435.786 258.312C434.268 256.588 434.835 255.601 437.179 255.888C437.571 255.937 438.064 255.697 438.277 255.357C438.489 255.016 438.357 254.737 437.983 254.737C436.49 254.737 438.108 253.639 440.167 253.256C441.375 253.03 443.006 252.158 443.79 251.316L445.214 249.786L446.759 251.444C447.793 252.554 448.262 253.043 448.168 253.374C448.091 253.648 447.629 253.814 446.786 254.133C445.777 254.514 445.271 255.167 445.276 256.081C445.291 258.508 445.997 260.254 446.835 259.935C447.948 259.51 448.513 261.674 447.688 263.206C447.206 264.105 447.193 264.701 447.649 265.247C448.002 265.672 448.132 266.18 447.936 266.376C447.118 267.188 449.87 270.459 451.922 271.112C453.103 271.489 454.48 272.126 454.981 272.527C455.482 272.93 456.776 273.606 457.856 274.032C459.595 274.715 462.149 277.836 466.224 284.257C469.306 289.111 470.352 290.475 471.247 290.797C471.817 291.004 473.181 291.942 474.277 292.883C475.374 293.823 476.74 294.597 477.312 294.602C478.609 294.613 481.983 295.817 484.548 297.182C491.813 301.051 506.287 296.38 510.873 288.684C511.523 287.594 512.531 286.52 513.113 286.297C513.695 286.075 515.811 284.329 517.815 282.414C523.987 276.519 525.417 275.269 525.986 275.269C526.288 275.269 526.702 274.747 526.904 274.112C527.649 271.782 535.116 270.573 535.116 272.782C535.116 273.412 535.659 274.06 536.331 274.236C537.058 274.425 537.544 275.06 537.544 275.816C537.544 276.548 537.936 277.08 538.475 277.08C538.986 277.08 539.561 277.488 539.754 277.986C540.713 280.474 542.529 278.612 542.993 274.664L543.312 271.947L546.877 271.415C549.893 270.965 550.594 270.617 551.43 269.153C551.973 268.201 553.238 267.029 554.239 266.55C555.241 266.07 557.002 264.982 558.152 264.131C561.383 261.744 563.937 262.012 565.414 264.892C567.405 268.775 568.059 269.062 575.488 269.333C580.161 269.502 585.485 268.567 588.026 267.13L590.561 265.699L592.658 267.116C593.812 267.895 595.136 268.388 595.602 268.21C596.066 268.032 596.794 268.173 597.219 268.523C597.654 268.883 598.343 268.944 598.802 268.662C599.453 268.261 599.415 268.053 598.604 267.602C597.978 267.253 597.745 266.656 597.99 266.022C598.525 264.635 599.467 264.733 599.467 266.174C599.467 267.901 600.474 268.22 601.467 266.807C602.376 265.517 604.873 265.86 605.833 267.405C606.061 267.771 606.77 267.906 607.41 267.704C608.05 267.502 608.574 267.604 608.574 267.931C608.574 268.258 608.285 268.621 607.931 268.738C606.719 269.14 608.045 270.906 609.826 271.26C610.807 271.456 611.606 271.826 611.604 272.083C611.6 272.516 608.468 274.226 608.269 273.904C608.22 273.824 607.618 272.943 606.93 271.947C606.242 270.951 605.543 269.592 605.375 268.928C605.143 268.001 605.055 268.108 605.001 269.38C604.955 270.452 604.595 271.041 603.984 271.041C603.464 271.041 603.207 271.314 603.413 271.645C603.62 271.977 604.306 272.248 604.94 272.248C605.769 272.248 606.199 272.827 606.481 274.321C606.713 275.556 607.161 276.283 607.588 276.119C607.983 275.969 608.843 276.275 609.502 276.8C610.646 277.712 610.613 277.743 608.725 277.521C606.411 277.249 606.222 277.943 608.118 279.761C608.869 280.48 609.573 281.463 609.682 281.943C609.791 282.423 610.116 282.902 610.406 283.007C610.696 283.112 610.8 283.543 610.636 283.966C610.473 284.391 610.786 285.106 611.332 285.556C612.184 286.26 612.295 286.236 612.119 285.39C612.005 284.849 612.185 284.456 612.52 284.518C612.853 284.579 613.049 284.861 612.953 285.145C612.859 285.429 613.087 286.028 613.461 286.476C613.836 286.926 613.985 287.546 613.792 287.855C612.88 289.323 615.361 290.01 616.439 288.589C617.62 287.032 618.894 287.346 618.894 289.193C618.894 290 619.319 290.372 620.26 290.385C621.592 290.404 621.596 290.426 620.448 291.291C618.899 292.456 618.297 292.409 618.238 291.12C618.211 290.49 618.067 290.367 617.885 290.819C617.527 291.7 615.484 291.831 614.97 291.005C614.381 290.057 610.87 291.569 611.269 292.601C611.455 293.086 611.615 294.208 611.622 295.095L611.635 296.706L612.759 295.253C613.596 294.171 614.173 293.926 615.022 294.291C615.649 294.561 616.483 294.734 616.875 294.672C617.267 294.61 617.764 295.112 617.978 295.784C618.193 296.457 618.605 297.008 618.894 297.008C619.183 297.008 619.508 297.755 619.613 298.669C619.751 299.863 620.145 300.33 621.019 300.33C621.792 300.33 622.151 300.001 622.009 299.424C621.503 297.382 621.663 296.713 622.619 296.868C623.759 297.054 624.619 294.552 624.039 292.735C623.35 290.573 625.062 289.068 627.046 290.092C628.611 290.9 628.727 290.885 628.471 289.91C628.282 289.192 628.944 288.317 630.525 287.198C632.253 285.973 632.857 285.779 632.857 286.446C632.857 286.941 633.114 287.346 633.43 287.346C634.274 287.346 633.682 289.631 632.543 290.764C631.927 291.377 631.686 292.269 631.905 293.132C632.097 293.896 631.981 294.687 631.645 294.893C631.31 295.1 631.036 294.844 631.036 294.326C631.036 293.123 630.17 293.124 628.959 294.329C628.437 294.848 627.732 295.103 627.392 294.894C626.315 294.232 624.358 295.233 624.358 296.445C624.358 297.767 625.564 297.983 626.69 296.862C627.742 295.815 628.712 297.405 628.278 299.466C628.018 300.707 628.261 301.16 629.488 301.716C630.68 302.255 630.993 302.246 630.879 301.673C630.798 301.266 631.141 300.933 631.643 300.933C632.144 300.933 632.903 300.469 633.328 299.902C633.755 299.334 634.479 299.014 634.936 299.188C635.395 299.363 635.95 299.216 636.17 298.86C636.807 297.836 637.597 298.108 638.042 299.503C638.353 300.474 638.576 300.594 638.952 299.989C639.226 299.547 639.196 298.715 638.885 298.138C638.097 296.671 638.181 296.023 639.049 296.887C640.345 298.175 643.068 297.784 643.287 296.278C643.407 295.459 644.067 294.783 644.999 294.527C645.834 294.297 646.278 294.082 645.987 294.049C645.696 294.016 645.761 293.624 646.134 293.179C646.505 292.733 646.629 292.189 646.41 291.97C646.19 291.752 646.466 291.573 647.022 291.573C647.578 291.573 648.038 292.049 648.043 292.629C648.051 293.531 648.137 293.553 648.628 292.781C649.249 291.805 655.926 291.343 655.926 292.277C655.926 292.555 656.267 292.713 656.685 292.629C657.103 292.546 657.366 292.844 657.273 293.291C657.179 293.737 657.43 293.993 657.829 293.861C658.939 293.493 658.831 290.435 657.672 289.391C656.743 288.555 656.581 288.572 656 289.567C655.751 289.992 655.599 290.295 655.49 290.28C655.295 290.253 655.239 289.2 655.012 285.987C654.938 284.956 655.196 284.327 655.694 284.327C656.157 284.327 656.347 284.709 656.146 285.233C655.686 286.423 656.467 286.384 657.839 285.15C658.854 284.235 658.964 284.235 659.318 285.15C659.527 285.694 660.216 286.139 660.848 286.139C661.479 286.139 661.997 286.41 661.997 286.742C661.997 287.075 662.302 287.346 662.675 287.346C663.097 287.346 663.195 286.833 662.934 285.987C662.704 285.239 662.492 284.221 662.462 283.723C662.431 283.225 661.974 282.496 661.443 282.102C660.671 281.531 660.63 281.236 661.238 280.622C661.787 280.069 661.997 280.053 661.997 280.567C661.997 281.045 662.638 281.149 663.956 280.887L665.914 280.497L664.853 282.11C663.67 283.906 664.001 284.081 666.244 282.846C667.739 282.023 669.281 282.506 669.281 283.796C669.281 285.11 671.854 286.837 673.281 286.481C674.111 286.273 674.746 286.382 674.746 286.731C674.746 287.069 674.336 287.346 673.836 287.346C673.334 287.346 672.924 287.647 672.924 288.015C672.924 288.382 673.334 288.526 673.836 288.335C674.336 288.144 674.746 288.234 674.746 288.535C674.746 288.837 675.299 289.041 675.975 288.99C676.765 288.931 677.087 288.594 676.875 288.046C676.146 286.156 680.073 284.454 681.153 286.191C681.443 286.658 681.76 286.645 682.251 286.147C682.768 285.624 682.622 285.189 681.664 284.41C679.956 283.02 678.7 280.704 679.652 280.704C680.052 280.704 680.215 280.187 680.033 279.495C679.838 278.748 680.015 278.288 680.499 278.288C681.632 278.288 682.128 275.871 681.077 275.47C680.603 275.29 680.37 274.894 680.559 274.592C680.747 274.289 681.114 274.173 681.377 274.334C681.639 274.495 683.136 273.405 684.703 271.911C686.271 270.416 687.83 269.365 688.169 269.573C688.508 269.782 689.294 269.493 689.918 268.932C690.712 268.217 691.47 268.054 692.459 268.385C693.235 268.644 694.415 268.793 695.083 268.715C696.088 268.597 696.14 268.679 695.386 269.194C694.661 269.689 694.814 269.816 696.145 269.824C698.151 269.835 698.3 268.767 696.55 266.899C695.063 265.312 695.942 263.505 697.9 264.123C698.648 264.359 699.029 264.183 699.029 263.601C699.029 263.074 699.88 262.563 701.154 262.325C702.323 262.107 703.279 261.663 703.279 261.341C703.279 261.016 703.932 260.915 704.73 261.114C705.529 261.314 706.347 261.211 706.548 260.886C706.75 260.562 708.424 261.727 710.268 263.474C716.208 269.107 722.968 269.409 727.088 264.227C728.183 262.849 729.808 260.98 730.698 260.071C731.588 259.164 732.485 257.894 732.692 257.248C732.898 256.602 733.603 255.935 734.26 255.764C735.158 255.53 735.455 254.935 735.455 253.357C735.455 249.595 736.846 249.38 740.24 252.613C746.704 258.776 750.743 260.168 753.821 257.291C754.756 256.419 756.023 255.944 757.425 255.944C760.54 255.944 761.182 254.777 762.066 247.496C762.575 243.308 769.401 244.623 769.461 248.922C769.474 249.917 773.871 254.741 774.763 254.739C775.709 254.736 775.708 254.726 774.644 252.189C774.16 251.039 772.862 249.411 771.76 248.57C769.5 246.849 767.911 243.533 769.021 242.852C769.648 242.466 772.767 241.826 781.851 240.216C783.831 239.865 785.715 239.416 786.04 239.216C786.365 239.017 787.614 238.752 788.816 238.629C790.019 238.507 791.548 238.343 792.216 238.268C793.154 238.161 793.477 238.542 793.637 239.939C793.751 240.934 794.026 241.886 794.25 242.053C794.473 242.221 795.2 243.391 795.865 244.655C799.133 250.868 808.85 251.733 818.723 246.688C822.462 244.778 824.17 244.189 824.632 244.65C825.529 245.541 826.24 244.688 825.42 243.706C824.765 242.921 828.161 238.402 829.369 238.452C830.122 238.483 832.588 240.67 832.588 241.307C832.588 241.619 834.021 243.245 835.775 244.921C837.527 246.596 840.464 249.64 842.301 251.683C844.137 253.726 846.236 255.962 846.965 256.651C847.694 257.34 848.887 259.366 849.617 261.152C850.345 262.937 851.16 264.399 851.428 264.399C851.925 264.399 856.51 268.28 857.72 269.726C858.088 270.165 858.935 271.112 859.603 271.832C860.271 272.551 861.135 273.74 861.525 274.476C861.914 275.212 862.526 276.167 862.885 276.598C865.127 279.287 868.906 284.173 870.035 285.838C870.764 286.916 872.644 288.85 874.212 290.138C875.778 291.426 877.778 293.269 878.652 294.235C882.629 298.622 886.887 302.432 888.849 303.358C890.027 303.915 891.441 305.157 891.991 306.119C892.542 307.083 893.47 307.872 894.054 307.875C894.639 307.876 895.117 308.185 895.117 308.562C895.117 309.015 895.97 309.131 897.658 308.906C899.323 308.684 900.803 308.877 901.952 309.469C905.327 311.205 907.15 310.143 906.542 306.795C904.745 296.904 904.776 294.666 906.769 290.74C907.798 288.711 908.889 285.418 909.192 283.424C909.496 281.43 909.902 278.715 910.097 277.392C910.359 275.602 911.284 274.069 913.711 271.401C915.504 269.429 916.972 267.58 916.972 267.29C916.972 267.001 917.537 266.007 918.226 265.079C919.448 263.434 919.453 263.34 918.394 261.132C917.311 258.874 917.312 258.868 918.78 257.766C919.883 256.939 920.09 256.459 919.612 255.85C918.809 254.833 918.983 247.061 919.826 246.221C920.445 245.606 922.534 247.867 925.089 251.913C926.139 253.576 926.135 253.627 924.908 253.946C923.425 254.332 923.196 256.63 924.532 257.731C925.22 258.301 925.884 258.289 927.57 257.682C929.803 256.88 935.185 260.673 935.185 263.051C935.185 263.499 935.448 263.704 935.769 263.506C936.091 263.309 936.945 263.733 937.666 264.451C938.388 265.168 939.831 265.804 940.875 265.863C942.295 265.943 942.728 266.229 942.595 266.997C942.389 268.175 944.048 268.415 944.461 267.267C944.618 266.828 944.957 266.736 945.27 267.048C945.583 267.359 945.491 267.696 945.05 267.853C943.675 268.341 945.211 271.645 946.813 271.645C947.751 271.645 947.343 269.903 946.264 269.3C945.252 268.735 945.252 268.688 946.264 268.3C947.565 267.801 947.657 266.299 946.415 265.825C945.915 265.633 945.505 265.008 945.505 264.435C945.505 263.861 945.325 263.213 945.104 262.993C944.3 262.192 944.541 258.609 945.537 256.549C946.1 255.386 946.744 253.175 946.97 251.635C947.203 250.041 947.892 248.376 948.571 247.763C950.195 246.303 951.588 243.392 951.176 242.324C950.991 241.843 951.009 240.77 951.218 239.941C951.712 237.984 954.307 237.811 954.803 239.7C954.988 240.399 955.428 240.79 955.785 240.571C956.183 240.325 956.446 240.827 956.466 241.868C956.536 245.365 963.63 247.652 964.785 244.551C964.986 244.008 965.665 243.111 966.293 242.556C967.174 241.777 967.344 241.077 967.042 239.47C966.567 236.954 968.057 235.968 969.87 237.601C970.96 238.581 970.96 238.661 969.859 240.483C969.235 241.514 968.853 242.702 969.009 243.124C969.318 243.965 967.296 249.295 966.666 249.3C966.452 249.301 966.126 248.915 965.945 248.442C965.736 247.901 965.129 247.71 964.3 247.926C963.513 248.13 962.771 247.929 962.451 247.425C961.993 246.707 961.913 246.707 961.905 247.428C961.898 248.108 961.015 248.197 957.325 247.887C954.165 247.621 952.337 247.733 951.406 248.251C950.665 248.663 949.955 249.057 949.827 249.128C948.655 249.785 951.881 253.599 953.303 253.238C954.19 253.012 956.008 252.686 957.344 252.512C958.678 252.339 960.031 251.953 960.349 251.655C961.123 250.927 963.278 250.96 962.821 251.694C962.623 252.013 961.447 252.447 960.205 252.657C955.012 253.537 953.398 254.164 953.398 255.299C953.398 256.921 954.666 257.171 958.456 256.294L961.809 255.519L963.22 257.695C964.313 259.377 965.252 260.017 967.362 260.521C970.418 261.25 972.366 263.483 973.456 267.509C973.802 268.788 974.347 269.834 974.669 269.834C974.99 269.834 975.252 270.513 975.252 271.344C975.252 272.868 973.749 273.502 973.303 272.167C973.139 271.679 972.679 271.723 971.716 272.317C970.546 273.04 970.279 273.03 969.779 272.248C969.394 271.647 969.197 271.596 969.191 272.098C969.185 272.529 968.464 272.832 967.512 272.805C966.594 272.779 966.168 272.625 966.567 272.464C966.965 272.303 967.138 271.772 966.95 271.282C966.649 270.507 966.426 270.512 965.179 271.325C963.816 272.213 963.709 272.173 962.808 270.441C961.739 268.383 961.014 268.019 961.591 269.828C962.087 271.38 961.504 272.293 960.31 271.837C959.752 271.624 959.49 271.022 959.666 270.354C959.987 269.129 958.046 268.703 957.337 269.843C956.779 270.742 955.82 269.947 956.218 268.915C956.498 268.191 955.818 268.052 952.397 268.133C950.109 268.188 948.715 268.34 949.299 268.473C949.933 268.617 950.343 269.245 950.314 270.029C950.288 270.751 950.128 271.003 949.96 270.589C949.529 269.527 947.933 269.645 947.933 270.739C947.933 271.249 948.476 271.645 949.174 271.645C949.855 271.645 950.999 272.188 951.715 272.853C953.352 274.369 953.824 274.369 954.308 272.853C954.52 272.188 955.062 271.645 955.513 271.645C955.965 271.645 956.766 271.48 957.294 271.279C957.924 271.038 958.254 271.246 958.254 271.883C958.254 272.463 957.746 272.853 956.989 272.853C954.54 272.853 956.241 274.367 959.82 275.371C961.797 275.926 963.415 276.436 963.415 276.506C963.415 276.575 964.234 276.734 965.235 276.857C965.621 276.905 966.061 276.96 966.495 277.014C967.186 277.101 967.86 277.186 968.271 277.238C968.939 277.321 969.827 277.608 970.243 277.875C970.661 278.141 971.246 278.209 971.544 278.027C973.876 276.593 979.314 281.37 981.014 286.345C981.649 288.203 982.593 289.897 983.112 290.11C984.662 290.746 993.427 290.915 993.799 290.316C993.989 290.01 994.788 289.761 995.575 289.761C996.362 289.761 997.144 289.422 997.313 289.007C997.51 288.522 997.635 288.6 997.666 289.224C997.701 289.928 998.132 290.118 999.222 289.911C1001.55 289.469 1003.23 290.248 1001.74 291.081C1000.91 291.543 1000.48 291.511 1000.14 290.962C999.56 290.032 998.322 290.713 998.322 291.962C998.322 292.649 997.742 292.85 996.045 292.748C990.583 292.422 989.464 294.331 993.872 296.455C1000.84 299.811 1011.19 295.93 1011.78 289.735C1011.94 288.103 1012.22 287.689 1013.09 287.836C1013.7 287.939 1014.6 287.688 1015.1 287.279C1015.69 286.791 1018.4 286.518 1022.94 286.488C1029.31 286.444 1031.26 286.02 1029.03 285.167C1027.92 284.743 1029.98 282.515 1031.48 282.515C1032.23 282.515 1032.3 282.32 1031.81 281.724C1031.13 280.915 1028.6 280.863 1026.7 281.619C1026.04 281.881 1025.64 281.764 1025.64 281.306C1025.64 280.806 1025.11 280.707 1023.97 280.997C1020.29 281.933 1017.98 282.019 1019.04 281.181C1019.58 280.753 1020.19 279.529 1020.39 278.46L1020.75 276.519L1017.73 276.733C1014.75 276.945 1014.73 276.933 1015.12 275.353C1015.59 273.428 1016.33 272.874 1018.44 272.862C1019.98 272.853 1024.14 271.111 1022.91 270.989C1019.85 270.685 1016.5 270.403 1014.87 270.311C1013.65 270.241 1013.19 270.017 1013.66 269.723C1014.17 269.399 1014.02 269.238 1013.2 269.218C1012.1 269.19 1012.13 269.108 1013.45 268.377C1016.56 266.664 1015.61 265.479 1011.48 265.924C1009.42 266.148 1006.09 266.291 1004.09 266.243C1001.03 266.171 1000.32 266.354 999.689 267.381C998.783 268.843 1000.75 269.641 1003.63 268.975C1004.7 268.728 1005.01 268.783 1004.49 269.128C1004.05 269.424 1003.71 269.893 1003.74 270.171C1003.76 270.449 1001.9 270.703 999.589 270.739L995.389 270.804L995.36 268.96C995.312 265.832 994.575 261.11 994.032 260.442C992.372 258.4 994.082 257.271 998.47 257.512C1000.97 257.65 1003.08 257.481 1003.54 257.107C1004.08 256.656 1004.67 256.654 1005.5 257.098C1007.05 257.92 1008.85 256.217 1007.39 255.311C1006.13 254.528 1007.43 252.673 1009.42 252.437C1010.28 252.333 1011.3 251.872 1011.68 251.412C1012.21 250.775 1012.77 250.722 1014 251.19C1016.04 251.963 1021.4 250.294 1023.7 248.17C1024.96 247.007 1025.47 246.864 1026.35 247.415C1027.96 248.415 1032.63 248.267 1033.53 247.189C1033.95 246.689 1034.65 246.283 1035.09 246.283C1035.54 246.283 1036.15 245.838 1036.46 245.295C1038.34 241.952 1045.01 243.979 1045.05 247.908C1045.06 248.967 1045.34 250 1045.67 250.203C1046.89 250.957 1053.08 252.318 1053.66 251.961C1053.99 251.757 1054.91 252.197 1055.7 252.937C1059.44 256.424 1066.88 253.507 1066.91 248.547C1066.92 246.018 1067.47 245.682 1068.61 247.499C1069.03 248.169 1070.44 249.143 1071.75 249.664C1073.06 250.186 1074.57 251.268 1075.1 252.071C1075.62 252.872 1076.43 253.528 1076.89 253.528C1077.35 253.528 1077.88 253.941 1078.07 254.443C1078.54 255.659 1080.79 256.456 1085 256.903C1086.9 257.104 1089.19 257.646 1090.08 258.106C1090.98 258.565 1093.2 259.115 1095.02 259.329C1097.94 259.67 1098.3 259.859 1098.02 260.911C1097.58 262.584 1098.84 263.141 1101.44 262.43C1102.65 262.098 1104.74 261.867 1106.08 261.917C1110.77 262.091 1112.71 260.483 1111.19 257.658C1110.72 256.784 1110.81 256.549 1111.62 256.549C1112.17 256.549 1113.69 255.461 1114.95 254.133C1116.22 252.805 1117.54 251.717 1117.9 251.717C1118.24 251.717 1118.5 251.514 1118.45 251.264C1118.1 249.022 1119.75 246.698 1121.29 247.284C1123.3 248.052 1127.02 244.519 1127.04 241.821C1127.05 239.77 1127.18 239.53 1127.71 240.444C1128.07 241.052 1128.22 242.036 1128.07 242.632C1127.85 243.45 1128.07 243.641 1128.92 243.418C1129.54 243.255 1130.05 242.858 1130.05 242.534C1130.05 242.211 1130.64 241.471 1131.37 240.891C1132.92 239.637 1132.41 238.432 1130.32 238.432C1128.45 238.432 1128.45 238.002 1130.37 236.512C1131.2 235.86 1131.88 234.966 1131.88 234.527C1131.88 234.089 1132.29 233.572 1132.8 233.381C1133.3 233.188 1134.03 232.34 1134.41 231.496C1135.02 230.177 1135.39 230.012 1137.07 230.325C1138.66 230.622 1139.21 230.429 1140.03 229.276C1140.98 227.955 1141.1 227.932 1141.85 228.921C1142.28 229.502 1142.95 229.978 1143.33 229.978C1144.61 229.978 1144.03 231.092 1142.29 231.956C1140.78 232.705 1140.49 232.7 1139.99 231.915C1139.56 231.224 1139.14 231.165 1138.23 231.66C1137.58 232.015 1136.52 232.466 1135.9 232.663C1134.82 232.998 1134.82 233.095 1135.76 234.126C1136.97 235.452 1141.61 234.976 1144.6 233.221C1146.15 232.313 1146.61 232.275 1147.89 232.956C1150.62 234.409 1150.25 238.432 1147.38 238.432C1146.53 238.432 1145.85 238.688 1145.85 239C1145.85 240.019 1146.85 240.22 1148.95 239.618C1150.08 239.292 1152.5 238.866 1154.35 238.67C1157.99 238.279 1159.8 237.558 1159.8 236.494C1159.8 236.115 1160.47 236.431 1161.29 237.195C1162.31 238.154 1163.26 238.493 1164.33 238.29C1165.18 238.129 1165.88 238.23 1165.88 238.515C1165.88 238.801 1165.48 239.036 1165 239.036C1162.03 239.036 1161.55 242.357 1164.36 243.526C1166.28 244.326 1167.36 246.283 1165.88 246.283C1162.8 246.283 1167.15 249.9 1170.37 250.02C1172.15 250.087 1172.82 250.462 1173.64 251.852C1174.51 253.306 1175.04 253.582 1176.81 253.482C1180.23 253.286 1180.98 253.46 1182.27 254.737C1183.22 255.676 1183.48 255.743 1183.48 255.039C1183.48 254.54 1183.75 254.133 1184.08 254.133C1184.42 254.133 1184.7 253.558 1184.7 252.855C1184.7 251.882 1184.41 251.65 1183.51 251.886C1182.85 252.058 1182 251.82 1181.62 251.359C1181.23 250.899 1180.72 250.647 1180.46 250.799C1178.17 252.213 1178.08 249.275 1180.38 247.762C1183.98 245.39 1188.31 245.145 1190.27 247.203C1191.04 248.013 1191.91 248.681 1192.19 248.687C1192.47 248.693 1193.47 249.246 1194.42 249.917C1195.54 250.708 1196.29 250.91 1196.54 250.493C1197.18 249.48 1195.69 248.16 1193.44 247.742C1191.21 247.324 1191.2 246.283 1193.43 246.283C1195.62 246.283 1195.66 245.698 1193.61 243.868L1191.69 242.163L1193.35 241.408C1194.26 240.993 1195.02 240.2 1195.02 239.645C1195.02 237.631 1199.43 236.417 1202.75 237.516C1203.79 237.858 1204.12 237.735 1204.12 237.011C1204.12 236.432 1203.79 236.184 1203.27 236.383C1201.51 237.054 1199.48 235.388 1200.83 234.392C1201.93 233.577 1201.94 233.499 1200.92 232.925C1200.33 232.592 1200.01 232.064 1200.2 231.752C1200.4 231.44 1200.22 231.185 1199.81 231.185C1199.4 231.185 1199.24 231.006 1199.46 230.788C1199.69 230.569 1199.58 230.05 1199.23 229.634C1198.8 229.11 1198.8 228.757 1199.23 228.486C1199.59 228.271 1199.88 228.383 1199.88 228.734C1199.88 229.086 1200.45 229.374 1201.15 229.374C1202.12 229.374 1202.37 229.087 1202.14 228.224C1201.77 226.787 1205.12 226.053 1206.55 227.261C1207.49 228.055 1211.29 229.113 1212.27 228.853C1212.57 228.772 1212.98 228.939 1213.18 229.223C1213.37 229.508 1214.9 230.077 1216.57 230.487C1218.23 230.898 1220.56 231.523 1221.72 231.878C1222.9 232.232 1224.67 232.442 1225.68 232.344C1230.97 231.826 1234.99 232.126 1236.1 233.121C1236.73 233.686 1237.78 234.159 1238.44 234.169C1239.1 234.18 1240.05 234.224 1240.55 234.269C1241.05 234.312 1241.92 234.158 1242.48 233.924C1243.3 233.585 1243.59 233.94 1243.92 235.682C1244.25 237.408 1244.56 237.794 1245.4 237.526C1247.22 236.952 1247.18 238.677 1245.34 240.514C1244.37 241.472 1243.58 242.483 1243.58 242.76C1243.58 243.036 1243.04 243.263 1242.37 243.263C1241.07 243.263 1240.65 244.427 1241.92 244.535C1242.33 244.571 1243.08 244.66 1243.58 244.733C1244.08 244.807 1245.06 244.914 1245.76 244.971C1246.45 245.027 1247.37 245.723 1247.79 246.518C1248.23 247.311 1249.23 248.257 1250.03 248.618C1250.98 249.053 1251.47 249.781 1251.47 250.762C1251.47 251.581 1251.75 252.418 1252.08 252.623C1252.42 252.828 1252.69 252.448 1252.69 251.776C1252.69 250.214 1254.97 248.082 1256.6 248.132C1257.78 248.169 1257.78 248.198 1256.48 248.716C1255.57 249.082 1255.12 249.77 1255.12 250.792C1255.12 251.633 1254.82 252.321 1254.46 252.321C1254.09 252.321 1253.91 252.646 1254.04 253.042C1254.35 253.972 1257.43 254.803 1257.88 254.08C1258.07 253.777 1258.84 253.528 1259.58 253.528C1260.33 253.528 1261.27 253.207 1261.66 252.815C1262.62 251.865 1263.04 252.373 1262.62 253.966C1262.42 254.758 1261.95 255.131 1261.43 254.932C1260.17 254.453 1260.4 255.593 1261.81 256.863C1262.75 257.707 1263.21 257.801 1263.75 257.262C1264.29 256.724 1264.76 256.845 1265.76 257.777C1267.15 259.077 1269.09 258.851 1269.09 257.389C1269.09 256.894 1269.71 256.549 1270.6 256.549C1271.43 256.549 1272.12 256.276 1272.12 255.944C1272.12 255.613 1271.6 255.34 1270.95 255.34C1270.31 255.34 1269.65 255.001 1269.47 254.585C1269.29 254.129 1269 254.366 1268.75 255.189C1268.52 255.937 1267.89 256.526 1267.34 256.501C1266.71 256.47 1266.62 256.343 1267.11 256.147C1267.53 255.978 1267.74 255.624 1267.57 255.357C1267.04 254.507 1269.16 253.259 1271.38 253.118C1272.55 253.042 1273.95 252.786 1274.49 252.548C1275.98 251.88 1278.29 251.805 1280.5 252.352C1282.77 252.911 1289.89 250.117 1290.54 248.412C1290.74 247.898 1291.29 247.663 1291.82 247.867C1292.87 248.265 1293.11 247.177 1292.12 246.566C1291.69 246.301 1291.72 245.885 1292.23 245.276C1292.83 244.562 1292.82 244.279 1292.19 243.888C1291.74 243.619 1291.59 243.075 1291.83 242.682C1292.15 242.181 1292.54 242.341 1293.16 243.219C1294.06 244.495 1296.4 244.963 1296.4 243.867C1296.4 243.293 1295.5 243.008 1294.36 243.215C1294.07 243.268 1294.01 242.347 1294.23 241.169C1294.59 239.268 1294.47 238.963 1293.12 238.457C1292.3 238.143 1291.32 237.329 1290.96 236.649C1290.14 235.155 1288.78 235.038 1288.24 236.419C1287.8 237.584 1287.02 236.964 1286.41 234.959C1285.93 233.393 1288.2 232.973 1289.68 234.356C1290.17 234.816 1290.58 234.876 1290.72 234.507C1291.34 232.918 1292.24 232.1 1292.55 232.846C1292.72 233.261 1293.28 233.601 1293.8 233.601C1294.32 233.601 1295.06 233.975 1295.42 234.435C1296.29 235.502 1299.43 236.264 1299.43 235.405C1299.43 235.056 1298.98 234.596 1298.41 234.382C1297.5 234.034 1297.52 233.945 1298.57 233.53C1299.67 233.093 1299.67 233.045 1298.37 232.66C1296.73 232.17 1296.69 231.924 1298.07 230.42C1299.08 229.31 1299.06 229.209 1297.76 228.162C1294.25 225.327 1296.1 224.038 1303.99 223.853C1307.29 223.775 1310.65 223.309 1312.47 222.675C1314.71 221.898 1315.8 221.79 1316.68 222.256C1318.05 222.987 1326.22 222.459 1329.13 221.452C1330.61 220.94 1331.53 220.995 1333.3 221.702C1335.02 222.385 1338.13 222.608 1345.89 222.605C1356.82 222.6 1359.64 223.101 1359.15 224.962C1358.97 225.686 1359.34 226.255 1360.27 226.656C1361.03 226.988 1361.74 227.871 1361.86 228.619C1361.97 229.366 1362.41 229.978 1362.84 229.978C1363.28 229.978 1363.98 230.385 1364.39 230.883C1366.26 233.121 1368.03 230.895 1368.03 226.317V222.742L1371.83 223.038C1375.4 223.315 1386.69 222.407 1388.68 221.682C1389.18 221.5 1390.33 221.408 1391.22 221.478C1392.12 221.549 1393.36 221.337 1393.97 221.007C1395.86 220.006 1405.31 218.911 1405.56 219.664C1405.67 220.023 1406.05 220.315 1406.38 220.315C1406.72 220.315 1406.87 219.979 1406.74 219.568C1406.37 218.479 1416.02 214.452 1417.22 215.191C1417.45 215.331 1418.15 215.056 1418.79 214.579C1419.42 214.101 1420.35 213.702 1420.85 213.69C1421.35 213.679 1423.34 212.722 1425.28 211.565C1427.2 210.406 1429.51 209.279 1430.39 209.058C1432.33 208.574 1437.24 205.357 1437.24 204.572C1437.24 204.263 1437.69 204.011 1438.22 204.011C1438.77 204.011 1440.13 203.204 1441.26 202.218L1443.31 200.425L1450.65 200.557C1456.84 200.669 1458.1 200.855 1458.76 201.746C1459.19 202.328 1460.08 202.803 1460.76 202.803C1461.83 202.803 1462 203.301 1462.27 206.973C1462.76 213.787 1465.5 217.387 1470.03 217.142L1472.76 216.994L1472.93 205.564C1473.1 193.112 1473.05 192.882 1470.07 193.731C1468.4 194.208 1467.78 194.102 1466.53 193.122C1465.69 192.468 1464.37 191.933 1463.6 191.933C1462.84 191.933 1462.03 191.644 1461.8 191.292C1461.59 190.939 1460.76 190.406 1459.97 190.107C1459.18 189.807 1457.7 188.398 1456.68 186.973C1454.55 183.968 1452.71 181.68 1450.63 179.391C1449.2 177.814 1449.16 177.453 1449.11 168.24L1449.07 158.72H1450.81C1452.3 158.72 1452.46 158.581 1451.82 157.822C1451.38 157.291 1451.27 156.488 1451.55 155.859C1452.06 154.688 1452.24 154.156 1452.35 153.36C1452.39 153.07 1453.17 152.679 1454.09 152.492C1455 152.305 1456.3 151.708 1456.97 151.164C1457.64 150.621 1457.85 150.349 1457.42 150.561C1457 150.773 1456.5 150.521 1456.3 150.001C1456.09 149.483 1455.56 149.058 1455.09 149.058C1454.62 149.058 1454.25 148.849 1454.25 148.594C1454.25 148.34 1455.2 148.175 1456.37 148.23C1458.05 148.309 1458.49 148.102 1458.49 147.241C1458.49 146.526 1458.86 146.223 1459.56 146.359C1462.71 146.979 1466.99 147.134 1466.67 146.616C1466.47 146.299 1467.11 146.038 1468.08 146.038C1469.06 146.038 1470.63 145.439 1471.56 144.706C1472.69 143.824 1474.02 143.404 1475.48 143.462C1477.51 143.542 1477.77 143.358 1478.47 141.411C1479.56 138.423 1484.11 136.385 1490.51 136.01C1493.09 135.859 1495.42 135.518 1495.69 135.252C1496.22 134.715 1497.75 134.784 1499.21 135.411C1499.74 135.637 1500.83 135.586 1501.64 135.299C1503.13 134.77 1512.12 134.903 1513.66 135.477C1516.67 136.608 1510.57 138.395 1501.29 139.095C1495.25 139.551 1491.84 140.577 1489.86 142.53C1488.83 143.554 1487.5 144.227 1486.5 144.227C1485.35 144.227 1484.06 145.027 1482.28 146.823L1479.73 149.42L1480.43 152.711C1480.82 154.522 1481.14 156.749 1481.14 157.663C1481.13 158.577 1481.35 159.324 1481.63 159.324C1481.91 159.324 1482.71 160.65 1483.41 162.272C1485.91 168.046 1499.08 170.772 1505.07 166.754C1506 166.131 1507.43 165.319 1508.28 164.949C1509.11 164.58 1510.82 163.826 1512.09 163.274C1513.34 162.721 1514.71 161.743 1515.11 161.098C1515.43 160.586 1515.74 160.246 1516 160.082V133.79C1513.44 133.876 1504.33 132.764 1504.15 132.24C1503.78 131.113 1502.32 131.446 1501.9 132.753C1501.42 134.241 1500.39 134.343 1500.36 132.904C1500.34 131.905 1500.31 131.906 1499.72 132.917C1499.38 133.505 1498.82 133.82 1498.49 133.617C1497.25 132.856 1502.22 129.641 1508.77 126.964C1510.21 126.375 1512 125.171 1512.74 124.288C1513.49 123.405 1514.63 122.386 1515.29 122.022C1515.52 121.891 1515.77 122.353 1516 123.159V0ZM1516 161.371C1515.75 161.328 1515.56 161.577 1515.56 162.005C1515.56 162.434 1515.75 162.798 1516 162.911V161.371ZM1220.85 351L1069.45 350.994C931.703 351 921.913 351 921.913 351H1220.85ZM0 216.367C0.367042 216.528 0.367042 216.594 0 216.63V216.367ZM1513.23 125.3C1513.49 126.622 1515.26 126.809 1515.26 125.515C1515.26 125.021 1514.76 124.521 1514.13 124.403C1513.32 124.248 1513.08 124.494 1513.23 125.3ZM1492.49 134.263C1492.15 134.468 1491.89 134.348 1491.89 133.996C1491.89 133.645 1492.15 133.357 1492.49 133.357C1492.82 133.357 1493.1 133.476 1493.1 133.623C1493.1 133.77 1492.82 134.057 1492.49 134.263ZM1208.34 344.064C1211.03 345.016 1216.94 347.109 1221.4 347.109L1231.4 341.551C1240.85 333.874 1233.07 318.206 1233.07 318.206C1233.07 318.206 1230.85 310.981 1225.37 308.484C1219.89 305.988 1213.63 305.412 1209.59 306.83C1194.12 312.257 1203.43 342.385 1207.51 343.774C1207.73 343.85 1208.01 343.949 1208.34 344.064ZM1472.47 148.768C1473.48 149.678 1473.67 149.703 1473.67 148.923C1473.67 147.764 1472.08 146.383 1471.62 147.136C1471.43 147.44 1471.8 148.175 1472.47 148.768ZM1475.02 152.077C1475.37 152.077 1475.32 151.694 1474.88 151.171C1474.47 150.673 1474.03 150.265 1473.92 150.265C1473.8 150.265 1473.86 150.673 1474.06 151.171C1474.25 151.669 1474.68 152.077 1475.02 152.077ZM1465.01 165.571C1467.75 166.076 1467.48 165.19 1464.17 162.673C1461.55 160.684 1459.1 159.883 1459.1 161.017C1459.1 162.095 1463.17 165.229 1465.01 165.571ZM1507.31 167.401C1506.8 168.716 1507.15 169.069 1508.29 168.374C1508.98 167.947 1509.01 167.669 1508.44 167.098C1507.87 166.527 1507.62 166.594 1507.31 167.401ZM1488.84 175.628C1489.17 175.628 1489.45 175.373 1489.45 175.06C1489.45 174.747 1489.17 174.324 1488.84 174.119C1488.51 173.913 1488.24 174.169 1488.24 174.687C1488.24 175.204 1488.51 175.628 1488.84 175.628ZM1483.98 176.217C1483.98 175.877 1483.28 175.334 1482.43 175.009C1480.16 174.153 1479.99 174.275 1481.56 175.628C1483.1 176.956 1483.98 177.171 1483.98 176.217ZM1476.36 183.479C1477.38 183.479 1476.44 181.281 1474.64 179.493C1472.75 177.613 1471.24 176.871 1471.24 177.822C1471.24 179.383 1474.95 183.479 1476.36 183.479ZM1478.51 187.867C1480.76 190.067 1482.37 189.431 1480.99 186.879C1480.56 186.078 1479.54 185.12 1478.73 184.749C1477.91 184.377 1477.39 184.328 1477.58 184.64C1477.78 184.952 1477.64 185.391 1477.27 185.616C1476.85 185.874 1477.31 186.706 1478.51 187.867ZM1476.97 194.208C1477.53 194.77 1479.13 193.771 1479.13 192.858C1479.13 191.621 1477.54 191.673 1477.06 192.925C1476.85 193.471 1476.81 194.048 1476.97 194.208ZM959.775 213.264C960.365 211.864 961.046 211.288 962.302 211.129C965.304 210.749 965.758 211.005 966.616 213.565C967.627 216.584 970.316 217.73 974.342 216.856C977.5 216.171 978.895 216.504 978.895 217.944C978.895 219.07 976.254 219.559 972.065 219.21C971.442 219.158 971.002 219.539 971.002 220.129C971.002 224.335 967.661 227.152 965.074 225.127C963.105 223.587 956.999 223.438 955.778 224.901C954.255 226.727 959.977 229.457 963.197 228.441C964.439 228.048 964.439 228.052 963.171 229.314C961.811 230.666 961.467 232.393 962.555 232.393C964.018 232.393 962.612 233.781 960.357 234.561C957.108 235.686 956.251 235.624 955.359 234.204C954.942 233.541 954.193 232.997 953.697 232.997C952.705 232.997 952.673 232.872 952.537 228.468C952.471 226.28 952.82 224.838 953.808 223.234C954.557 222.016 955.34 220.343 955.549 219.517C955.758 218.69 956.611 217.377 957.448 216.599C958.283 215.82 959.331 214.319 959.775 213.264ZM1001.4 215.384C1001.38 214.83 1001.7 214.26 1002.12 214.115C1002.53 213.972 1002.96 214.069 1003.07 214.333C1003.17 214.597 1003.72 214.641 1004.28 214.432C1005.17 214.098 1005.2 214.179 1004.46 215.077C1003.85 215.821 1003.41 215.928 1002.85 215.467C1002.3 215.011 1001.99 215.052 1001.77 215.61C1001.56 216.127 1001.44 216.05 1001.4 215.384ZM1425.65 219.186C1428.58 221.543 1432.19 219.212 1430.08 216.325C1428.69 214.431 1426.6 214.493 1425.3 216.468C1424.29 218.006 1424.3 218.091 1425.65 219.186ZM1205.23 216.486C1206 216.96 1206.87 216.947 1208.39 216.441C1210.16 215.857 1210.59 215.894 1211.07 216.67C1211.38 217.181 1211.97 217.933 1212.38 218.342C1212.79 218.751 1213.21 219.299 1213.32 219.559C1213.44 219.82 1214.74 220.911 1216.23 221.986C1217.79 223.115 1218.51 223.939 1217.93 223.939C1217.38 223.939 1216.71 224.303 1216.45 224.75C1213.96 228.904 1205.9 227.221 1206.77 222.731C1207.12 220.956 1206.1 219.347 1204.41 219.005C1203.61 218.842 1203.28 218.371 1203.42 217.576C1203.71 215.922 1204.02 215.736 1205.23 216.486ZM967.547 217.955C968.093 217.412 968.049 217.112 967.355 216.676C965.999 215.824 964.931 215.972 964.931 217.013C964.931 218.235 966.646 218.852 967.547 217.955ZM1446.69 217.9C1447.17 217.9 1447.57 217.492 1447.57 216.994C1447.57 216.085 1446.28 215.752 1445.56 216.474C1444.99 217.038 1445.68 217.9 1446.69 217.9ZM958.339 223.184C962.231 223.4 963.366 222.396 962.826 219.215C962.237 215.748 960.372 215.752 957.38 219.228C954.702 222.341 954.859 222.991 958.339 223.184ZM1140.75 221.523C1140.19 221.523 1140 221.1 1140.2 220.315C1140.38 219.651 1140.77 219.108 1141.06 219.108C1141.36 219.108 1141.59 219.651 1141.59 220.315C1141.59 220.98 1141.21 221.523 1140.75 221.523ZM999.721 224.062C998.122 222.903 998.109 222.842 999.129 221.294C1001.28 218.022 1003.88 220.639 1003.71 225.904C1003.65 227.648 1003.8 229.686 1004.04 230.435C1004.5 231.871 1002.56 233.178 1000.9 232.551C999.999 232.209 999.88 229.003 1000.75 228.468C1001.94 227.733 1001.37 225.254 999.721 224.062ZM299.205 223.835C298.075 224.089 295.786 221.378 296.671 220.833C297.021 220.619 297.934 221.161 298.698 222.039C299.784 223.288 299.895 223.68 299.205 223.835ZM287.566 226.468C287.94 227.587 289.247 227.773 289.247 226.706C289.247 226.181 288.815 225.75 288.287 225.75C287.758 225.75 287.432 226.073 287.566 226.468ZM69.0858 228.942C68.7957 229.121 68.0313 228.883 67.3872 228.414C66.5591 227.812 66.4723 227.564 67.0903 227.571C68.3143 227.584 69.7215 228.552 69.0858 228.942ZM1452.49 231.789C1454.14 231.789 1454.3 231.615 1454.12 230.128C1453.88 227.97 1450.93 227.357 1450.31 229.333C1449.76 231.078 1450.38 231.789 1452.49 231.789ZM1020.9 230.706C1020.13 231.471 1018.96 230.815 1018.96 229.619C1018.96 228.899 1019.21 228.859 1020.24 229.408C1021.11 229.871 1021.32 230.287 1020.9 230.706ZM1296.53 230.238C1295.07 230.7 1292.15 230.081 1292.15 229.308C1292.15 228.616 1295.83 228.623 1296.93 229.317C1297.6 229.735 1297.51 229.927 1296.53 230.238ZM297.443 230.581C297.944 230.581 298.354 230.31 298.354 229.978C298.354 229.645 297.944 229.374 297.443 229.374C296.943 229.374 296.532 229.645 296.532 229.978C296.532 230.31 296.943 230.581 297.443 230.581ZM312.317 232.393C312.65 232.393 312.924 231.985 312.924 231.487C312.924 230.989 312.65 230.581 312.317 230.581C311.983 230.581 311.709 230.989 311.709 231.487C311.709 231.985 311.983 232.393 312.317 232.393ZM1212.17 235.304C1212.98 234.685 1213.11 234.101 1212.72 232.695C1212.01 230.036 1210.09 230.004 1208.09 232.618C1205.84 235.542 1206.05 239.246 1208.49 239.525C1210.09 239.708 1211.66 238.109 1211.27 236.687C1211.18 236.365 1211.58 235.743 1212.17 235.304ZM964.535 233.601C964.984 233.601 965.846 233.057 966.45 232.393C968.069 230.613 969.018 230.868 968.703 232.997C968.438 234.805 963.718 235.948 963.718 234.204C963.718 233.872 964.085 233.601 964.535 233.601ZM1190.76 235.16C1190.76 234.358 1191.11 233.564 1191.53 233.396C1193.58 232.575 1193.5 233.819 1191.25 237.601C1190.14 239.476 1188.34 240.393 1188.34 239.086C1188.34 238.78 1188.17 238.101 1187.97 237.575C1187.7 236.855 1188 236.62 1189.19 236.62C1190.45 236.62 1190.76 236.331 1190.76 235.16ZM1282.57 237.828C1281.57 237.828 1281.19 236.048 1281.94 234.854C1282.33 234.24 1283 233.79 1283.43 233.853C1284.87 234.062 1285 234.714 1283.77 235.478C1283.1 235.892 1282.7 236.59 1282.87 237.029C1283.03 237.468 1282.9 237.828 1282.57 237.828ZM1272.12 235.413C1272.79 235.413 1273.33 235.14 1273.33 234.808C1273.33 234.003 1273.54 234.035 1276.03 235.216C1277.64 235.984 1278.01 236.413 1277.51 237.001C1276.56 238.141 1277.33 238.916 1279.09 238.582C1281.12 238.194 1281.04 238.902 1278.94 239.71C1276.54 240.638 1271.59 240.744 1271.93 239.861C1272.08 239.474 1271.91 238.978 1271.55 238.759C1270.34 238.017 1270.79 235.413 1272.12 235.413ZM1359.69 235.77C1359.84 235.921 1360.31 235.631 1360.74 235.125C1361.22 234.551 1361.27 234.204 1360.85 234.204C1360.12 234.204 1359.28 235.351 1359.69 235.77ZM999.695 236.746C1000.11 236.408 1001.13 236.008 1001.96 235.854C1002.8 235.702 1003.67 235.54 1003.9 235.495C1004.68 235.343 1005.11 236.666 1004.52 237.402C1003.54 238.64 1003.02 242.659 1003.85 242.659C1004.32 242.659 1004.22 243.057 1003.58 243.764C1002.2 245.273 1002.31 245.678 1004.09 245.678C1005.83 245.678 1006.13 246.742 1004.54 247.295C1003.96 247.5 1002.76 248.331 1001.87 249.144C1000 250.863 996.269 251.359 996.152 249.905C996.112 249.407 996.036 248.365 995.985 247.59C995.935 246.814 994.937 245.338 993.768 244.308C991.281 242.117 991.092 240.369 993.18 238.857C994.005 238.26 994.679 238.056 994.679 238.403C994.679 238.751 994.981 239.036 995.352 239.036C995.72 239.036 995.874 238.65 995.693 238.18C995.31 237.188 996.686 236.498 998.026 237.008C998.531 237.201 999.282 237.084 999.695 236.746ZM1010.93 236.549C1010.51 236.51 1010.98 236.27 1011.98 236.016C1012.98 235.763 1014.01 235.523 1014.27 235.484C1015.68 235.268 1015.96 238.264 1014.77 241.016C1013.49 243.984 1012.39 244.541 1011.02 242.904C1010.34 242.083 1010.43 241.78 1011.68 240.847C1013.24 239.677 1012.72 236.715 1010.93 236.549ZM1269.15 236.62C1268.82 236.62 1268.37 236.349 1268.17 236.016C1267.96 235.684 1268.06 235.413 1268.4 235.413C1268.74 235.413 1269.17 235.684 1269.39 236.016C1269.59 236.349 1269.49 236.62 1269.15 236.62ZM1310.97 238.891C1310.97 240.445 1315.49 239.577 1315.72 237.978C1315.88 236.84 1315.63 236.62 1314.17 236.62C1312.3 236.62 1310.97 237.564 1310.97 238.891ZM1288.83 239.058C1288.04 238.193 1288 237.884 1288.62 237.636C1289.9 237.129 1290 237.165 1290.76 238.378C1291.78 239.995 1290.19 240.553 1288.83 239.058ZM219.736 239.639C220.237 239.639 220.647 239.232 220.647 238.733C220.647 237.791 219.929 237.536 219.23 238.231C218.532 238.926 218.788 239.639 219.736 239.639ZM1134.06 241.087C1135.43 241.61 1136.13 241.008 1136.13 239.302C1136.13 238.491 1135.86 237.828 1135.52 237.828C1135.19 237.828 1134.91 238.1 1134.91 238.432C1134.91 238.764 1134.51 239.036 1134 239.036C1132.79 239.036 1132.83 240.62 1134.06 241.087ZM1140.29 239.565C1141.36 240.25 1143.53 239.69 1143.23 238.808C1142.93 237.887 1141.49 237.698 1140.38 238.432C1139.62 238.933 1139.61 239.125 1140.29 239.565ZM1284.61 240.441C1284.97 240.166 1285.43 239.466 1285.64 238.884C1285.87 238.303 1286.36 237.828 1286.74 237.828C1287.69 237.828 1285.97 240.401 1284.81 240.709C1284.27 240.857 1284.19 240.761 1284.61 240.441ZM1203.95 240.316C1204.69 241.049 1206.68 240.311 1206.38 239.415C1206.05 238.464 1204.32 238.222 1203.81 239.055C1203.58 239.435 1203.63 240.002 1203.95 240.316ZM1030.8 240.848C1030.3 240.848 1029.89 240.449 1029.89 239.961C1029.89 239.42 1030.25 239.209 1030.8 239.421C1031.3 239.613 1031.71 240.012 1031.71 240.309C1031.71 240.604 1031.3 240.848 1030.8 240.848ZM289.284 241.451C289.636 241.451 289.757 241.179 289.55 240.848C289.345 240.515 289.056 240.243 288.908 240.243C288.76 240.243 288.64 240.515 288.64 240.848C288.64 241.179 288.93 241.451 289.284 241.451ZM1247.92 242.285C1246.83 243.259 1246.79 243.235 1247.07 241.775C1247.24 240.932 1247.75 240.243 1248.21 240.243C1249.37 240.243 1249.26 241.077 1247.92 242.285ZM1145.46 244.471C1147.09 244.471 1148.27 243.412 1148.27 241.934C1148.27 240.51 1146.38 240.521 1144.6 241.957C1143.02 243.231 1143.43 244.471 1145.46 244.471ZM1282.48 242.055C1282.12 242.055 1281.83 241.784 1281.83 241.451C1281.83 241.119 1281.95 240.848 1282.1 240.848C1282.24 240.848 1282.53 241.119 1282.74 241.451C1282.94 241.784 1282.82 242.055 1282.48 242.055ZM1283.59 243.867C1282.82 243.867 1282.91 243.032 1283.77 242.186C1284.15 241.793 1284.58 241.564 1284.69 241.677C1285.05 242.045 1284.14 243.867 1283.59 243.867ZM1394.45 243.263C1394.95 243.682 1395.35 243.748 1395.35 243.411C1395.35 243.079 1394.95 242.468 1394.45 242.055C1393.94 241.636 1393.54 241.57 1393.54 241.907C1393.54 242.239 1393.94 242.849 1394.45 243.263ZM217.712 243.347C217.939 244.94 219.129 245.039 219.129 243.463C219.129 242.911 218.764 242.337 218.319 242.189C217.764 242.005 217.573 242.37 217.712 243.347ZM84.9635 243.781L86.1777 243.263C88.008 242.481 88.6795 242.561 89.5944 243.669C90.3423 244.577 90.2725 244.639 88.9095 244.282C88.0748 244.063 86.8454 243.86 86.1777 243.832L84.9635 243.781ZM1206.27 244.471C1206.78 244.471 1206.98 244.106 1206.77 243.565C1206.4 242.604 1205.79 242.408 1205.15 243.044C1204.59 243.605 1205.27 244.471 1206.27 244.471ZM1232.51 244.576C1232.93 244.979 1233.27 244.943 1233.57 244.471C1233.81 244.08 1233.74 243.49 1233.4 243.158C1232.99 242.755 1232.65 242.79 1232.35 243.263C1232.11 243.653 1232.18 244.244 1232.51 244.576ZM1425.68 244.357C1426.13 244.508 1426.35 244.283 1426.2 243.829C1426.05 243.393 1425.58 242.918 1425.14 242.772C1424.69 242.622 1424.45 242.848 1424.61 243.301C1424.75 243.736 1425.23 244.213 1425.68 244.357ZM1133.4 246.886C1134.64 246.886 1135.12 245.746 1134.29 244.746C1133.35 243.627 1132.54 243.626 1132.11 244.744C1131.69 245.851 1132.31 246.886 1133.4 246.886ZM1159.5 245.074C1160 245.074 1160.41 244.803 1160.41 244.471C1160.41 244.138 1160 243.867 1159.5 243.867C1159 243.867 1158.59 244.138 1158.59 244.471C1158.59 244.803 1159 245.074 1159.5 245.074ZM1279.4 244.773C1279.07 244.977 1278.8 244.857 1278.8 244.506C1278.8 244.155 1279.07 243.867 1279.4 243.867C1279.73 243.867 1280.01 243.986 1280.01 244.133C1280.01 244.279 1279.73 244.567 1279.4 244.773ZM276.52 246.257C275.607 246.831 274.07 246.042 274.07 245.001C274.07 244.71 274.344 244.471 274.677 244.471C275.012 244.471 275.285 244.742 275.285 245.074C275.285 245.407 275.763 245.682 276.347 245.688C277.235 245.696 277.263 245.788 276.52 246.257ZM1138.21 245.135C1137.72 245.928 1139.73 246.559 1140.46 245.84C1140.87 245.438 1140.65 245.128 1139.81 244.911C1139.12 244.731 1138.4 244.832 1138.21 245.135ZM1197.78 246.49C1198.29 246.295 1198.61 245.845 1198.5 245.491C1198.09 244.277 1196.84 244.367 1196.84 245.609C1196.84 246.477 1197.12 246.742 1197.78 246.49ZM1289.92 246.081C1289.74 245.903 1289.78 245.469 1290 245.115C1290.5 244.318 1291.54 244.267 1291.54 245.039C1291.54 245.751 1290.36 246.514 1289.92 246.081ZM1156.09 249.905C1155.8 249.905 1155.64 249.305 1155.71 248.571C1155.8 247.747 1155.48 247.159 1154.87 247.032C1153.78 246.804 1152.75 248.697 1153.67 249.26C1156.88 251.237 1152.94 254.764 1149.54 252.952C1147.93 252.1 1146.89 252.666 1147.36 254.133C1147.85 255.656 1146.97 256.033 1144.81 255.222C1143.73 254.819 1142.51 254.747 1141.83 255.043C1138.39 256.556 1135.31 255.226 1135.62 252.349C1135.96 249.208 1132.53 248.137 1129.52 250.438C1128.1 251.526 1128.09 251.571 1129.21 252.689C1129.84 253.317 1130.37 254.645 1130.37 255.643C1130.37 257.452 1130.37 257.453 1133.99 257.453C1136.9 257.453 1137.9 257.719 1139.09 258.813C1140.93 260.516 1142.96 260.541 1145.21 258.886C1146.57 257.888 1147.43 257.691 1149.11 258.005C1150.88 258.336 1151.4 258.188 1152.04 257.176C1152.47 256.499 1153.28 255.944 1153.86 255.944C1154.5 255.944 1154.79 255.62 1154.59 255.117C1154.41 254.661 1154.77 253.798 1155.37 253.198C1156.51 252.062 1156.98 249.905 1156.09 249.905ZM1163.8 247.409C1163.29 248.223 1163.8 249.148 1164.43 248.534C1164.63 248.334 1164.67 247.827 1164.54 247.406C1164.33 246.793 1164.18 246.793 1163.8 247.409ZM193.935 249.302C194.269 249.302 194.542 249.029 194.542 248.698C194.542 248.366 194.269 248.093 193.935 248.093C193.601 248.093 193.328 248.366 193.328 248.698C193.328 249.029 193.601 249.302 193.935 249.302ZM1147.91 250.747C1148.94 250.358 1149.27 248.698 1148.32 248.698C1148.01 248.698 1147.38 248.55 1146.9 248.368C1145.59 247.87 1144.13 249.828 1145.28 250.546C1146.31 251.202 1146.66 251.227 1147.91 250.747ZM1203.52 249.905C1204.19 249.905 1204.73 249.665 1204.73 249.372C1204.73 249.078 1204.19 248.697 1203.52 248.522C1202.73 248.317 1202.3 248.505 1202.3 249.056C1202.3 249.523 1202.84 249.905 1203.52 249.905ZM817.714 249.997C818.031 249.997 818.389 249.704 818.508 249.347C818.628 248.991 818.271 248.698 817.714 248.698C817.158 248.698 816.801 248.991 816.92 249.347C817.04 249.704 817.397 249.997 817.714 249.997ZM1121.7 251.708C1123.65 251.695 1124.83 250.798 1124.4 249.664C1124 248.619 1121.78 248.388 1120.41 249.25C1119.19 250.022 1120.06 251.718 1121.7 251.708ZM1152.21 252.71C1153.56 252.195 1154.07 250.487 1153.07 249.853C1151.77 249.036 1149.66 249.202 1149.29 250.151C1148.86 251.278 1151.01 253.168 1152.21 252.71ZM69.8223 251.114C69.9697 251.114 70.09 250.841 70.09 250.509C70.09 250.178 69.8004 249.905 69.4471 249.905C69.0937 249.905 68.9729 250.178 69.1793 250.509C69.3857 250.841 69.6747 251.114 69.8223 251.114ZM200.475 256.814C202.275 258.604 208.273 255.304 208.074 252.632C207.904 250.355 207.303 249.928 205.407 250.739C202.608 251.936 199.465 255.808 200.475 256.814ZM85.1614 254.737C85.9033 254.737 88.3024 252.054 88.3024 251.226C88.3024 250.146 86.7993 250.367 85.6647 251.614C84.6144 252.768 84.2969 254.737 85.1614 254.737ZM1265.07 254.375C1264.06 254.76 1264.05 254.667 1264.82 252.662C1265.14 251.81 1265.65 251.114 1265.94 251.114C1266.8 251.114 1266.02 254.015 1265.07 254.375ZM1020.82 252.925C1021.17 252.925 1021.29 252.653 1021.09 252.321C1020.88 251.989 1020.59 251.717 1020.44 251.717C1020.3 251.717 1020.18 251.989 1020.18 252.321C1020.18 252.653 1020.47 252.925 1020.82 252.925ZM1133.13 253.528C1132.78 253.528 1132.49 253.257 1132.49 252.925C1132.49 252.592 1132.61 252.321 1132.75 252.321C1132.9 252.321 1133.19 252.592 1133.4 252.925C1133.6 253.257 1133.49 253.528 1133.13 253.528ZM1288.02 254.381C1286.67 254.104 1286.12 253.698 1286.33 253.145C1286.51 252.692 1286.4 252.321 1286.1 252.321C1285.37 252.321 1283.65 254.072 1283.65 254.82C1283.65 255.151 1283.1 255.249 1282.43 255.039C1281.57 254.764 1281.22 254.93 1281.22 255.621C1281.22 256.772 1283.7 257.87 1284.53 257.089C1284.84 256.791 1285.69 256.549 1286.39 256.549C1289.03 256.549 1290.3 254.851 1288.02 254.381ZM280.003 255.446C280.409 255.848 280.758 255.813 281.051 255.34C281.294 254.95 281.219 254.36 280.886 254.027C280.48 253.625 280.131 253.659 279.838 254.133C279.596 254.523 279.67 255.113 280.003 255.446ZM1159.66 259.666C1165.63 259.897 1167.74 257.828 1164.24 255.189C1161.23 252.919 1157.38 253.237 1157.38 255.756C1157.38 257.084 1155.58 258.317 1153.6 258.341C1151.66 258.364 1150.52 260.003 1151.39 261.545C1151.71 262.118 1152.45 262.587 1153.04 262.587C1153.62 262.587 1154.41 262.902 1154.8 263.286C1155.79 264.269 1157.38 262.865 1157.38 261.007C1157.38 259.739 1157.64 259.587 1159.66 259.666ZM1252.69 254.737C1253.03 254.737 1253.29 254.464 1253.29 254.133C1253.29 253.801 1253.03 253.528 1252.69 253.528C1252.35 253.528 1252.08 253.801 1252.08 254.133C1252.08 254.464 1252.35 254.737 1252.69 254.737ZM1277.29 254.142C1277.63 254.7 1278.8 254.432 1278.8 253.795C1278.8 253.648 1278.37 253.528 1277.84 253.528C1277.33 253.528 1277.08 253.805 1277.29 254.142ZM1293.8 254.931C1294.68 255.476 1297.61 254.812 1297.61 254.067C1297.61 253.458 1296.78 253.458 1294.59 254.067C1293.6 254.341 1293.32 254.642 1293.8 254.931ZM996.804 255.34C995.635 255.34 994.679 255.069 994.679 254.737C994.679 254.404 995.635 254.133 996.804 254.133C997.972 254.133 998.929 254.404 998.929 254.737C998.929 255.069 997.972 255.34 996.804 255.34ZM448.209 258.359C447.316 258.359 447.655 257.014 448.758 256.181C449.929 255.298 450.732 255.12 450.732 255.746C450.732 256.355 448.797 258.359 448.209 258.359ZM1123.78 258.805C1125.24 259.867 1126.11 259.454 1126.11 257.706C1126.11 256.678 1125.73 256.192 1124.82 256.063C1123.09 255.816 1122.34 257.759 1123.78 258.805ZM1197.4 261.144C1199.58 261.253 1199.88 260.031 1198.16 258.003C1196.42 255.926 1193.73 255.714 1194.2 257.69C1194.84 260.378 1195.45 261.047 1197.4 261.144ZM442.976 257.568C442.279 258.801 442.968 260.244 443.84 259.378C444.011 259.207 444.055 258.433 443.937 257.657L443.723 256.246L442.976 257.568ZM1128.23 258.359C1128.91 258.359 1129.45 257.957 1129.45 257.453C1129.45 256.951 1128.91 256.549 1128.23 256.549C1127.57 256.549 1127.02 256.951 1127.02 257.453C1127.02 257.957 1127.57 258.359 1128.23 258.359ZM1189.29 258.359C1189.43 258.359 1189.55 258.088 1189.55 257.756C1189.55 257.423 1189.26 257.152 1188.91 257.152C1188.55 257.152 1188.44 257.423 1188.64 257.756C1188.85 258.088 1189.14 258.359 1189.29 258.359ZM1280 258.657C1280.34 258.869 1280.44 258.626 1280.24 258.089C1279.83 257.043 1279.4 256.852 1279.4 257.72C1279.4 258.033 1279.68 258.455 1280 258.657ZM1364.79 262.859C1368.09 263.682 1369.16 260.447 1366.28 258.401C1364.2 256.937 1363.57 256.861 1362.64 257.968C1361.57 259.268 1362.93 262.396 1364.79 262.859ZM1271.51 258.963C1271.84 258.963 1272.12 258.692 1272.12 258.359C1272.12 258.027 1271.84 257.756 1271.51 257.756C1271.18 257.756 1270.9 258.027 1270.9 258.359C1270.9 258.692 1271.18 258.963 1271.51 258.963ZM1289.72 259.268C1290.06 259.471 1290.33 259.351 1290.33 259C1290.33 257.86 1288.6 258.323 1288.2 259.568C1287.99 260.232 1287.43 260.775 1286.94 260.775C1286.47 260.775 1286.08 261.047 1286.08 261.379C1286.08 262.6 1287.72 261.937 1288.41 260.439C1288.8 259.59 1289.39 259.063 1289.72 259.268ZM1407.7 261.983C1407.87 261.983 1407.61 261.168 1407.11 260.171C1406.27 258.528 1405.04 257.691 1405.08 258.813C1405.12 259.368 1407.26 261.983 1407.7 261.983ZM1002.61 260.775C1002.96 260.775 1003.08 260.504 1002.87 260.171C1002.67 259.839 1002.38 259.568 1002.23 259.568C1002.08 259.568 1001.96 259.839 1001.96 260.171C1001.96 260.504 1002.25 260.775 1002.61 260.775ZM1070.07 261.487C1070.32 263.168 1071.78 263.691 1071.78 262.098C1071.78 261.441 1071.35 260.741 1070.83 260.541C1070.11 260.268 1069.92 260.506 1070.07 261.487ZM204.851 265.003C205.178 265.003 205.615 264.335 205.821 263.519C206.337 261.475 205.959 260.529 205.007 261.478C204.114 262.365 203.998 265.003 204.851 265.003ZM1276.98 261.983C1277.31 261.983 1277.58 261.711 1277.58 261.379C1277.58 261.047 1277.31 260.775 1276.98 260.775C1276.64 260.775 1276.36 261.047 1276.36 261.379C1276.36 261.711 1276.64 261.983 1276.98 261.983ZM1284.78 262.738C1285.3 263.261 1285.48 263.178 1285.48 262.406C1285.48 261.126 1281.72 260.957 1280.7 262.189C1279.64 263.45 1280.6 263.837 1282.42 262.895C1283.67 262.255 1284.25 262.216 1284.78 262.738ZM1371.69 262.883C1372.02 262.674 1372.15 262.25 1371.96 261.941C1371.43 261.104 1371.07 261.26 1371.07 262.32C1371.07 262.838 1371.35 263.091 1371.69 262.883ZM593.474 265.051C594.017 265.024 594.837 264.552 595.295 264.002C596.064 263.08 596.145 263.09 596.35 264.13C596.471 264.75 596.266 265.36 595.894 265.483C595.522 265.606 595.217 266.092 595.217 266.562C595.217 267.034 594.944 267.418 594.611 267.418C594.277 267.418 594.004 267.034 594.004 266.562C594.004 266.092 593.663 265.57 593.245 265.402C592.761 265.208 592.845 265.081 593.474 265.051ZM960.379 265.003C960.88 265.003 961.29 264.595 961.29 264.097C961.29 263.599 960.88 263.191 960.379 263.191C959.877 263.191 959.468 263.599 959.468 264.097C959.468 264.595 959.877 265.003 960.379 265.003ZM1273.22 264.864C1273.61 264.996 1273.94 264.673 1273.94 264.147C1273.94 263.621 1273.51 263.191 1272.98 263.191C1271.91 263.191 1272.09 264.491 1273.22 264.864ZM1280.01 265.003C1280.34 265.003 1280.62 264.73 1280.62 264.399C1280.62 264.067 1280.34 263.794 1280.01 263.794C1279.68 263.794 1279.4 264.067 1279.4 264.399C1279.4 264.73 1279.68 265.003 1280.01 265.003ZM1105.22 279.542C1108.01 276.764 1107.17 269.497 1103.68 266.234C1098.79 261.666 1089.25 265.852 1088.86 272.739C1088.48 279.491 1100.32 284.414 1105.22 279.542ZM1247.23 265.354C1247.23 266.421 1248.53 266.236 1248.91 265.116C1249.04 264.721 1248.72 264.399 1248.18 264.399C1247.66 264.399 1247.23 264.828 1247.23 265.354ZM1282.2 266.06C1283.1 266.951 1283.15 266.939 1282.95 265.915C1282.84 265.303 1282.4 264.687 1281.98 264.549C1280.93 264.201 1281.03 264.899 1282.2 266.06ZM1194.74 266.684C1194.93 266.5 1194.21 266.047 1193.13 265.676C1188.59 264.097 1183.56 268.954 1186.9 271.709C1187.52 272.217 1187.72 273.054 1187.51 274.143C1187.22 275.538 1187.49 275.998 1189.2 277.044C1191.96 278.746 1192.25 278.657 1193.49 275.721C1194.08 274.311 1195 272.285 1195.52 271.222C1196.4 269.444 1196.39 269.2 1195.44 268.154C1194.88 267.53 1194.55 266.868 1194.74 266.684ZM1168.68 269.437C1169.46 268.492 1170.04 267.335 1169.96 266.865C1169.76 265.632 1168.74 265.462 1167.39 266.437C1166.76 266.903 1165.9 267.159 1165.5 267.008C1164 266.436 1164.09 268.005 1165.65 269.548L1167.26 271.154L1168.68 269.437ZM1276.78 268.604C1277.05 268.592 1278.1 267.914 1279.1 267.097C1281.05 265.506 1280.63 265.154 1278.23 266.37C1276.79 267.104 1275.78 268.647 1276.78 268.604ZM1157.38 268.022C1158.05 268.022 1158.59 267.62 1158.59 267.116C1158.59 266.197 1157.3 265.878 1156.57 266.614C1155.8 267.378 1156.17 268.022 1157.38 268.022ZM1274.7 268.463C1275.44 267.961 1275.92 267.423 1275.75 267.267C1275.16 266.718 1272.29 266.238 1271.9 266.624C1271.19 267.342 1271.5 269.676 1272.42 270.438C1273.16 271.049 1273.33 271.02 1273.33 270.283C1273.33 269.785 1273.94 268.966 1274.7 268.463ZM1285.81 267.418C1285.96 267.418 1286.08 267.146 1286.08 266.814C1286.08 266.482 1285.79 266.21 1285.43 266.21C1285.09 266.21 1284.97 266.482 1285.17 266.814C1285.38 267.146 1285.67 267.418 1285.81 267.418ZM1159.31 271.248C1161.48 271.81 1164.46 268.429 1162.75 267.351C1161.76 266.722 1161.74 266.726 1159.66 267.817C1157.65 268.871 1157.46 270.763 1159.31 271.248ZM1302.11 270.438C1303.9 270.438 1304.51 269.654 1303.99 268.016C1303.52 266.578 1300.79 266.359 1300.26 267.72C1299.68 269.216 1300.51 270.438 1302.11 270.438ZM272.159 272.551C274.423 272.551 274.596 271.66 272.815 269.171C271.279 267.027 269.194 266.795 269.256 268.777C269.342 271.496 270.153 272.551 272.159 272.551ZM588.609 268.242C587.768 269.249 588.856 270.364 589.781 269.444C590.072 269.154 590.092 268.567 589.827 268.139C589.44 267.516 589.196 267.537 588.609 268.242ZM968.624 269.229C969.852 269.229 970.41 268.97 970.245 268.474C969.896 267.431 966.753 267.376 966.753 268.413C966.753 268.922 967.457 269.229 968.624 269.229ZM1280.01 268.928C1280.34 268.722 1280.62 268.434 1280.62 268.288C1280.62 268.141 1280.34 268.022 1280.01 268.022C1279.68 268.022 1279.4 268.31 1279.4 268.661C1279.4 269.012 1279.68 269.133 1280.01 268.928ZM964.325 270.438C964.659 270.438 964.931 270.03 964.931 269.532C964.931 269.034 964.659 268.626 964.325 268.626C963.991 268.626 963.718 269.034 963.718 269.532C963.718 270.03 963.991 270.438 964.325 270.438ZM951.505 271.167C950.805 270.509 950.816 270.299 951.581 269.817C952.996 268.928 954.611 269.131 954.611 270.2C954.611 270.794 954.274 271.042 953.74 270.838C953.261 270.654 952.749 270.83 952.602 271.226C952.4 271.772 952.133 271.757 951.505 271.167ZM1249.05 271.032C1249.86 270.503 1249.86 270.372 1249.05 269.843C1247.52 268.842 1246.06 269.661 1246.93 271.041C1247.39 271.794 1247.88 271.792 1249.05 271.032ZM627.008 271.944C626.649 272.873 625.572 272.622 625.572 271.609C625.572 271.297 625.973 271.041 626.464 271.041C627.005 271.041 627.219 271.396 627.008 271.944ZM1197.6 273.952C1198.48 273.828 1198.96 273.342 1198.96 272.601C1198.96 270.989 1197.66 270.721 1196.88 272.173C1195.95 273.898 1196.06 274.168 1197.6 273.952ZM435.706 274.052C436.257 274.063 436.271 273.839 435.793 272.601C435.363 271.485 434.587 271.364 433.995 272.316C433.606 272.943 434.679 274.03 435.706 274.052ZM440.502 272.823C440.764 273.601 441.596 273.741 441.67 273.019C441.696 272.778 441.388 272.472 440.988 272.34C440.587 272.206 440.369 272.424 440.502 272.823ZM617.588 276.125C617.272 274.981 617.145 273.829 617.308 273.566C617.472 273.302 618.573 273.199 619.754 273.337L621.903 273.586L620.551 274.729C619.283 275.799 619.263 275.924 620.25 276.686C621.223 277.44 621.189 277.551 619.765 278.196C618.108 278.946 617.268 279.098 617.822 278.549C618.012 278.36 617.906 277.27 617.588 276.125ZM634.452 275.99C634.81 275.759 635.051 274.96 634.991 274.212C634.931 273.463 635.109 272.853 635.387 272.853C636.067 272.853 636.013 275.351 635.309 276.458C634.998 276.947 634.532 277.136 634.273 276.878C634.014 276.621 634.095 276.221 634.452 275.99ZM613.66 275.269C612.774 275.269 612.55 274.534 613.228 273.859C614.149 272.943 616.043 273.413 615.251 274.363C614.836 274.861 614.119 275.269 613.66 275.269ZM631.036 274.363C630.701 274.567 630.428 274.447 630.428 274.096C630.428 273.745 630.701 273.457 631.036 273.457C631.369 273.457 631.643 273.577 631.643 273.724C631.643 273.87 631.369 274.157 631.036 274.363ZM625.268 275.269C624.728 275.269 624.455 274.996 624.662 274.664C624.867 274.333 625.141 274.06 625.268 274.06C625.396 274.06 625.668 274.333 625.875 274.664C626.082 274.996 625.809 275.269 625.268 275.269ZM687.381 274.473C687.819 274.647 688.342 274.626 688.544 274.425C688.745 274.225 688.388 274.083 687.748 274.108C687.041 274.137 686.896 274.281 687.381 274.473ZM609.716 275.872C609.383 275.872 609.277 275.6 609.484 275.269C609.691 274.936 610.133 274.664 610.466 274.664C610.801 274.664 610.905 274.936 610.698 275.269C610.492 275.6 610.049 275.872 609.716 275.872ZM431.656 278.339C433.608 280.486 437.253 279.014 435.706 276.703C435.456 276.329 434.363 275.832 433.277 275.598C430.825 275.069 429.98 276.498 431.656 278.339ZM1197.18 276.476C1197.7 276.476 1197.95 276.205 1197.75 275.872C1197.54 275.54 1197.12 275.269 1196.8 275.269C1196.49 275.269 1196.23 275.54 1196.23 275.872C1196.23 276.205 1196.65 276.476 1197.18 276.476ZM641.191 278.474C641.782 278.258 642.923 277.581 643.724 276.969C645.079 275.936 647.427 277.739 647.427 279.812C647.427 280.545 644.92 279.994 644.611 279.194C644.419 278.695 643.881 278.288 643.415 278.288C642.951 278.288 642.57 278.695 642.57 279.194C642.57 279.692 642.161 280.099 641.66 280.099C641.159 280.099 640.75 280.561 640.75 281.126C640.75 281.891 640.574 281.978 640.061 281.468C639.185 280.597 639.794 278.981 641.191 278.474ZM1022.81 277.483C1023.24 277.916 1024.43 277.153 1024.43 276.44C1024.43 276.128 1024.17 275.872 1023.85 275.872C1023.14 275.872 1022.37 277.05 1022.81 277.483ZM622.5 278.288C622.147 278.288 622.027 278.016 622.232 277.684C622.439 277.352 622.728 277.08 622.876 277.08C623.024 277.08 623.144 277.352 623.144 277.684C623.144 278.016 622.854 278.288 622.5 278.288ZM161.979 291.343C168.724 290.546 170.575 281.549 164.604 278.586C162.684 277.632 159.439 277.402 158.421 278.146C152.206 282.688 154.769 292.196 161.979 291.343ZM683.7 279.486C684.452 279.491 685.066 279.224 685.066 278.892C685.066 278.135 684.421 278.135 683.245 278.892C682.509 279.365 682.596 279.479 683.7 279.486ZM1041.76 280.704C1042.75 280.704 1042.79 280.587 1042.27 279.243C1041.85 278.157 1041.07 278 1040.51 278.892C1040.01 279.71 1040.69 280.704 1041.76 280.704ZM1188.81 281.579C1191.77 281.247 1192.25 280.739 1190.84 279.432C1189.52 278.208 1187.73 277.897 1187.73 278.892C1187.73 279.224 1187.34 279.495 1186.86 279.495C1185.85 279.495 1184.08 281.105 1184.08 282.024C1184.08 282.403 1184.64 282.485 1185.45 282.229C1186.21 281.994 1187.72 281.702 1188.81 281.579ZM964.142 281.971C965.015 282.839 966.753 281.951 966.753 280.639C966.753 279.892 966.325 279.495 965.521 279.495C964.131 279.495 963.248 281.082 964.142 281.971ZM1255.42 281.307C1255.92 281.307 1256.33 281.065 1256.33 280.768C1256.33 280.471 1255.92 280.072 1255.42 279.881C1254.86 279.67 1254.51 279.88 1254.51 280.42C1254.51 280.908 1254.92 281.307 1255.42 281.307ZM1058.3 282.636C1059.03 283.361 1060.85 282.872 1060.85 281.952C1060.85 281.621 1060.3 281.056 1059.63 280.698C1058.21 279.946 1057.15 281.494 1058.3 282.636ZM535.723 282.133C535.723 282.511 536.006 282.476 536.442 282.042C536.837 281.649 537.019 281.187 536.847 281.016C536.442 280.613 535.723 281.326 535.723 282.133ZM850.8 282.817C851.134 283.023 851.403 282.97 851.398 282.701C851.377 281.587 850.212 280.341 850.202 281.423C850.197 281.984 850.466 282.611 850.8 282.817ZM683.73 283.239C684.297 283.803 684.459 283.751 684.459 283.006C684.459 282.403 683.784 281.95 682.638 281.782C681.637 281.636 680.817 281.741 680.817 282.015C680.817 282.29 681.309 282.515 681.909 282.515C682.51 282.515 683.33 282.841 683.73 283.239ZM586.147 283.119C586.5 283.119 586.622 282.847 586.415 282.515C586.208 282.183 585.919 281.911 585.772 281.911C585.625 281.911 585.505 282.183 585.505 282.515C585.505 282.847 585.794 283.119 586.147 283.119ZM948.237 285.783C950.033 285.334 950.18 284.293 948.645 282.91C948.039 282.365 947.724 282.061 947.38 282.024C946.953 281.98 946.482 282.35 945.353 283.188C943.577 284.507 943.219 286.038 944.413 287.226C945.421 288.228 946.72 288.133 946.72 287.056C946.72 286.564 947.402 285.991 948.237 285.783ZM634.714 283.723C634.4 283.723 633.974 283.451 633.767 283.119C633.561 282.787 633.819 282.515 634.339 282.515C634.859 282.515 635.285 282.787 635.285 283.119C635.285 283.451 635.029 283.723 634.714 283.723ZM641.204 285.867C639.963 286.244 640.004 286.107 641.66 284.357L643.481 282.431L643.887 284.737C644.177 286.386 644.05 287.233 643.441 287.708C642.46 288.472 642.913 289.22 644.086 288.773C644.52 288.606 645.056 288.762 645.277 289.117C645.497 289.471 645.251 289.761 644.731 289.761C643.671 289.761 643.46 290.699 644.391 291.271C646.232 292.403 642.643 295.213 640.435 294.37C639.586 294.046 639.589 293.824 640.463 292.144C641.08 290.958 641.291 289.634 641.043 288.51C640.74 287.138 640.867 286.742 641.612 286.742C642.139 286.742 642.57 286.452 642.57 286.097C642.57 285.709 642.029 285.617 641.204 285.867ZM762.637 293.049C765.47 291.075 763.878 284.434 760.273 283.184C756.374 281.833 753.159 283.558 752.216 287.509C751.142 291.999 758.518 295.919 762.637 293.049ZM1033.23 284.93C1033.73 284.93 1034.14 284.688 1034.14 284.391C1034.14 284.094 1033.73 283.695 1033.23 283.504C1032.67 283.293 1032.32 283.504 1032.32 284.043C1032.32 284.531 1032.73 284.93 1033.23 284.93ZM647.143 288.434C646.588 288.985 645.626 287.712 645.027 285.633C644.681 284.435 644.686 283.833 645.038 284.049C645.35 284.241 645.606 284.809 645.606 285.311C645.606 285.814 646.028 286.645 646.546 287.159C647.062 287.674 647.331 288.247 647.143 288.434ZM673.532 285.535C673.198 285.535 672.924 285.263 672.924 284.93C672.924 284.599 673.198 284.327 673.532 284.327C673.865 284.327 674.139 284.599 674.139 284.93C674.139 285.263 673.865 285.535 673.532 285.535ZM919.856 287.235C921.056 287.098 921.525 286.704 921.525 285.836C921.525 284.968 921.056 284.574 919.856 284.438C918.409 284.272 918.187 284.458 918.187 285.836C918.187 287.215 918.409 287.401 919.856 287.235ZM961.253 286.139C961.568 286.139 961.993 285.866 962.2 285.535C962.407 285.203 962.149 284.93 961.629 284.93C961.109 284.93 960.682 285.203 960.682 285.535C960.682 285.866 960.939 286.139 961.253 286.139ZM653.498 286.742C653.164 286.742 652.89 286.471 652.89 286.139C652.89 285.806 653.164 285.535 653.498 285.535C653.831 285.535 654.105 285.806 654.105 286.139C654.105 286.471 653.831 286.742 653.498 286.742ZM1183.48 287.648C1183.82 287.854 1184.08 287.461 1184.08 286.778C1184.08 286.094 1183.82 285.535 1183.48 285.535C1183.15 285.535 1182.87 285.926 1182.87 286.404C1182.87 286.883 1183.15 287.443 1183.48 287.648ZM130.719 288.881C131.546 288.62 132.005 288.058 131.888 287.453C131.782 286.903 131.288 286.426 130.792 286.392C128.76 286.252 124.997 286.872 124.281 287.465C123.745 287.906 123.279 287.905 122.74 287.459C121.567 286.491 117.164 287.288 116.328 288.619C115.564 289.837 115.696 289.901 119.21 290.016C120.015 290.042 120.79 290.404 120.931 290.819C121.195 291.599 120.997 291.621 112.171 291.805C109.773 291.854 107.613 292.091 107.37 292.333C107.128 292.573 106.581 292.482 106.154 292.13C105.669 291.729 104.966 291.691 104.277 292.03C103.671 292.328 102.239 292.627 101.093 292.694C99.9481 292.762 97.2284 293.067 95.0508 293.374C92.8726 293.681 90.8049 293.723 90.4552 293.469C89.6903 292.91 86.3671 293.011 85.3721 293.622C84.3734 294.236 83.4313 293.521 83.841 292.459C84.2508 291.397 82.7859 291.263 81.7715 292.273C81.2397 292.802 80.8304 292.774 80.0862 292.16C79.2691 291.486 79.0195 291.484 78.6043 292.153C77.7816 293.477 76.0054 292.406 76.4922 290.881C76.8243 289.841 76.7108 289.658 75.927 289.973C75.388 290.188 74.4932 290.547 73.9382 290.77C73.1375 291.09 73.0003 290.908 73.2711 289.877C73.5977 288.635 73.4326 288.586 69.2704 288.685C66.8833 288.743 65.4082 288.892 65.9921 289.018C66.5768 289.143 67.0545 289.637 67.0545 290.115C67.0545 290.79 67.5955 290.897 69.4829 290.597C71.873 290.217 72.9354 291.053 71.0005 291.791C70.4997 291.982 70.0857 291.808 70.0809 291.403C70.0735 290.855 69.9448 290.866 69.577 291.442C69.3044 291.87 68.6275 292.045 68.0683 291.831C66.5913 291.267 66.828 292.359 68.5273 293.947C70.1106 295.426 71.3041 295.198 71.3041 293.418C71.3041 292.649 71.8657 292.231 73.1503 292.045C75.4718 291.706 75.4474 293.422 73.1223 294.03C71.7121 294.399 71.6914 294.456 72.8218 294.855C73.4896 295.092 74.5102 295.536 75.0899 295.844C75.6697 296.152 76.7703 296.405 77.5353 296.405C78.3002 296.405 79.4973 296.803 80.1954 297.288C80.8937 297.775 81.5979 298.041 81.7599 297.88C82.2267 297.416 88.1889 298.777 93.1591 300.483C96.3318 301.573 99.6106 302.161 103.974 302.422C107.418 302.63 110.423 303.078 110.652 303.42C110.881 303.762 111.536 304.213 112.109 304.423C113.425 304.905 112.47 308.166 110.691 309.272C108.103 310.879 109.289 311.878 112.302 310.626C113.632 310.073 114.407 309.987 114.407 310.389C114.407 310.764 115.016 310.876 115.877 310.662C116.685 310.459 117.784 310.461 118.321 310.667C120.801 311.613 115.514 313.705 111.372 313.414C110.367 313.344 109.485 313.819 108.763 314.82C107.779 316.185 107.77 316.332 108.67 316.332C109.218 316.332 110.416 316.863 111.333 317.513C113.092 318.759 114.884 318.781 120.781 317.629C126.081 316.594 127.758 315.116 128.37 310.941C128.746 308.379 131.913 307.451 141.282 307.158C145.959 307.011 147.007 306.824 146.248 306.272C145.027 305.382 146.798 302.936 148.26 303.494C149.011 303.78 149.034 303.616 148.41 302.453C148.001 301.694 147.491 301.313 147.276 301.607C147.062 301.901 144.291 302.197 141.119 302.267C136.526 302.368 135.538 302.244 136.266 301.664C138.614 299.788 137.56 297.599 134.399 297.78C131.524 297.944 131.459 297.91 131.809 296.421C132.323 294.242 132.908 293.796 135.164 293.859C136.261 293.891 137.571 293.561 138.076 293.125C138.58 292.691 139.404 292.16 139.905 291.948C140.405 291.736 139.796 291.682 138.549 291.83C137.304 291.977 136.127 291.844 135.933 291.533C135.741 291.223 134.695 290.97 133.611 290.97C130.83 290.97 128.786 289.491 130.719 288.881ZM304.117 289.664C304.339 289.442 304.058 288.56 303.492 287.7C302.478 286.16 301.389 285.629 301.389 286.675C301.389 287.576 303.686 290.09 304.117 289.664ZM651.677 287.949C651.342 287.949 651.069 287.678 651.069 287.346C651.069 287.013 651.342 286.742 651.677 286.742C652.01 286.742 652.284 287.013 652.284 287.346C652.284 287.678 652.01 287.949 651.677 287.949ZM657.503 287.251C657.071 287.946 658.231 288.878 658.81 288.302C659.016 288.097 658.892 287.639 658.534 287.284C658.099 286.85 657.759 286.839 657.503 287.251ZM1187.35 288.078C1187.55 287.745 1187.3 287.308 1186.76 287.108C1185.37 286.577 1184.68 286.942 1184.71 288.202C1184.71 288.561 1184.98 288.449 1185.31 287.949C1185.81 287.199 1186 287.185 1186.44 287.864C1186.76 288.367 1187.12 288.45 1187.35 288.078ZM1284.57 287.949C1285.07 287.949 1285.48 287.678 1285.48 287.346C1285.48 287.013 1285.07 286.742 1284.57 286.742C1284.07 286.742 1283.65 287.013 1283.65 287.346C1283.65 287.678 1284.07 287.949 1284.57 287.949ZM350.394 290.132C350.629 289.896 350.53 289.241 350.173 288.675C349.461 287.553 347.528 286.921 347.528 287.813C347.528 288.679 349.913 290.61 350.394 290.132ZM609.713 291.829C610.297 292.188 611.846 290.585 612.389 289.057C612.604 288.452 612.371 287.906 611.806 287.69C611.169 287.447 610.972 287.605 611.193 288.178C611.373 288.644 610.996 289.584 610.356 290.267C609.716 290.951 609.427 291.653 609.713 291.829ZM64.744 290.597C63.9833 290.56 62.74 289.947 61.9811 289.239C61.2229 288.53 60.0731 287.968 59.4271 287.991C58.3641 288.028 58.3811 288.094 59.6044 288.681C60.3481 289.038 61.11 289.81 61.2969 290.396C61.8913 292.259 66.6557 293.399 66.3066 291.593C66.2083 291.084 65.5053 290.636 64.744 290.597ZM84.0529 290.365C84.3867 290.365 84.66 289.958 84.66 289.46C84.66 288.961 84.3867 288.554 84.0529 288.554C83.719 288.554 83.4458 288.961 83.4458 289.46C83.4458 289.958 83.719 290.365 84.0529 290.365ZM648.034 290.667C647.701 290.873 647.427 290.616 647.427 290.099C647.427 289.581 647.701 289.158 648.034 289.158C648.368 289.158 648.641 289.413 648.641 289.726C648.641 290.038 648.368 290.462 648.034 290.667ZM1127.71 291.113C1128.47 292.522 1129.83 291.623 1129.24 290.104C1129.04 289.584 1128.64 289.158 1128.35 289.158C1127.33 289.158 1127.08 289.937 1127.71 291.113ZM78.9285 290.97C79.0761 290.97 79.1962 290.697 79.1962 290.365C79.1962 290.034 78.9066 289.761 78.5533 289.761C78.1999 289.761 78.0791 290.034 78.2856 290.365C78.492 290.697 78.781 290.97 78.9285 290.97ZM304.98 292.447C305.296 292.642 305.715 292.543 305.909 292.228C306.105 291.914 306.006 291.498 305.69 291.303C305.374 291.109 304.956 291.208 304.76 291.522C304.565 291.837 304.664 292.253 304.98 292.447ZM724.866 292.177C725.013 292.177 725.134 291.906 725.134 291.573C725.134 291.241 724.844 290.97 724.491 290.97C724.137 290.97 724.016 291.241 724.223 291.573C724.43 291.906 724.719 292.177 724.866 292.177ZM1113.97 292.781C1114.47 292.781 1114.89 292.525 1114.89 292.213C1114.89 291.451 1113.93 290.906 1113.45 291.389C1112.76 292.068 1113.03 292.781 1113.97 292.781ZM1173.73 295.196C1174.59 295.196 1176.19 293.403 1176.19 292.436C1176.19 291.255 1175.37 291.353 1174.16 292.677C1173.06 293.887 1172.84 295.196 1173.73 295.196ZM1298.22 293.384C1298.56 293.384 1298.82 293.113 1298.82 292.781C1298.82 292.448 1298.56 292.177 1298.22 292.177C1297.89 292.177 1297.61 292.448 1297.61 292.781C1297.61 293.113 1297.89 293.384 1298.22 293.384ZM54.9129 293.989C55.2468 293.989 55.5199 293.717 55.5199 293.384C55.5199 293.053 55.2468 292.781 54.9129 292.781C54.5789 292.781 54.3058 293.053 54.3058 293.384C54.3058 293.717 54.5789 293.989 54.9129 293.989ZM104.096 294.285C103.757 294.493 103.48 294.24 103.48 293.722C103.48 292.662 103.844 292.506 104.364 293.343C104.557 293.652 104.436 294.076 104.096 294.285ZM618.894 294.23C617.368 294.079 617.073 293.955 617.073 293.468C617.073 293.181 617.623 292.976 618.295 293.014C618.966 293.052 619.513 293.354 619.509 293.687C619.504 294.019 619.227 294.264 618.894 294.23ZM648.983 294.769C649.212 295.365 649.551 295.7 649.738 295.514C649.925 295.329 649.739 294.842 649.323 294.431C648.724 293.84 648.654 293.909 648.983 294.769ZM967.5 294.706C967.874 295.825 969.181 296.011 969.181 294.945C969.181 294.418 968.749 293.989 968.221 293.989C967.692 293.989 967.367 294.311 967.5 294.706ZM652.939 295.549C652.968 296.252 653.111 296.395 653.306 295.914C653.48 295.478 653.459 294.956 653.257 294.756C653.056 294.556 652.912 294.912 652.939 295.549ZM659.301 295.8C659.821 295.8 660.079 295.529 659.872 295.196C659.666 294.864 659.24 294.593 658.926 294.593C658.611 294.593 658.354 294.864 658.354 295.196C658.354 295.529 658.781 295.8 659.301 295.8ZM1144.32 295.8C1144.82 295.8 1145.23 295.529 1145.23 295.196C1145.23 294.864 1144.82 294.593 1144.32 294.593C1143.82 294.593 1143.41 294.864 1143.41 295.196C1143.41 295.529 1143.82 295.8 1144.32 295.8ZM937.006 296.405C937.34 296.405 937.613 296.132 937.613 295.8C937.613 295.469 937.34 295.196 937.006 295.196C936.672 295.196 936.398 295.469 936.398 295.8C936.398 296.132 936.672 296.405 937.006 296.405ZM568.241 296.581C568.469 297.176 568.809 297.512 568.996 297.326C569.182 297.141 568.997 296.652 568.581 296.243C567.981 295.651 567.912 295.721 568.241 296.581ZM645.035 297.612C645.349 297.612 645.606 297.204 645.606 296.706C645.606 295.772 644.889 295.506 644.206 296.187C643.721 296.669 644.269 297.612 645.035 297.612ZM861.04 297.52C862.59 299.297 863.194 299.16 861.975 297.31C861.429 296.48 860.74 295.8 860.444 295.8C859.675 295.8 859.764 296.056 861.04 297.52ZM657.318 298.024C657.509 297.53 657.5 296.964 657.301 296.765C656.207 295.679 655.563 296.711 656.457 298.115C656.876 298.772 657.035 298.755 657.318 298.024ZM981.778 298.705C982.363 298.592 982.841 298.101 982.841 297.612C982.841 297.123 982.363 296.631 981.778 296.519C981.033 296.377 980.716 296.703 980.716 297.612C980.716 298.521 981.033 298.848 981.778 298.705ZM1180.26 298.402C1180.56 298.588 1181.16 298.52 1181.61 298.251C1182.04 297.983 1182.15 297.611 1181.85 297.425C1181.55 297.239 1180.94 297.307 1180.51 297.576C1180.07 297.845 1179.96 298.217 1180.26 298.402ZM630.465 298.82C629.777 298.82 629.215 298.548 629.215 298.216C629.215 297.884 629.608 297.612 630.089 297.612C630.57 297.612 631.133 297.884 631.339 298.216C631.546 298.548 631.151 298.82 630.465 298.82ZM646.706 298.628C647.144 298.802 647.668 298.781 647.869 298.58C648.071 298.38 647.713 298.238 647.073 298.263C646.366 298.292 646.221 298.436 646.706 298.628ZM830.16 300.027C830.493 300.027 830.766 299.772 830.766 299.459C830.766 299.146 830.493 298.724 830.16 298.518C829.825 298.312 829.552 298.569 829.552 299.086C829.552 299.604 829.825 300.027 830.16 300.027ZM654.081 300.613C654.392 301.102 654.829 301.319 655.055 301.096C655.279 300.871 655.022 300.249 654.48 299.711C653.413 298.649 653.175 299.187 654.081 300.613ZM995.987 299.688C996.223 300.82 997.411 301.019 997.411 299.926C997.411 299.539 997.044 299.1 996.594 298.951C996.083 298.782 995.856 299.058 995.987 299.688ZM1095.69 301.235C1096.61 301.235 1097.42 299.768 1096.83 299.18C1096.03 298.386 1094.85 298.89 1094.85 300.027C1094.85 300.692 1095.23 301.235 1095.69 301.235ZM621.441 301.649C618.87 302.155 618.466 302.104 618.524 301.283C618.562 300.737 618.027 300.25 617.272 300.143C614.971 299.816 616.294 302.185 619.099 303.415C620.489 304.025 621.793 304.759 621.999 305.047C622.205 305.335 623.114 304.834 624.019 303.933C626.275 301.688 625.359 300.878 621.441 301.649ZM641.406 301.286C642.8 302.671 643.416 302.555 642.823 301.02C642.613 300.473 641.923 300.027 641.291 300.027C640.201 300.027 640.206 300.092 641.406 301.286ZM503.231 303.864C504.057 304.18 504.762 303.087 504.762 301.488C504.762 300.144 503.811 300.484 503.075 302.091C502.553 303.229 502.587 303.618 503.231 303.864ZM653.468 304.255C652.671 304.255 652.265 303.957 652.435 303.5C652.589 303.085 652.208 302.222 651.589 301.583C650.139 300.086 649.904 302.057 651.306 303.963C651.769 304.594 652.001 305.492 651.82 305.96C651.556 306.648 651.734 306.682 652.765 306.134C654.638 305.136 654.968 304.255 653.468 304.255ZM156.332 303.65C156.685 303.65 156.805 303.379 156.6 303.047C156.393 302.714 156.104 302.443 155.956 302.443C155.809 302.443 155.688 302.714 155.688 303.047C155.688 303.379 155.979 303.65 156.332 303.65ZM475.677 306.67C477.174 306.67 477.823 305.137 476.83 303.945C475.816 302.731 475.183 302.815 474.401 304.267C473.598 305.759 474.082 306.67 475.677 306.67ZM767.933 306.67C769.738 306.67 770.529 305.244 769.444 303.945C769.033 303.451 768.352 303.047 767.933 303.047C766.796 303.047 765.622 304.713 766.025 305.757C766.219 306.259 767.077 306.67 767.933 306.67ZM625.902 306.462C627.17 306.946 627.584 306.409 627.104 304.904C626.884 304.215 626.313 303.65 625.835 303.65C624.664 303.65 624.721 306.012 625.902 306.462ZM630.125 304.473C630.626 304.664 631.036 304.557 631.036 304.236C631.036 303.914 630.626 303.65 630.125 303.65C629.625 303.65 629.215 303.758 629.215 303.888C629.215 304.018 629.625 304.282 630.125 304.473ZM149.921 305.462C150.422 305.462 150.832 305.191 150.832 304.859C150.832 304.526 150.422 304.255 149.921 304.255C149.421 304.255 149.011 304.526 149.011 304.859C149.011 305.191 149.421 305.462 149.921 305.462ZM619.564 306.933C619.863 306.75 620.108 306.207 620.108 305.729C620.108 304.839 619.385 304.572 618.734 305.22C618.186 305.764 618.94 307.317 619.564 306.933ZM656.034 305.865C656.329 307.38 657.748 307.588 657.748 306.116C657.748 305.375 657.355 304.859 656.792 304.859C656.226 304.859 655.917 305.269 656.034 305.865ZM982.841 307.274C983.346 307.274 983.752 306.737 983.752 306.066C983.752 304.863 983.104 304.495 982.335 305.261C981.596 305.997 981.917 307.274 982.841 307.274ZM756.702 306.67C757.035 306.67 757.309 306.398 757.309 306.066C757.309 305.734 757.035 305.462 756.702 305.462C756.369 305.462 756.095 305.734 756.095 306.066C756.095 306.398 756.369 306.67 756.702 306.67ZM628.035 308.482C628.389 308.482 628.51 308.21 628.303 307.878C628.098 307.546 627.809 307.274 627.661 307.274C627.513 307.274 627.393 307.546 627.393 307.878C627.393 308.21 627.683 308.482 628.035 308.482ZM639.463 308.482C639.797 308.482 640.24 308.21 640.445 307.878C640.652 307.546 640.547 307.274 640.214 307.274C639.879 307.274 639.437 307.546 639.232 307.878C639.025 308.21 639.129 308.482 639.463 308.482ZM928.442 309.085C928.74 309.085 929.141 308.678 929.334 308.18C929.546 307.628 929.334 307.274 928.792 307.274C928.301 307.274 927.899 307.681 927.899 308.18C927.899 308.678 928.144 309.085 928.442 309.085ZM1287.48 315.365C1288.19 316.34 1288.34 316.352 1289.07 315.488C1290.04 314.312 1288.69 310.321 1287.44 310.74C1286.46 311.077 1286.47 313.996 1287.48 315.365ZM322.333 316.936C323.589 316.936 323.461 316.4 321.555 313.663C319.924 311.322 318.387 310.227 318.387 311.404C318.387 311.739 319.07 312.82 319.905 313.806C320.739 314.794 321.423 315.901 321.423 316.269C321.423 316.636 321.833 316.936 322.333 316.936ZM414.904 314.212C415.243 314.421 415.521 314.168 415.521 313.651C415.521 312.589 415.157 312.434 414.636 313.272C414.444 313.581 414.564 314.003 414.904 314.212ZM947.678 317.304C948.844 316.858 948.775 314.739 947.58 314.283C945.658 313.548 944.291 313.89 944.291 315.104C944.291 316.447 946.374 317.801 947.678 317.304ZM260.392 315.758C259.815 316.688 260.605 317.286 261.385 316.511C261.821 316.078 261.831 315.74 261.416 315.485C261.076 315.276 260.615 315.399 260.392 315.758ZM267.999 318.748C268.333 318.748 268.606 318.085 268.606 317.274C268.606 316.462 268.333 315.632 267.999 315.426C267.645 315.208 267.393 315.823 267.393 316.9C267.393 317.916 267.666 318.748 267.999 318.748ZM736.841 322.198C738.132 323.481 739.842 322.746 739.594 321.014C739.47 320.138 738.913 319.585 738.032 319.46C736.291 319.215 735.552 320.915 736.841 322.198ZM1065.44 324.048C1067.39 326.82 1070.98 324.841 1069.32 321.909C1068.28 320.075 1067.69 319.849 1065.86 320.581C1064.25 321.219 1064.14 322.198 1065.44 324.048ZM639.329 324.183C639.108 323.685 638.76 322.801 638.554 322.22C638.348 321.639 637.801 321.163 637.339 321.163C636.093 321.163 636.329 321.889 638.125 323.579C639.008 324.409 639.55 324.681 639.329 324.183ZM995.664 329.014C996.231 329.014 996.501 328.258 996.501 326.672C996.501 323.765 995.254 322.49 993.812 323.924C992.363 325.364 993.692 329.014 995.664 329.014ZM163.364 329.617C166.398 329.617 167.561 327.608 165.856 325.312C164.301 323.221 162.197 323.055 160.884 324.921C159.012 327.579 160.089 329.617 163.364 329.617ZM602.503 324.786C602.503 325.914 602.665 326.075 603.231 325.511C603.798 324.947 603.798 324.625 603.231 324.061C602.665 323.499 602.503 323.659 602.503 324.786ZM1078 326.665C1080.25 326.433 1080.39 326.341 1079.06 325.955C1077.01 325.353 1076.3 325.318 1075.83 325.793C1074.94 326.678 1075.54 326.921 1078 326.665ZM533.598 332.939C535.605 332.939 536.357 331.406 535.092 329.891C534.69 329.408 534.017 329.014 533.598 329.014C532.475 329.014 531.342 330.608 531.584 331.853C531.73 332.608 532.345 332.939 533.598 332.939ZM1164.73 343.218C1166.77 343.611 1166.79 336.487 1165.53 333.874C1163.53 329.72 1161.96 330.074 1162.73 334.509C1162.78 334.818 1162.85 335.259 1162.93 335.781C1163.34 338.412 1164.08 343.093 1164.73 343.218ZM1189.17 344.886C1190.59 344.886 1190.71 337.153 1189.44 335.152C1188.15 333.139 1186.52 332.592 1186.52 334.176C1186.52 335.688 1188.27 344.886 1189.17 344.886Z" fill="white"/>
</svg>
