<svg width="1440" height="641" viewBox="0 0 1440 641" fill="none" xmlns="http://www.w3.org/2000/svg">
<mask id="mask0_2225_1057" style="mask-type:alpha" maskUnits="userSpaceOnUse" x="0" y="0" width="1440" height="641">
<rect width="1440" height="641" fill="#D9D9D9"/>
</mask>
<g mask="url(#mask0_2225_1057)">
<path d="M-341.498 367.25C-341.498 367.25 -117.917 -359.15 547.644 298.437C1213.29 956.03 653.936 45.6763 1295.31 562.775C1936.6 1079.87 2422.31 967.77 2572.12 834.72" stroke="#BBE1FA" stroke-width="1.17" stroke-miterlimit="10"/>
<path d="M-341.47 370.491C-341.47 370.491 -289.965 204.806 -163.51 109.07C-28.5505 6.35623 188.718 -26.6013 519.8 281.854C530.537 291.876 541.509 302.184 552.466 312.877C1217.71 963.001 661.931 53.97 1301.01 569.948C1318.84 584.386 1336.58 598.354 1354.27 611.896C1968.07 1082.28 2431.71 975.235 2573.29 834.954" stroke="#BBE1FA" stroke-width="1.17" stroke-miterlimit="10"/>
<path d="M-341.441 373.731C-341.441 373.731 -288.944 206.572 -160.566 116.596C-23.7644 19.7525 193.06 -8.95541 524.35 296.545C535.198 306.536 546.251 316.734 557.262 327.354C1222.08 970.045 669.899 62.3002 1306.68 577.158C1324.57 591.639 1342.34 605.686 1360 619.38C1972.69 1090.92 2436.81 986.378 2574.34 835.218" stroke="#BBE1FA" stroke-width="1.17" stroke-miterlimit="10"/>
<path d="M-341.386 376.936C-341.386 376.936 -287.459 208.678 -157.564 124.165C-18.4795 33.6841 197.545 8.73896 528.957 311.278C539.832 321.233 551.051 331.327 562.116 341.873C1226.44 977.09 677.898 70.71 1312.44 584.375C1330.36 598.934 1348.13 613.098 1365.91 626.877C1976.56 1100.71 2442.09 997.532 2575.57 835.494" stroke="#BBE1FA" stroke-width="1.17" stroke-miterlimit="10"/>
<path d="M-341.415 380.134C-341.415 380.134 -286.38 210.486 -154.62 131.691C-13.5467 47.2445 201.941 26.3112 533.448 325.927C544.435 335.851 555.761 345.797 566.853 356.307C1230.67 984.086 685.807 78.9977 1318.05 591.542C1335.95 606.138 1353.8 620.424 1371.65 634.361C1980.89 1109.75 2447.25 1008.72 2576.59 835.795" stroke="#BBE1FA" stroke-width="1.17" stroke-miterlimit="10"/>
<path d="M-341.36 383.338C-341.36 383.338 -285.157 212.343 -151.676 139.217C-8.64035 60.842 206.453 43.969 537.997 340.618C549.011 350.505 560.503 360.348 571.649 370.784C1234.81 991.077 693.717 87.2859 1323.75 598.716C1341.7 613.355 1359.56 627.756 1377.49 641.815C1985.29 1118.69 2452.46 1019.83 2577.82 836.071" stroke="#BBE1FA" stroke-width="1.17" stroke-miterlimit="10"/>
<path d="M-341.331 386.579C-341.331 386.579 -284.047 214.23 -148.674 146.785C-3.61857 74.524 210.964 61.6262 542.546 355.309C553.672 365.165 565.245 374.897 576.445 385.26C1238.92 998.103 702.501 94.7461 1329.48 605.968C1347.49 620.65 1365.35 635.167 1383.29 649.342C1989.73 1127.7 2457.59 1031.05 2578.93 836.378" stroke="#BBE1FA" stroke-width="1.17" stroke-miterlimit="10"/>
<path d="M-341.276 389.783C-341.276 389.783 -282.825 216.087 -145.703 154.275C1.31443 88.0846 215.53 79.2103 547.123 369.964C558.302 379.746 570.041 389.374 581.294 399.663C1243.03 1005.01 710.604 102.893 1335.2 613.105C1353.24 627.866 1371.14 642.462 1389.16 656.759C1994.16 1136.6 2462.89 1042.17 2580.12 836.575" stroke="#BBE1FA" stroke-width="1.17" stroke-miterlimit="10"/>
<path d="M-341.305 392.981C-341.305 392.981 -281.773 217.932 -142.785 161.838C6.19375 101.719 220.042 96.868 551.618 384.728C562.882 394.517 574.729 403.998 586.036 414.213C1247 1012.11 718.683 111.193 1340.84 620.352C1358.94 635.155 1376.82 649.904 1394.93 664.323C1998.51 1145.61 2468.03 1053.39 2581.2 836.919" stroke="#BBE1FA" stroke-width="1.17" stroke-miterlimit="10"/>
<path d="M-341.25 396.185C-341.25 396.185 -280.636 219.783 -139.757 169.369C11.1844 115.321 224.665 114.494 556.194 399.382C567.57 409.14 579.497 418.511 590.859 428.653C1251 1019.05 726.759 119.376 1346.54 627.526C1364.67 642.408 1382.58 657.236 1400.78 671.776C2003 1154.56 2473.24 1064.5 2582.34 837.188" stroke="#BBE1FA" stroke-width="1.17" stroke-miterlimit="10"/>
<path d="M-341.221 399.426C-341.221 399.426 -279.526 221.671 -136.812 176.896C16.0636 128.956 229.23 132.078 560.743 414.074C572.146 423.795 584.239 433.061 595.654 443.129C1254.8 1026.02 734.807 127.596 1352.24 634.699C1370.37 649.582 1388.34 664.568 1406.54 679.224C2007.37 1163.41 2478.43 1075.65 2583.42 837.416" stroke="#BBE1FA" stroke-width="1.17" stroke-miterlimit="10"/>
<path d="M-341.166 402.629C-341.166 402.629 -278.416 223.558 -133.81 184.464C20.9697 142.553 233.912 149.747 565.35 428.807C576.865 438.497 589.066 447.616 600.508 457.648C1258.71 1033.07 742.914 135.859 1357.97 641.952C1376.13 656.913 1394.13 671.979 1412.42 686.757C2011.83 1172.39 2483.67 1086.84 2584.62 837.729" stroke="#BBE1FA" stroke-width="1.17" stroke-miterlimit="10"/>
<path d="M-341.195 405.828C-341.195 405.828 -277.305 225.446 -130.866 191.99C25.849 156.187 238.562 167.337 569.841 443.456C581.468 453.115 593.75 462.124 605.246 472.083C1262.37 1039.99 750.932 144 1363.64 649.162C1381.86 664.166 1399.86 679.348 1418.22 694.284C2016.24 1181.33 2488.81 1098.07 2585.73 838.036" stroke="#BBE1FA" stroke-width="1.17" stroke-miterlimit="10"/>
<path d="M-341.139 409.032C-341.139 409.032 -276.253 227.291 -127.922 199.516C30.6701 169.778 243.271 184.969 574.391 458.147C586.044 467.769 598.491 476.674 610.099 486.602C1266.11 1047.03 759.096 152.305 1369.4 656.378C1387.65 671.462 1405.68 686.723 1424.13 701.781C2020.84 1190.24 2494.14 1109.26 2586.95 838.312" stroke="#BBE1FA" stroke-width="1.17" stroke-miterlimit="10"/>
<path d="M-341.111 412.273C-341.111 412.273 -275.227 229.173 -124.92 207.085C35.5225 183.449 248.006 202.565 578.94 472.838C590.705 482.429 603.233 491.224 614.922 501.041C1269.74 1053.99 767.145 160.525 1375.09 663.552C1393.4 678.678 1411.44 694.054 1429.89 709.228C2025.21 1199.1 2499.27 1120.37 2588.01 838.576" stroke="#BBE1FA" stroke-width="1.17" stroke-miterlimit="10"/>
<path d="M-341.082 415.513C-341.082 415.513 -274.144 231.098 -121.976 214.611C40.3436 197.04 252.741 220.161 583.489 487.529C595.339 497.126 608.002 505.737 619.718 515.518C1273.26 1060.97 775.193 168.745 1380.79 670.725C1399.07 685.888 1417.2 701.386 1435.74 716.682C2029.7 1207.92 2504.48 1131.48 2589.23 838.853" stroke="#BBE1FA" stroke-width="1.17" stroke-miterlimit="10"/>
<path d="M-341.085 418.675C-341.085 418.675 -273.15 232.901 -119.031 222.137C45.138 210.669 257.477 237.756 588.038 502.221C599.943 511.744 612.717 520.324 624.514 529.995C1276.75 1068 783.242 176.966 1386.46 677.936C1404.8 693.141 1422.93 708.755 1441.53 724.209C2034.16 1216.79 2509.7 1142.71 2590.34 839.16" stroke="#BBE1FA" stroke-width="1.17" stroke-miterlimit="10"/>
<path d="M-341.056 421.915C-341.056 421.915 -272.124 234.782 -116.087 229.663C49.9593 224.26 262.239 255.315 592.53 516.869C604.546 526.362 617.428 534.795 629.251 544.429C1280.1 1074.97 791.206 185.18 1392.07 685.103C1410.45 700.388 1428.6 716.081 1447.3 731.657C2038.56 1225.61 2514.8 1153.85 2591.42 839.387" stroke="#BBE1FA" stroke-width="1.17" stroke-miterlimit="10"/>
<path d="M-341.001 425.12C-341.001 425.12 -271.13 236.585 -113.059 237.195C54.7802 237.852 267.113 272.843 597.163 531.566C609.264 541.064 622.254 549.351 634.132 558.911C1283.48 1082.03 799.397 193.449 1397.86 692.283C1416.26 707.646 1434.45 723.419 1453.15 739.111C2043.07 1234.4 2520.08 1165.01 2592.56 839.657" stroke="#BBE1FA" stroke-width="1.17" stroke-miterlimit="10"/>
<path d="M-340.972 428.36C-340.972 428.36 -270.132 238.504 -110.083 244.8C59.5744 251.48 271.991 290.487 601.685 546.294C613.84 555.719 626.911 563.895 638.9 573.424C1286.75 1089.11 807.391 201.742 1403.56 699.572C1422.02 714.978 1440.21 730.867 1459 746.68C2047.59 1243.3 2525.29 1176.23 2593.73 840.007" stroke="#BBE1FA" stroke-width="1.17" stroke-miterlimit="10"/>
<path d="M-340.975 431.522C-340.975 431.522 -269.196 240.264 -107.17 252.247C64.2219 264.944 276.749 307.93 606.177 560.943C618.444 570.336 631.622 578.366 643.638 587.858C1289.9 1096.11 815.355 209.957 1409.2 706.703C1427.63 722.146 1445.92 738.156 1464.76 754.128C2052.01 1252.08 2530.42 1187.34 2594.81 840.234" stroke="#BBE1FA" stroke-width="1.17" stroke-miterlimit="10"/>
<path d="M-340.946 434.762C-340.946 434.762 -268.286 242.061 -104.168 259.815C68.9581 278.529 281.681 325.5 610.784 575.676C623.135 585.076 636.422 592.958 648.518 602.34C1293.17 1103.2 823.461 218.219 1414.95 713.919C1433.44 729.404 1451.73 745.531 1470.67 761.624C2056.58 1260.92 2535.75 1198.54 2596.03 840.51" stroke="#BBE1FA" stroke-width="1.17" stroke-miterlimit="10"/>
<path d="M-340.891 437.966C-340.891 437.966 -267.319 243.9 -101.224 267.341C73.6635 292.036 286.555 343.028 615.275 590.325C627.738 599.694 641.105 607.466 653.256 616.775C1296.21 1110.23 831.425 226.434 1420.59 721.05C1439.12 736.614 1457.43 752.82 1476.37 769.03C2060.98 1269.62 2540.83 1209.6 2597.06 840.696" stroke="#BBE1FA" stroke-width="1.17" stroke-miterlimit="10"/>
<path d="M-340.862 441.207C-340.862 441.207 -266.409 245.697 -98.2219 274.91C78.4 305.622 291.572 360.604 619.882 605.058C632.4 614.354 645.906 622.058 658.11 631.294C1299.25 1117.38 839.505 234.733 1426.32 728.303C1444.9 743.91 1463.23 760.232 1482.25 776.563C2065.55 1278.45 2546.04 1220.83 2598.23 841.045" stroke="#BBE1FA" stroke-width="1.17" stroke-miterlimit="10"/>
<path d="M-340.865 444.369C-340.865 444.369 -265.531 247.415 -95.278 282.436C83.1051 319.128 296.473 378.095 624.431 619.75C637.06 629.014 650.589 636.566 662.906 645.77C1302.24 1124.48 847.584 243.033 1432.05 735.556C1450.66 751.242 1469.02 767.643 1488.11 784.132C2070.12 1287.28 2551.32 1232.1 2599.4 841.394" stroke="#BBE1FA" stroke-width="1.17" stroke-miterlimit="10"/>
<path d="M-340.836 447.609C-340.836 447.609 -264.621 249.212 -92.3335 289.962C87.7529 332.592 301.374 395.586 628.923 634.398C641.61 643.705 655.273 651.073 667.644 660.204C1305.05 1131.57 855.548 251.247 1437.69 742.687C1456.36 758.415 1474.72 774.932 1493.9 791.544C2074.6 1295.99 2556.48 1243.17 2600.56 841.628" stroke="#BBE1FA" stroke-width="1.17" stroke-miterlimit="10"/>
<path d="M-340.78 450.813C-340.78 450.813 -263.716 250.893 -89.3046 297.494C92.485 346.062 306.445 413.089 633.557 649.095C646.382 658.334 660.1 665.629 672.524 674.687C1307.98 1138.75 863.628 259.547 1443.45 749.903C1462.09 765.668 1480.54 782.307 1499.78 799.077C2079.2 1304.79 2561.72 1254.36 2601.76 841.941" stroke="#BBE1FA" stroke-width="1.17" stroke-miterlimit="10"/>
<path d="M-340.752 454.054C-340.752 454.054 -262.806 252.69 -86.3875 305.057C97.1054 359.563 311.431 430.586 638.021 663.781C650.874 672.983 664.784 680.137 677.235 689.158C1310.66 1145.91 871.565 267.798 1449.03 757.107C1467.71 772.952 1486.18 789.67 1505.46 806.519C2083.65 1313.54 2566.82 1265.5 2602.73 842.199" stroke="#BBE1FA" stroke-width="1.17" stroke-miterlimit="10"/>
<path d="M-340.781 457.252C-340.781 457.252 -261.986 254.365 -83.4433 312.583C101.722 372.948 316.444 448.046 642.57 678.472C655.535 687.643 669.467 694.644 682.057 703.597C1313.4 1153.12 879.586 276.055 1454.76 764.244C1473.49 780.131 1491.97 796.965 1511.3 813.972C2088.22 1322.25 2572.04 1276.62 2603.89 842.433" stroke="#BBE1FA" stroke-width="1.17" stroke-miterlimit="10"/>
<path d="M-340.726 460.456C-340.726 460.456 -261.08 256.046 -80.4143 320.114C106.454 386.417 321.541 465.512 647.204 693.169C660.28 702.309 674.294 709.2 686.938 718.08C1316.19 1160.36 887.693 284.317 1460.51 771.46C1479.27 787.426 1497.81 804.303 1517.21 821.469C2092.84 1331.01 2577.28 1287.81 2605.11 842.709" stroke="#BBE1FA" stroke-width="1.17" stroke-miterlimit="10"/>
<path d="M-340.697 463.697C-340.697 463.697 -260.202 257.763 -77.497 327.677C111.044 399.839 326.554 482.972 651.669 707.854C664.857 716.963 678.951 723.744 691.649 732.55C1318.7 1167.63 895.603 292.605 1466.18 778.67C1485 794.679 1503.55 811.671 1523.01 828.996C2097.38 1339.76 2582.5 1299.04 2606.23 843.016" stroke="#BBE1FA" stroke-width="1.17" stroke-miterlimit="10"/>
<path d="M-340.642 466.901C-340.642 466.901 -259.296 259.445 -74.4681 335.209C115.745 413.229 331.679 500.402 656.303 722.551C669.545 731.587 683.778 738.3 696.529 747.033C1321.3 1174.9 903.74 300.947 1471.94 785.886C1490.73 801.932 1509.36 819.046 1528.85 836.45C2101.98 1348.44 2587.72 1310.15 2607.39 843.249" stroke="#BBE1FA" stroke-width="1.17" stroke-miterlimit="10"/>
<path d="M-340.671 470.099C-340.671 470.099 -258.507 261.04 -71.6087 342.729C120.304 426.572 336.661 517.783 660.709 737.194C674.036 746.236 688.319 752.759 701.182 761.461C1323.7 1182.2 911.592 309.193 1477.47 793.048C1496.29 809.173 1514.95 826.366 1534.51 843.928C2106.37 1357.15 2592.74 1321.28 2608.33 843.545" stroke="#BBE1FA" stroke-width="1.17" stroke-miterlimit="10"/>
<path d="M-340.616 473.303C-340.616 473.303 -257.574 262.685 -68.5797 350.261C125.063 440.005 341.812 535.175 665.316 751.927C678.755 760.938 693.119 767.352 706.094 776.023C1326.24 1189.66 919.703 317.571 1483.28 800.307C1502.16 816.474 1520.83 833.783 1540.47 851.467C2111.08 1365.91 2598.12 1332.52 2609.61 843.863" stroke="#BBE1FA" stroke-width="1.17" stroke-miterlimit="10"/>
<path d="M-340.587 476.544C-340.587 476.544 -256.669 264.366 -65.5776 357.83C129.764 453.395 347.022 552.61 669.923 766.661C683.474 775.641 697.918 781.944 710.948 790.541C1328.65 1197.07 927.755 325.907 1489.01 807.559C1507.92 823.806 1526.62 841.194 1546.32 859.036C2115.68 1374.71 2603.31 1343.79 2610.84 844.255" stroke="#BBE1FA" stroke-width="1.17" stroke-miterlimit="10"/>
<path d="M-340.532 479.748C-340.532 479.748 -255.795 265.967 -62.6339 365.356C134.407 466.743 352.115 569.96 674.414 781.31C688.076 790.259 702.544 796.409 715.712 804.939C1330.99 1204.44 935.719 334.122 1494.68 814.654C1513.65 830.942 1532.35 848.447 1552.08 866.368C2120.21 1383.23 2608.44 1354.78 2611.92 844.366" stroke="#BBE1FA" stroke-width="1.17" stroke-miterlimit="10"/>
<path d="M-340.503 482.989C-340.503 482.989 -254.862 267.612 -59.6317 372.924C139.135 480.097 357.324 587.395 679.021 796.043C692.737 804.919 707.344 811.002 720.565 819.458C1333.34 1211.92 943.744 342.495 1500.4 821.907C1519.35 838.232 1538.14 855.858 1557.94 873.938C2124.84 1391.99 2613.72 1366.05 2613.06 844.753" stroke="#BBE1FA" stroke-width="1.17" stroke-miterlimit="10"/>
<path d="M-340.506 486.15C-340.506 486.15 -253.988 269.213 -56.7187 380.371C143.748 493.366 362.414 604.629 683.539 810.655C697.367 819.5 712.055 825.472 725.33 833.855C1335.55 1219.36 951.708 350.709 1506.1 829.08C1525.1 845.448 1543.9 863.19 1563.78 881.392C2129.51 1400.67 2618.93 1377.16 2614.23 844.986" stroke="#BBE1FA" stroke-width="1.17" stroke-miterlimit="10"/>
<path d="M-340.477 489.391C-340.477 489.391 -253.056 270.858 -53.7433 387.976C148.507 506.799 367.651 622.028 688.062 825.383C701.975 834.233 716.712 840.017 730.099 848.369C1337.76 1226.91 959.649 359.076 1511.77 836.29C1530.81 852.738 1549.63 870.559 1569.58 888.919C2134.08 1409.39 2624.09 1388.35 2615.34 845.293" stroke="#BBE1FA" stroke-width="1.17" stroke-miterlimit="10"/>
<path d="M-340.448 492.632C-340.448 492.632 -252.123 272.502 -50.7989 395.502C153.151 520.147 372.772 639.341 692.611 840.074C706.636 848.894 721.454 854.567 734.895 862.845C1339.89 1234.46 967.644 367.37 1517.44 843.5C1536.51 860.027 1555.39 877.891 1575.34 896.367C2138.64 1417.99 2629.28 1399.5 2616.42 845.521" stroke="#BBE1FA" stroke-width="1.17" stroke-miterlimit="10"/>
<path d="M-340.393 495.836C-340.393 495.836 -251.164 274.11 -47.7971 403.071C157.879 533.501 378.062 656.666 697.16 854.765C711.297 863.554 726.138 869.074 739.691 877.322C1342.02 1242.13 975.612 375.7 1523.14 850.674C1542.26 867.243 1561.15 885.223 1581.16 903.858C2143.24 1426.67 2634.44 1410.68 2617.56 845.791" stroke="#BBE1FA" stroke-width="1.17" stroke-miterlimit="10"/>
<path d="M-340.422 499.034C-340.422 499.034 -250.289 275.711 -44.8529 410.597C162.607 546.855 383.267 673.985 701.709 869.457C715.958 878.214 730.852 883.661 744.486 891.798C1344.09 1249.75 983.58 384.031 1528.81 857.885C1547.97 874.533 1566.88 892.592 1586.99 911.348C2147.91 1435.35 2639.63 1421.83 2618.67 846.098" stroke="#BBE1FA" stroke-width="1.17" stroke-miterlimit="10"/>
<path d="M-340.367 502.238C-340.367 502.238 -249.303 277.282 -41.8818 418.087C167.389 560.135 388.469 691.188 706.286 884.111C720.588 892.795 735.621 898.174 749.309 906.238C1346.2 1257.45 991.632 392.367 1534.57 865.1C1553.72 881.749 1572.7 899.966 1592.87 918.881C2152.59 1444.04 2644.93 1433.06 2619.86 846.411" stroke="#BBE1FA" stroke-width="1.17" stroke-miterlimit="10"/>
<path d="M-340.339 505.479C-340.339 505.479 -248.371 278.926 -38.9069 425.692C172.09 573.526 393.732 708.55 710.808 898.839C725.222 907.492 740.278 912.719 754.104 920.715C1348.19 1265.18 999.6 400.697 1540.27 872.274C1559.45 889.001 1578.46 907.298 1598.66 926.292C2157.18 1452.6 2650.09 1444.13 2620.97 846.602" stroke="#BBE1FA" stroke-width="1.17" stroke-miterlimit="10"/>
<path d="M-340.283 508.683C-340.283 508.683 -247.327 280.539 -35.9357 433.181C176.845 586.843 398.96 725.716 715.384 913.493C729.909 922.115 745.047 927.232 758.927 935.154C1350.18 1272.91 1007.59 408.991 1545.96 879.447C1565.18 896.254 1584.22 914.63 1604.48 933.782C2161.88 1461.25 2655.27 1455.28 2622.17 846.914" stroke="#BBE1FA" stroke-width="1.17" stroke-miterlimit="10"/>
<path d="M-340.312 511.881C-340.312 511.881 -246.425 282.105 -32.9915 440.707C181.601 600.16 404.219 742.962 719.875 928.142C734.513 936.733 749.73 941.739 763.665 949.589C1352.06 1280.67 1015.5 417.279 1551.6 886.578C1570.88 903.427 1589.92 921.919 1610.27 941.193C2166.47 1469.81 2660.46 1466.43 2623.25 847.142" stroke="#BBE1FA" stroke-width="1.17" stroke-miterlimit="10"/>
<path d="M-340.257 515.085C-340.257 515.085 -245.408 283.755 -29.9893 448.276C186.387 613.556 409.506 760.171 724.455 942.912C739.205 951.472 754.419 956.363 768.492 964.144C1354.03 1288.67 1023.5 425.688 1557.31 893.868C1576.61 910.796 1595.71 929.331 1616.09 948.8C2171.18 1478.58 2665.65 1477.7 2624.39 847.528" stroke="#BBE1FA" stroke-width="1.17" stroke-miterlimit="10"/>
<path d="M-340.228 518.326C-340.228 518.326 -244.449 285.362 -27.0455 455.802C191.142 626.873 414.792 777.379 729.004 957.603C743.808 966.09 759.16 970.913 773.287 978.621C1355.92 1296.55 1031.47 434.018 1563 901.041C1582.28 918.006 1601.47 936.662 1621.88 956.211C2175.8 1487.1 2670.81 1488.76 2625.5 847.719" stroke="#BBE1FA" stroke-width="1.17" stroke-miterlimit="10"/>
<path d="M-340.173 521.529C-340.173 521.529 -243.404 286.975 -24.0432 463.37C195.928 640.269 420.078 794.588 733.554 972.294C748.469 980.75 763.844 985.42 778.083 993.097C1357.8 1304.54 1039.41 442.386 1568.67 908.251C1588.01 925.259 1607.21 944.031 1627.68 963.738C2180.48 1495.79 2676.03 1499.99 2626.61 848.026" stroke="#BBE1FA" stroke-width="1.17" stroke-miterlimit="10"/>
<path d="M-340.202 524.728C-340.202 524.728 -242.445 288.583 -21.1571 470.854C200.683 653.587 425.276 811.676 738.045 986.943C753.072 995.368 768.528 999.928 782.82 1007.53C1359.55 1312.49 1047.32 450.674 1574.34 915.462C1593.71 932.549 1612.94 951.4 1633.5 971.229C2185.12 1504.39 2681.22 1511.14 2627.75 848.296" stroke="#BBE1FA" stroke-width="1.17" stroke-miterlimit="10"/>
<path d="M-340.147 527.932C-340.147 527.932 -241.401 290.196 -18.128 478.386C205.524 666.909 430.674 828.854 742.679 1001.64C757.818 1010.03 773.328 1014.52 787.728 1021.98C1361.5 1320.52 1055.37 459.01 1580.15 922.604C1599.58 939.734 1618.81 958.701 1639.43 978.688C2189.94 1513.01 2686.51 1522.26 2628.97 848.572" stroke="#BBE1FA" stroke-width="1.17" stroke-miterlimit="10"/>
<path d="M-340.118 531.173C-340.118 531.173 -240.384 291.846 -15.1528 485.991C210.368 680.348 435.96 846.063 747.201 1016.37C762.452 1024.73 777.985 1029.06 792.497 1036.49C1363.25 1328.7 1063.26 467.334 1585.8 929.851C1605.25 947.06 1624.54 966.069 1645.17 986.172C2194.59 1521.62 2691.65 1533.48 2630.02 848.837" stroke="#BBE1FA" stroke-width="1.17" stroke-miterlimit="10"/>
<path d="M-340.09 534.413C-340.09 534.413 -239.367 293.496 -12.2088 493.517C215.096 693.702 441.242 863.155 751.75 1031.06C767.055 1039.35 782.699 1043.65 797.292 1050.97C1365.03 1336.84 1071.2 475.701 1591.5 937.025C1610.92 954.27 1630.3 973.401 1650.99 993.663C2199.29 1530.26 2696.84 1544.63 2631.16 849.107" stroke="#BBE1FA" stroke-width="1.17" stroke-miterlimit="10"/>
<path d="M-340.092 537.575C-340.092 537.575 -238.38 295.067 -9.23757 501.006C219.936 707.025 446.551 880.212 756.269 1045.67C771.712 1053.89 787.411 1058.12 802.115 1065.41C1366.87 1345.03 1079.17 484.032 1597.19 944.198C1616.68 961.486 1636.12 980.776 1656.84 1001.12C2203.99 1538.8 2702.05 1555.74 2632.33 849.34" stroke="#BBE1FA" stroke-width="1.17" stroke-miterlimit="10"/>
<path d="M-340.064 540.816C-340.064 540.816 -237.363 296.717 -6.32081 508.569C224.664 720.379 451.806 897.341 760.79 1060.4C776.345 1068.59 792.067 1072.67 806.883 1079.92C1368.6 1353.36 1087.08 492.436 1602.89 951.488C1622.41 968.855 1641.88 988.224 1662.67 1008.72C2208.73 1547.52 2707.3 1567.05 2633.53 849.769" stroke="#BBE1FA" stroke-width="1.17" stroke-miterlimit="10"/>
<path d="M-340.008 544.02C-340.008 544.02 -236.319 298.33 -3.29175 516.101C229.562 733.744 457.173 914.44 765.424 1075.1C781.091 1083.26 796.867 1087.26 811.764 1094.4C1370.44 1361.66 1095.13 500.772 1608.68 958.667C1628.22 976.114 1647.73 995.562 1668.6 1016.18C2213.57 1556.11 2712.6 1578.17 2634.75 850.045" stroke="#BBE1FA" stroke-width="1.17" stroke-miterlimit="10"/>
<path d="M-339.979 547.26C-339.979 547.26 -235.217 299.986 -0.289329 523.669C234.433 747.146 462.541 931.539 769.974 1089.79C785.752 1097.92 801.609 1101.81 816.56 1108.88C1372.14 1370.02 1103.07 509.139 1614.35 965.877C1633.95 983.366 1653.49 1002.89 1674.34 1023.67C2218.22 1564.71 2717.7 1589.31 2635.8 850.31" stroke="#BBE1FA" stroke-width="1.17" stroke-miterlimit="10"/>
<path d="M-339.982 550.422C-339.982 550.422 -234.23 301.557 2.59683 531.153C239.188 760.463 467.761 948.473 774.465 1104.44C790.298 1112.49 806.208 1116.31 821.325 1123.28C1373.87 1378.35 1110.96 517.464 1620.01 972.972C1639.59 990.497 1659.22 1010.15 1680.16 1031.04C2222.98 1573.17 2722.92 1600.42 2636.94 850.464" stroke="#BBE1FA" stroke-width="1.17" stroke-miterlimit="10"/>
<path d="M-339.953 553.663C-339.953 553.663 -233.155 303.249 5.59877 538.722C244.059 773.865 473.128 965.572 779.014 1119.13C794.959 1127.15 810.923 1130.9 826.12 1137.75C1375.61 1386.8 1118.9 525.831 1625.69 980.182C1645.3 997.786 1664.95 1017.51 1685.95 1038.57C2227.68 1581.82 2728.08 1611.61 2638.05 850.771" stroke="#BBE1FA" stroke-width="1.17" stroke-miterlimit="10"/>
<path d="M-339.898 556.866C-339.898 556.866 -232.111 304.863 8.54278 546.247C248.845 787.261 478.406 982.549 783.536 1133.85C799.619 1141.81 815.637 1145.48 830.889 1152.27C1377.26 1395.36 1126.81 534.234 1631.33 987.429C1651 1005.08 1670.66 1024.92 1691.74 1046.1C2232.41 1590.43 2733.24 1622.79 2639.13 851.114" stroke="#BBE1FA" stroke-width="1.17" stroke-miterlimit="10"/>
<path d="M-339.869 560.107C-339.869 560.107 -231.036 306.555 11.545 553.816C253.717 800.664 483.742 999.568 788.144 1148.59C804.338 1156.51 820.352 1160.07 835.743 1166.78C1379.06 1403.96 1134.81 542.644 1637.14 994.687C1656.84 1012.41 1676.56 1032.3 1697.62 1053.63C2237.2 1599.08 2738.54 1634.03 2640.33 851.427" stroke="#BBE1FA" stroke-width="1.17" stroke-miterlimit="10"/>
<path d="M-339.872 563.269C-339.872 563.269 -230.05 308.126 14.5161 561.305C258.557 813.986 489.132 1016.51 792.662 1163.2C808.91 1171.05 825.063 1174.54 840.508 1181.18C1380.8 1412.52 1142.63 550.926 1642.78 1001.82C1662.51 1019.62 1682.26 1039.59 1703.42 1061.04C2241.93 1607.58 2743.7 1645.1 2641.44 851.618" stroke="#BBE1FA" stroke-width="1.17" stroke-miterlimit="10"/>
<path d="M-339.843 566.51C-339.843 566.51 -228.975 309.819 17.4334 568.868C263.343 827.383 494.384 1033.53 797.184 1177.93C813.545 1185.75 829.751 1189.16 845.276 1195.7C1382.54 1421.2 1150.55 559.33 1648.45 1009.03C1668.18 1026.83 1687.99 1046.96 1709.21 1068.57C2246.66 1616.19 2748.83 1656.32 2642.55 851.925" stroke="#BBE1FA" stroke-width="1.17" stroke-miterlimit="10"/>
<path d="M-339.788 569.714C-339.788 569.714 -227.873 311.474 20.4623 576.4C268.241 840.748 499.716 1050.43 801.818 1192.62C818.317 1200.38 834.551 1203.76 850.157 1210.18C1384.34 1429.92 1158.55 567.74 1654.21 1016.24C1673.97 1034.13 1693.84 1054.3 1715.12 1076.06C2251.51 1624.77 2754.16 1667.52 2643.83 852.243" stroke="#BBE1FA" stroke-width="1.17" stroke-miterlimit="10"/>
<path d="M-339.759 572.954C-339.759 572.954 -226.855 313.124 23.4064 583.926C273.112 854.15 505.021 1067.37 806.309 1207.27C822.862 1214.95 839.177 1218.22 854.921 1224.58C1386.08 1438.6 1166.46 576.028 1659.85 1023.38C1679.64 1041.34 1699.54 1061.59 1720.82 1083.47C2256.23 1633.27 2759.23 1678.58 2644.83 852.465" stroke="#BBE1FA" stroke-width="1.17" stroke-miterlimit="10"/>
<path d="M-339.789 576.152C-339.789 576.152 -225.811 314.737 26.3236 591.489C277.871 867.583 510.326 1084.31 810.831 1222C827.496 1229.65 843.865 1232.85 859.69 1239.09C1387.77 1447.47 1174.29 584.425 1665.52 1030.59C1685.37 1048.59 1705.27 1068.95 1726.64 1090.96C2260.99 1641.84 2764.42 1689.73 2645.96 852.735" stroke="#BBE1FA" stroke-width="1.17" stroke-miterlimit="10"/>
<path d="M-339.733 579.357C-339.733 579.357 -224.709 316.393 29.3526 599.021C282.769 880.949 515.658 1101.22 815.408 1236.66C832.211 1244.24 848.606 1247.4 864.513 1253.53C1389.66 1456.31 1182.23 592.793 1671.22 1037.76C1691.1 1055.85 1711.03 1076.29 1732.47 1098.45C2265.75 1650.42 2769.66 1700.92 2647.1 853.006" stroke="#BBE1FA" stroke-width="1.17" stroke-miterlimit="10"/>
<path d="M-339.704 582.597C-339.704 582.597 -223.634 318.086 32.27 606.583C287.613 894.387 520.905 1118.11 819.93 1251.38C836.846 1258.93 853.295 1262.02 869.282 1268.04C1391.39 1465.26 1190.11 601.233 1676.95 1045.01C1696.8 1063.13 1716.85 1083.66 1738.35 1105.98C2270.65 1659.04 2774.91 1712.11 2648.3 853.318" stroke="#BBE1FA" stroke-width="1.17" stroke-miterlimit="10"/>
<path d="M-339.649 585.801C-339.649 585.801 -222.532 319.742 35.2987 614.115C292.511 907.753 526.264 1134.98 824.564 1266.08C841.533 1273.56 858.094 1276.61 874.162 1282.52C1393.28 1474.22 1198.14 609.606 1682.7 1052.23C1702.61 1070.39 1722.67 1091.04 1744.17 1113.47C2275.44 1667.58 2780.07 1723.3 2649.41 853.625" stroke="#BBE1FA" stroke-width="1.17" stroke-miterlimit="10"/>
<path d="M-339.678 588.999C-339.678 588.999 -221.514 321.392 38.1851 621.599C297.324 921.113 531.507 1151.76 828.997 1280.69C846.105 1288.1 862.635 1291.07 878.842 1296.92C1395.01 1483.16 1205.88 617.883 1688.26 1059.35C1708.2 1077.6 1728.28 1098.32 1749.87 1120.88C2280.14 1676.11 2785.2 1734.4 2650.43 853.811" stroke="#BBE1FA" stroke-width="1.17" stroke-miterlimit="10"/>
<path d="M-339.623 592.203C-339.623 592.203 -220.412 323.047 41.1872 629.167C302.168 934.551 536.839 1168.67 833.604 1295.42C850.824 1302.8 867.435 1305.66 883.696 1311.43C1396.96 1492.28 1213.85 626.329 1694.01 1066.57C1713.99 1084.89 1734.13 1105.66 1755.75 1128.41C2284.98 1684.69 2790.45 1745.59 2651.63 854.123" stroke="#BBE1FA" stroke-width="1.17" stroke-miterlimit="10"/>
<path d="M-339.594 595.444C-339.594 595.444 -219.337 324.74 44.1893 636.736C307.097 947.996 542.14 1185.49 838.127 1310.15C855.427 1317.42 872.123 1320.29 888.491 1325.91C1398.83 1501.39 1221.74 634.769 1699.68 1073.78C1719.71 1092.15 1739.86 1113.03 1761.57 1135.9C2289.83 1693.27 2795.63 1756.74 2652.77 854.394" stroke="#BBE1FA" stroke-width="1.17" stroke-miterlimit="10"/>
<path d="M-339.539 598.648C-339.539 598.648 -218.235 326.396 47.1603 644.225C311.937 961.319 547.468 1202.28 842.703 1324.8C860.115 1332.04 876.865 1334.84 893.314 1340.35C1400.79 1510.51 1229.62 643.094 1705.41 1080.92C1725.41 1099.32 1745.65 1120.32 1767.36 1143.31C2294.64 1701.77 2800.85 1767.85 2653.88 854.584" stroke="#BBE1FA" stroke-width="1.17" stroke-miterlimit="10"/>
<path d="M-339.568 601.846C-339.568 601.846 -217.218 328.046 50.0775 651.788C316.781 974.758 552.684 1219.1 847.225 1339.53C864.718 1346.66 881.553 1349.46 898.141 1354.91C1402.78 1519.82 1237.57 651.577 1711.17 1088.25C1731.2 1106.73 1751.5 1127.77 1773.28 1150.92C2299.54 1710.4 2806.1 1779.16 2655.13 855.056" stroke="#BBE1FA" stroke-width="1.17" stroke-miterlimit="10"/>
<path d="M-339.513 605.051C-339.513 605.051 -216.116 329.702 53.0487 659.278C321.595 988.117 557.954 1235.84 851.743 1354.14C869.348 1361.24 886.237 1363.97 902.905 1369.3C1404.71 1528.97 1245.45 659.902 1716.81 1095.38C1736.87 1113.94 1757.2 1135.06 1779.04 1158.37C2304.33 1718.93 2811.23 1790.27 2656.21 855.284" stroke="#BBE1FA" stroke-width="1.17" stroke-miterlimit="10"/>
<path d="M-339.484 608.291C-339.484 608.291 -215.041 331.394 56.0237 666.883C326.496 1001.6 563.17 1252.66 856.323 1368.91C874.067 1375.94 890.982 1378.63 907.732 1383.86C1406.73 1538.36 1253.31 668.379 1722.54 1102.63C1742.66 1121.24 1762.99 1142.48 1784.92 1165.91C2309.23 1727.56 2816.53 1801.5 2657.41 855.596" stroke="#BBE1FA" stroke-width="1.17" stroke-miterlimit="10"/>
<path d="M-339.429 611.495C-339.429 611.495 -213.938 333.05 59.0527 674.415C331.395 1014.96 568.526 1269.41 860.957 1383.61C878.755 1390.56 895.782 1393.23 912.613 1398.34C1408.86 1547.72 1261.31 676.789 1728.29 1109.85C1748.45 1128.53 1768.89 1149.86 1790.74 1173.4C2314.1 1736.1 2821.72 1812.65 2658.55 855.866" stroke="#BBE1FA" stroke-width="1.17" stroke-miterlimit="10"/>
<path d="M-339.458 614.693C-339.458 614.693 -212.921 334.7 61.939 681.898C336.181 1028.36 573.68 1286.07 865.391 1398.22C883.327 1405.1 900.354 1407.76 917.292 1412.73C1410.79 1556.99 1269.02 685.102 1733.87 1116.94C1754 1135.66 1774.54 1157.1 1796.47 1180.76C2318.85 1744.56 2826.82 1823.68 2659.57 856.051" stroke="#BBE1FA" stroke-width="1.17" stroke-miterlimit="10"/>
<path d="M-339.43 617.934C-339.43 617.934 -211.846 336.392 64.9141 689.503C341.083 1041.84 578.923 1302.85 869.971 1412.99C887.961 1419.8 905.1 1422.43 922.146 1427.25C1412.99 1566.51 1276.99 693.548 1739.6 1124.19C1759.79 1142.95 1780.33 1164.51 1802.33 1188.33C2323.76 1753.18 2832.09 1834.95 2660.74 856.401" stroke="#BBE1FA" stroke-width="1.17" stroke-miterlimit="10"/>
<path d="M-339.374 621.138C-339.374 621.138 -210.686 338.091 67.885 696.993C345.923 1055.16 584.162 1319.52 874.489 1427.6C892.618 1434.34 909.842 1436.98 926.91 1441.65C1415.09 1575.91 1284.85 701.909 1745.3 1131.36C1765.52 1150.2 1786.11 1171.81 1808.17 1195.79C2328.65 1761.69 2837.28 1846.1 2661.91 856.634" stroke="#BBE1FA" stroke-width="1.17" stroke-miterlimit="10"/>
<path d="M-339.346 624.379C-339.346 624.379 -209.611 339.783 70.8872 704.561C350.825 1068.65 589.432 1336.26 879.096 1442.33C897.279 1449 914.614 1451.61 931.764 1456.17C1417.35 1585.47 1292.74 710.35 1751.06 1138.58C1771.3 1157.5 1791.93 1179.18 1814 1203.28C2333.52 1770.23 2842.47 1857.24 2663.04 856.904" stroke="#BBE1FA" stroke-width="1.17" stroke-miterlimit="10"/>
<path d="M-339.348 627.54C-339.348 627.54 -208.567 341.396 73.8313 712.087C355.696 1082.05 594.586 1352.92 883.645 1457.02C901.967 1463.63 919.329 1466.2 936.56 1470.65C1419.6 1595.03 1300.65 718.754 1756.73 1145.79C1777.01 1164.79 1797.66 1186.55 1819.82 1210.77C2338.39 1778.78 2847.71 1868.44 2664.18 857.175" stroke="#BBE1FA" stroke-width="1.17" stroke-miterlimit="10"/>
<path d="M-339.319 630.781C-339.319 630.781 -207.491 343.089 76.7756 719.613C360.567 1095.45 599.74 1369.58 888.136 1471.67C906.539 1478.17 923.987 1480.74 941.298 1485.08C1421.77 1604.59 1308.42 727.109 1762.37 1152.92C1782.65 1171.92 1803.39 1193.8 1825.58 1218.22C2343.27 1787.32 2852.84 1879.54 2665.29 857.482" stroke="#BBE1FA" stroke-width="1.17" stroke-miterlimit="10"/>
<path d="M-339.264 633.985C-339.264 633.985 -206.358 344.824 79.8045 727.145C365.438 1108.85 605.006 1386.21 892.77 1486.37C911.285 1492.83 928.817 1495.41 946.178 1499.56C1424.22 1614.24 1316.33 735.513 1768.12 1160.14C1788.43 1179.22 1809.21 1201.18 1831.49 1225.71C2348.22 1795.87 2858.11 1890.7 2666.52 857.758" stroke="#BBE1FA" stroke-width="1.17" stroke-miterlimit="10"/>
<path d="M-339.236 637.226C-339.236 637.226 -205.283 346.517 82.7216 734.708C370.282 1122.29 610.134 1402.91 897.208 1501.09C915.803 1507.44 933.42 1510.03 950.862 1514.07C1426.45 1623.95 1324.11 743.985 1773.68 1167.38C1794.02 1186.54 1814.86 1208.54 1837.11 1233.23C2352.9 1804.44 2863.14 1901.95 2667.46 858.053" stroke="#BBE1FA" stroke-width="1.17" stroke-miterlimit="10"/>
<path d="M-339.238 640.388C-339.238 640.388 -204.239 348.13 85.6926 742.197C375.153 1135.69 615.342 1419.5 901.784 1515.74C920.518 1522.03 938.162 1524.58 955.712 1528.47C1428.91 1633.6 1331.99 752.309 1779.49 1174.52C1799.86 1193.76 1820.73 1215.84 1843.07 1240.65C2357.96 1812.96 2868.46 1913.03 2668.74 858.256" stroke="#BBE1FA" stroke-width="1.17" stroke-miterlimit="10"/>
<path d="M-339.209 643.628C-339.209 643.628 -203.164 349.822 88.6678 749.802C380.055 1149.17 620.496 1436.16 906.364 1530.51C925.152 1536.73 942.966 1539.29 960.538 1543.03C1431.42 1643.41 1339.91 760.829 1785.19 1181.81C1805.56 1201.05 1826.49 1223.29 1848.9 1248.26C2362.86 1821.58 2873.65 1924.3 2669.88 858.642" stroke="#BBE1FA" stroke-width="1.17" stroke-miterlimit="10"/>
<path d="M-339.154 646.832C-339.154 646.832 -202.004 351.52 91.6389 757.292C384.953 1162.54 625.619 1452.74 910.882 1545.13C929.809 1551.27 947.623 1553.83 965.303 1557.43C1433.91 1653.15 1347.71 769.148 1790.86 1188.9C1811.26 1208.22 1832.25 1230.51 1854.72 1255.63C2367.79 1830.05 2878.89 1935.37 2670.99 858.833" stroke="#BBE1FA" stroke-width="1.17" stroke-miterlimit="10"/>
<path d="M-339.125 650.073C-339.125 650.073 -200.173 353.033 94.641 764.86C390.553 1175.8 630.8 1469.36 915.489 1559.86C934.497 1565.9 952.453 1568.51 970.157 1571.95C1436.48 1663 1355.6 777.589 1796.59 1196.16C1817.02 1215.55 1838.1 1237.96 1860.57 1263.2C2372.72 1838.64 2884.11 1946.6 2672.16 859.182" stroke="#BBE1FA" stroke-width="1.17" stroke-miterlimit="10"/>
<path d="M-339.128 653.234C-339.128 653.234 -199.214 354.641 97.5273 772.344C395.281 1189.15 635.808 1485.86 919.981 1574.51C939.069 1580.43 957.083 1583.09 974.894 1586.38C1439.06 1672.85 1363.4 786.023 1802.2 1203.32C1822.67 1222.8 1843.8 1245.25 1866.28 1270.61C2377.53 1847.14 2889.18 1957.66 2673.18 859.368" stroke="#BBE1FA" stroke-width="1.17" stroke-miterlimit="10"/>
<path d="M-339.099 656.475C-339.099 656.475 -198.192 356.407 100.529 779.913C400.156 1202.67 640.989 1502.48 924.53 1589.2C943.73 1595.09 961.856 1597.72 979.69 1600.86C1441.71 1682.71 1371.23 794.421 1807.9 1210.5C1828.39 1230.05 1849.56 1252.58 1872.1 1278.1C2382.49 1855.69 2894.4 1968.89 2674.32 859.638" stroke="#BBE1FA" stroke-width="1.17" stroke-miterlimit="10"/>
<path d="M-339.071 659.716C-339.071 659.716 -197.144 358.136 103.532 787.481C405 1216.11 646.112 1519.06 929.137 1603.93C948.418 1609.72 966.629 1612.34 984.544 1615.37C1444.49 1692.65 1379.11 802.862 1813.68 1217.79C1834.18 1237.35 1855.43 1260 1878.03 1285.67C2387.5 1864.28 2899.71 1980.12 2675.54 860.03" stroke="#BBE1FA" stroke-width="1.17" stroke-miterlimit="10"/>
<path d="M-339.015 662.92C-339.015 662.92 -196.069 359.829 106.476 795.007C409.818 1229.58 651.177 1535.6 933.628 1618.58C952.99 1624.26 971.317 1626.97 989.367 1629.81C1447.26 1702.6 1387 811.302 1819.41 1224.93C1839.94 1244.56 1861.22 1267.29 1883.88 1293.13C2392.45 1872.83 2904.92 1991.24 2676.77 860.306" stroke="#BBE1FA" stroke-width="1.17" stroke-miterlimit="10"/>
<path d="M-339.045 666.118C-339.045 666.118 -195.079 361.515 109.42 802.533C414.604 1242.98 656.243 1552.14 938.177 1633.27C957.678 1638.88 976.032 1641.55 994.162 1644.29C1450.1 1712.58 1394.83 819.701 1825.08 1232.14C1845.64 1251.85 1866.95 1274.66 1889.65 1300.57C2397.35 1881.34 2910.11 2002.39 2677.85 860.534" stroke="#BBE1FA" stroke-width="1.17" stroke-miterlimit="10"/>
<path d="M-338.989 669.322C-338.989 669.322 -194.004 363.208 112.364 810.059C419.363 1256.41 661.25 1568.63 942.726 1647.96C962.281 1653.5 980.777 1656.22 998.957 1658.77C1453.01 1722.57 1402.63 828.135 1830.75 1239.35C1851.34 1259.14 1872.71 1281.99 1895.44 1308.1C2402.28 1889.93 2915.27 2013.57 2678.96 860.84" stroke="#BBE1FA" stroke-width="1.17" stroke-miterlimit="10"/>
<path d="M-338.96 672.563C-338.96 672.563 -192.982 364.974 115.366 817.628C424.265 1269.9 666.315 1585.17 947.276 1662.66C966.911 1668.08 985.55 1670.85 1003.75 1673.24C1455.96 1732.65 1410.46 836.533 1836.45 1246.52C1857.04 1266.32 1878.47 1289.33 1901.29 1315.56C2407.26 1898.44 2920.51 2024.76 2680.12 861.074" stroke="#BBE1FA" stroke-width="1.17" stroke-miterlimit="10"/>
<path d="M-338.905 675.766C-338.905 675.766 -191.965 366.623 118.337 825.117C429.051 1283.29 671.349 1601.63 951.851 1677.31C971.568 1682.62 990.35 1685.44 1008.58 1687.68C1458.96 1742.64 1418.35 844.974 1842.15 1253.7C1862.77 1273.57 1884.32 1296.66 1907.11 1323.05C2412.22 1906.99 2925.7 2035.91 2681.24 861.38" stroke="#BBE1FA" stroke-width="1.17" stroke-miterlimit="10"/>
<path d="M-338.934 678.965C-338.934 678.965 -190.975 368.31 121.254 832.68C433.81 1296.72 676.357 1618.13 956.289 1692.03C976.144 1697.28 994.926 1700.1 1013.26 1702.19C1461.89 1752.75 1425.49 853.826 1847.79 1260.94C1868.41 1280.93 1890.02 1304.07 1912.85 1330.53C2417.09 1915.53 2930.8 2047.05 2682.29 861.645" stroke="#BBE1FA" stroke-width="1.17" stroke-miterlimit="10"/>
<path d="M-338.879 682.169C-338.879 682.169 -189.9 370.003 124.283 840.212C438.712 1310.21 681.391 1634.59 960.923 1706.73C980.859 1711.86 999.784 1714.73 1018.14 1716.67C1465.06 1762.88 1433.54 862.162 1853.55 1268.16C1874.23 1288.19 1895.87 1311.41 1918.73 1338.06C2423.02 1923.72 2936.11 2058.29 2683.49 861.958" stroke="#BBE1FA" stroke-width="1.17" stroke-miterlimit="10"/>
<path d="M-338.851 685.41C-338.851 685.41 -188.878 371.769 127.227 847.738C443.498 1323.6 686.398 1651.08 965.472 1721.42C985.489 1726.44 1004.53 1729.4 1022.96 1731.11C1468.26 1772.96 1441.48 870.413 1859.24 1275.33C1879.9 1295.4 1901.65 1318.7 1924.58 1345.52C2427.72 1932.37 2941.32 2069.4 2684.65 862.191" stroke="#BBE1FA" stroke-width="1.17" stroke-miterlimit="10"/>
<path d="M-338.795 688.614C-338.795 688.614 -187.803 373.461 130.229 855.306C448.373 1337.12 691.406 1667.58 970.021 1736.11C990.092 1741.06 1009.3 1744.03 1027.76 1745.59C1471.5 1783.13 1449.42 878.781 1864.94 1282.51C1885.63 1302.65 1907.41 1326.03 1930.4 1353.01C2432.4 1941.06 2946.51 2080.55 2685.76 862.498" stroke="#BBE1FA" stroke-width="1.17" stroke-miterlimit="10"/>
<path d="M-338.767 691.855C-338.767 691.855 -186.755 375.191 133.173 862.832C453.159 1350.52 696.297 1683.99 974.57 1750.8C1501.14 1877.18 1435.27 771.247 1936.22 1360.5C2437.11 1949.71 2951.73 2091.78 2686.9 862.768" stroke="#BBE1FA" stroke-width="1.17" stroke-miterlimit="10"/>
</g>
</svg>
